<svg xmlns="http://www.w3.org/2000/svg" viewBox="0 0 128 87">
  <g id="bag-run-bg-Subsidised-ordering" stroke="none" stroke-width="1" fill="none" fill-rule="evenodd">
    <g id="bag-run-bg-375_RW_Takeaway-Pay_Logged-in_Activate" transform="translate(-124 -118)">
      <g id="bag-run-bg-Group" transform="translate(114 88)">
        <path id="bag-run-bg-bounding-box" d="M0 148h148V0H0z"/>
        <g id="bag-run-bg-JUSTEAT_ORDER_CONFIRMATION_BAG" transform="translate(10 30)" fill-rule="nonzero">
          <g id="bag-run-bg-BACKGRUND" transform="translate(5.513)" fill="#FFD9B2">
            <path id="bag-run-bg-Path" d="M.542.516L16.34 85.089 122.4 20.098z"/>
          </g>
          <g id="bag-run-bg-LEG2" transform="translate(71.226 65.713)" fill="#4C4C4C">
            <path d="M.803 2.606c6.328 3.088 10.584 9.632 10.692 16.689.029 1.7 2.675 1.707 2.646 0C14.018 11.356 9.291 3.802 2.14.33.613-.412-.728 1.874.803 2.615v-.009z" id="bag-run-bg-Path"/>
          </g>
          <g id="bag-run-bg-LEG1" transform="translate(48.072 67.477)" fill="#4C4C4C">
            <path d="M1.164 16.22c8.404 1.9 14.464-7.497 14.748-14.773.066-1.705-2.58-1.7-2.646 0a14.333 14.333 0 01-3.374 8.76c-1.951 2.267-4.917 4.175-8.024 3.474-1.659-.375-2.366 2.176-.704 2.55v-.01z" id="bag-run-bg-Path"/>
          </g>
          <g id="bag-run-bg-LINES" transform="translate(35.944 16.538)">
            <path d="M1.012 54.184l4.962-19.638 2.738-10.642 1.31-17.712 5.304-3.821 50.8-.726-4.144 21.249-1.972 9.416s.543 14.439-.736 20.834c0 0-19.73 3.484-30.02 3.563-10.292.08-28.242-2.523-28.242-2.523z" id="bag-run-bg-Path" fill="#FFF"/>
            <path d="M15.509 2.108l-5.806 4.88-1.01 18.058-7.68 29.138 6.751.741s5.983-15.84 7.163-22.933c1.18-7.094.582-29.884.582-29.884z" id="bag-run-bg-Path" fill="#FF8000"/>
            <path d="M8.701 6.988A266.452 266.452 0 007.696 24.92c-.029 1.277 1.956 1.277 1.985 0 .135-5.986.47-11.963 1.005-17.932.115-1.27-1.87-1.263-1.985 0z" id="bag-run-bg-Path" fill="#4C4C4C"/>
            <path d="M7.718 24.783A499.875 499.875 0 00.046 53.922c-.289 1.241 1.625 1.764 1.914.527A499.382 499.382 0 019.632 25.31c.364-1.228-1.544-1.75-1.914-.527z" id="bag-run-bg-Path" fill="#4C4C4C"/>
            <path d="M.816 55.219a166.569 166.569 0 0047.256 1.155c3.821-.44 7.62-1.072 11.431-1.616 1.398-.2.803-2.327-.586-2.126-6.911.988-13.752 1.912-20.729 2.346-7.771.5-15.569.438-23.332-.183-4.507-.37-8.991-.938-13.451-1.702C.018 52.855-.58 54.98.818 55.219H.816zM9.996 7.586c1.93-1.47 3.892-2.891 5.885-4.263 1.162-.8.06-2.712-1.102-1.903a155.357 155.357 0 00-5.886 4.26c-1.102.85-.017 2.766 1.114 1.906h-.011z" id="bag-run-bg-Path" fill="#4C4C4C"/>
            <path d="M15.509 3.21L43 2.749c1.418-.025 1.422-2.23 0-2.206l-27.491.464c-1.418.024-1.423 2.229 0 2.205z" id="bag-run-bg-Path" fill="#4C4C4C"/>
            <path d="M43.293 2.646c7.619-.49 15.216-.07 22.832.106 1.42.033 1.42-2.172 0-2.205C58.506.37 50.91-.05 43.293.44c-1.409.09-1.42 2.298 0 2.205z" id="bag-run-bg-Path" fill="#4C4C4C"/>
            <path d="M65.062 1.352l-5.92 30.351c-.27 1.387 1.854 1.985 2.127.587l5.92-30.352c.27-1.387-1.855-1.984-2.127-.586z" id="bag-run-bg-Path" fill="#4C4C4C"/>
            <path d="M58.908 32.31c.346 7.14.077 14.296-.805 21.39-.174 1.404 2.03 1.39 2.205 0 .882-7.094 1.152-14.25.805-21.39-.068-1.414-2.274-1.423-2.205 0zM14.609 2.32c.335 4.807.504 9.62.507 14.439 0 1.418 2.205 1.422 2.205 0 0-4.819-.169-9.632-.507-14.44-.1-1.408-2.304-1.42-2.205 0zM9.678 43.688a77.704 77.704 0 01-2.977 10.944c-.472 1.34 1.659 1.916 2.126.584a77.246 77.246 0 002.977-10.944c.271-1.384-1.854-1.984-2.126-.584zM14.653 26.713a110.066 110.066 0 01-.994 6.082c-.267 1.387 1.856 1.984 2.125.586.388-2.017.72-4.044.995-6.082.187-1.387-1.936-1.984-2.126-.586zM48.691 7.912l-.143.441a.662.662 0 00.463.814.68.68 0 00.814-.463l.141-.441a.662.662 0 00-.46-.814.677.677 0 00-.815.463zM33.902 8.787l.145.294a.662.662 0 001.21-.157.73.73 0 00-.068-.51l-.145-.295a.662.662 0 00-1.21.16.732.732 0 00.068.508zM52.603 51.252l-.626 2.774c-.25 1.102 1.451 1.579 1.702.47l.627-2.766c.249-1.102-1.451-1.577-1.703-.467v-.011z" id="bag-run-bg-Path" fill="#4C4C4C"/>
            <path d="M48.186 35.32c-1.029-1.57-2.084-3.12-3.166-4.651v-4.086a.593.593 0 00-.3-.52l-.937-.464a.613.613 0 00-.882.36c-.104.483-.178.972-.22 1.464-.733-1.017-1.452-2.137-2.343-3.001-.844-.82-1.764-.862-2.802-.375-4.708 2.205-8.905 5.777-12.129 9.815a.62.62 0 00.122.948 5.541 5.541 0 002.99 1.12c-.505 2.137-.882 4.353-.902 6.488 0 1.42 1.122 1.402 2.267 1.497l1.543.13c.19-1.764.498-3.513.924-5.235a2.086 2.086 0 01-.313-.121c-.635-.32-.895-1.006-.913-1.68-.022-.768.197-1.528.375-2.267l.578-2.388c.13-.54.964-.311.834.22l-.51 2.1c-.075.313-.16.626-.236.943.04.067.06.143.058.22-.001.055.016.109.048.153a.692.692 0 00.258.2c.092.052.19.09.293.115.07.02.144.038.22.053.27-1.323.574-2.633.914-3.93.139-.537.972-.308.831.221-.245.941-.473 1.888-.683 2.84-.067.307-.13.616-.195.922.351-.025.696-.099 1.026-.22.348-1.211.69-2.426 1.034-3.634.152-.534.986-.307.834.22-.37 1.303-.728 2.61-1.114 3.91a5.687 5.687 0 01-.725 1.678 1.019 1.019 0 01-.953.467.6.6 0 01-.128.029 7.41 7.41 0 01-.346.033 57.262 57.262 0 01-.622 5.261l1.521.126c1.25.1 2.506.185 3.762.196.167-.933.362-1.86.587-2.78l-.282-.011a2.165 2.165 0 01-.942-.144.662.662 0 01-.335-.388.474.474 0 01-.163-.463c.103-.67.25-1.333.44-1.984a15.945 15.945 0 013.443-6.117c.117-.461.882-.441.849.09v.05a.426.426 0 010 .14 90.17 90.17 0 01-.243 3.177 85.55 85.55 0 01-.661 5.293.265.265 0 01-.016.101 65.335 65.335 0 01-.511 3.003c.864-.037 1.764-.147 2.445-.531 1.116-.62 1.211-1.967 1.42-3.087.264-1.403.525-2.806.785-4.21a7.19 7.19 0 002.812-.419.609.609 0 00.36-.877zm-21.469-1.17c.027-.034.053-.068.082-.1.018.062.042.124.07.182l-.152-.081zm7.13-3.889l-.056-.049.08-.06c-.007.038-.016.074-.024.109zm7.748-2.256c.316.426.633.851.946 1.28.09.125.179.25.272.376a12.59 12.59 0 01-1.218-1.656zm2.216.988l-.052-.07a.53.53 0 00.052-.12v.19z" id="bag-run-bg-Shape" fill="#FF8000"/>
          </g>
          <g id="bag-run-bg-MOUTH" transform="translate(62.626 24.036)" fill="#FF8000">
            <path d="M.046.853c2.291 6.234 9.37 7.573 15.202 6.364.834-.174.481-1.448-.352-1.276C9.839 6.99 3.343 6.002 1.32.5 1.03-.291-.25.06.046.853z" id="bag-run-bg-Path"/>
          </g>
          <g id="bag-run-bg-TONGUE" transform="translate(63.287 24.477)" fill="#FF8000">
            <path d="M1.204 1.65c.49-.475 1.281-.305 1.74.134.703.675.187 1.323-.254 1.945-.491.697.662 1.358 1.143.661.44-.63.853-1.17.793-1.984A2.463 2.463 0 003.744.723C2.748-.12 1.237-.232.27.706c-.613.593.324 1.528.935.937v.006z" id="bag-run-bg-Path"/>
            <path d="M1.264 1.724a8.876 8.876 0 011.323 1.612c.456.717 1.603.053 1.144-.661A10.585 10.585 0 002.207.796c-.61-.595-1.543.34-.937.935l-.006-.007z" id="bag-run-bg-Path"/>
          </g>
          <g id="bag-run-bg-ARM_1" transform="translate(29.99 29.328)" fill="#4C4C4C">
            <path d="M18.42 2.256a15.374 15.374 0 00-14.067-.741C2.408 2.41.659 3.978.24 6.16a6.174 6.174 0 001.873 5.76c1.267 1.131 3.144-.734 1.872-1.872A3.508 3.508 0 012.933 6.3C3.48 4.734 5.22 3.9 6.682 3.418a12.757 12.757 0 0110.395 1.12c1.475.86 2.807-1.427 1.336-2.284l.006.002z" id="bag-run-bg-Path"/>
            <path d="M4.723 9.632a2.386 2.386 0 00-2.355.882c-.566.688-1 1.581-.943 2.49.1 1.673 1.903 2.692 3.444 2.185 1.541-.507 2.234-2.32 1.848-3.828-.22-.83-.792-1.603-1.652-1.824-1.034-.262-1.876.353-2.256 1.268-.273.662.296 1.453.924 1.628.761.209 1.354-.263 1.628-.924l.048-.12-.337.583c-.27.313-.677-.15-.918-.014-.081.049.04-.22 0 .03-.03.151.058.244.047.325a.748.748 0 01-.141.375c.097-.145-.164.144.026-.015a.238.238 0 01-.121-.016c.086.09.05.108-.013-.024.013.027.147.265.116.265-.03 0 .188-.479.203-.505-.158.247.186-.311.146-.2.062-.18.428.114-.386 0 .706.105 1.422-.18 1.627-.925.172-.626-.22-1.52-.924-1.627l-.01-.009z" id="bag-run-bg-Path"/>
          </g>
          <g id="bag-run-bg-ARM2" transform="translate(98.57 14.774)" fill="#4C4C4C">
            <path d="M.816 16.538c4.256 2.195 9.599-.063 12.516-3.497 2.785-3.274 3.467-8.589-.13-11.599-1.299-1.085-3.18.776-1.872 1.872 5.777 4.832-3.614 13.809-9.178 10.94-1.513-.78-2.851 1.502-1.336 2.284z" id="bag-run-bg-Path"/>
            <path d="M11.096.342c-1.241.84-2.399 2.747-1.462 4.214.937 1.466 3.26 1.193 4.311.015 1.09-1.22.882-3.279-.558-4.148-1.373-.827-3.37-.03-3.7 1.568-.176.703.23 1.42.924 1.63.662.178 1.482-.22 1.627-.924.053-.252 0-.088-.026-.018a.179.179 0 01-.086.075l.115-.066c-.047.121-.324-.044-.027.042l-.16-.022a.117.117 0 01-.07-.057c-.041-.062-.026-.03.054.099-.016.02-.031-.126-.031-.124.03.13.053.095-.018.22.031-.048.077-.107-.017-.023a.51.51 0 01-.256.108c-.016 0-.09.024-.077 0 0 .02.494.397.315.54.029-.022.13-.441.152-.468.08-.143.19-.266.324-.361.617-.38.826-1.178.474-1.81-.341-.587-1.215-.883-1.808-.477V.342z" id="bag-run-bg-Path"/>
          </g>
          <g id="bag-run-bg-ASA1" transform="translate(55.128 12.128)" fill="#4C4C4C">
            <path d="M3.608 6.113A70.778 70.778 0 012.31 1.04C2.091.02.361-.04.185 1.04l-.03.19C-.067 2.62 2.05 3.214 2.28 1.816l.031-.19H.185C.555 3.333.988 5.023 1.482 6.7c.401 1.359 2.531.779 2.126-.586z" id="bag-run-bg-Path"/>
            <path d="M1.288 2.344c4.005-.1 8.012.16 11.971.774 1.39.22 1.985-1.907.587-2.126A70.42 70.42 0 001.276.14c-1.415.03-1.422 2.236 0 2.205h.012z" id="bag-run-bg-Path"/>
            <path d="M12.79 2.957l1.305 2.803c.252.54 1.028.675 1.508.395.554-.325.647-.966.395-1.509l-1.303-2.803c-.251-.54-1.03-.674-1.508-.394-.554.324-.649.966-.397 1.508z" id="bag-run-bg-Path"/>
          </g>
          <g id="bag-run-bg-ASA2" transform="translate(72.99 9.041)" fill="#4C4C4C">
            <path d="M2.273 9.198L3.9 1.7c.3-1.385-1.826-1.984-2.128-.586L.148 8.61c-.3 1.383 1.826 1.974 2.125.587z" id="bag-run-bg-Path"/>
            <path d="M3.197 2.337c4.558.053 9.116.018 13.672 0 1.418 0 1.423-2.205 0-2.205-4.558.02-9.116.055-13.672 0-1.42-.015-1.42 2.19 0 2.205z" id="bag-run-bg-Path"/>
            <path d="M16.126 1.299c-.184 2.297-.6 4.57-1.24 6.783-.392 1.367 1.736 1.95 2.127.586a37.17 37.17 0 001.323-7.37c.11-1.415-2.095-1.406-2.205 0h-.005z" id="bag-run-bg-Path"/>
          </g>
          <g id="bag-run-bg-_SPEED_LINES" transform="translate(.22 41.015)" fill="#FF8000">
            <path d="M1.323 13.932h18.6c1.66 0 1.663-2.58 0-2.58h-18.6c-1.66 0-1.663 2.58 0 2.58zM13.065 2.76h6.962c1.66 0 1.663-2.58 0-2.58h-6.962c-1.66 0-1.662 2.58 0 2.58zM6.207 26.576h8.728c1.66 0 1.663-2.58 0-2.58H6.207c-1.66 0-1.662 2.58 0 2.58zM19.767 26.428h2.505c1.66 0 1.662-2.58 0-2.58h-2.505c-1.66 0-1.663 2.58 0 2.58z" id="bag-run-bg-Path"/>
          </g>
        </g>
      </g>
    </g>
  </g>
</svg>
