<?xml version="1.0" encoding="UTF-8"?><svg width="114px" height="72px" viewBox="0 0 114 72" version="1.1" xmlns="http://www.w3.org/2000/svg" xmlns:xlink="http://www.w3.org/1999/xlink"><title>JUSTEAT_ACCOUNT_CREATION_BAG</title><g id="Log-in-/-Create-account---Mobile" stroke="none" stroke-width="1" fill="none" fill-rule="evenodd"><g id="JUSTEAT_ACCOUNT_CREATION_BAG" fill-rule="nonzero"><g id="BACKGRUND" transform="translate(0.000000, 7.902439)" fill="#FFD9B2"><polygon id="Path" points="0.309073171 0.23004878 11.2829268 51.552 112.434146 51.552"/></g><g id="COLOUR" transform="translate(18.614634, 12.468293)"><path d="M0.351219512,48.3892683 C0.351219512,48.3892683 2.63414634,39.2189268 3.27512195,36.5847805 C3.91609756,33.9506341 4.8222439,20.2039024 5.32097561,17.3713171 C5.81970732,14.5387317 5.37014634,3.8862439 5.37014634,3.8862439 C5.37014634,3.8862439 16.7847805,1.46634146 23.9637073,0.470634146 C31.1426341,-0.525073171 55.0466341,1.10282927 55.0466341,1.10282927 C55.0466341,1.10282927 54.4899512,2.65521951 54.4478049,3.23121951 C54.4056585,3.80721951 52.6478049,12.060878 51.7574634,23.7073171 C50.867122,35.3537561 51.6872195,46.3293659 51.6872195,46.3293659 C51.6872195,46.3293659 34.9691707,49.9996098 25.2105366,50.1699512 C15.4519024,50.3402927 0.351219512,48.3892683 0.351219512,48.3892683 Z" id="Path" fill="#FFFFFF"/><path d="M6.16565854,49.4359024 L0.117658537,48.5174634 C0.117658537,48.5174634 2.49365854,39.5613659 3.3155122,34.4967805 C4.13736585,29.4321951 5.19804878,22.7449756 5.3244878,17.3713171 C5.45092683,11.9976585 5.09268293,3.40682927 5.09268293,3.40682927 L10.2819512,2.20741463 C10.2819512,2.20741463 11.718439,15.3570732 11.070439,22.4323902 C10.422439,29.5077073 7.60039024,42.497561 7.02439024,44.9560976 C6.44839024,47.4146341 6.16565854,49.4359024 6.16565854,49.4359024 Z" id="Path" fill="#FF8000"/><path d="M41.5843902,32.3964878 C40.7110244,31.0665366 39.8154146,29.7523902 38.897561,28.4540488 C38.897561,27.2985366 38.897561,26.1430244 38.897561,24.9875122 C38.8995834,24.8046419 38.8020447,24.6351263 38.6429268,24.5449756 L37.8491707,24.1516098 C37.5699512,24.0146341 37.169561,24.1147317 37.0958049,24.4589268 C37.0066582,24.8684023 36.943314,25.2830721 36.9061463,25.7004878 C36.2862439,24.8364878 35.676878,23.886439 34.9217561,23.1541463 C34.2052683,22.4517073 33.4308293,22.4236098 32.544,22.8362927 C28.548878,24.6995122 24.9927805,27.7358049 22.2515122,31.1601951 C22.1439831,31.2749202 22.0933197,31.4316792 22.1133664,31.5876358 C22.1334131,31.7435925 22.2220742,31.8824427 22.355122,31.9662439 C23.089164,32.5243317 23.970882,32.8546707 24.8909268,32.9162927 C24.462439,34.7268293 24.137561,36.6040976 24.1270244,38.4181463 C24.1270244,39.6228293 25.0788293,39.6087805 26.0587317,39.689561 L27.3740488,39.798439 C27.5343239,38.3007505 27.7965914,36.8157415 28.1590244,35.3537561 C28.0680421,35.3262608 27.9793757,35.2916163 27.8938537,35.2501463 C27.3547317,34.9797073 27.1334634,34.3966829 27.1176585,33.8241951 C27.1000976,33.174439 27.2844878,32.5281951 27.4372683,31.9012683 L27.9219512,29.8764878 C28.0325854,29.4181463 28.7385366,29.6130732 28.6243902,30.0714146 L28.1923902,31.8520976 C28.1291707,32.1172683 28.0571707,32.3789268 27.9939512,32.651122 C28.024455,32.7046648 28.0407758,32.7651122 28.0413659,32.8267317 C28.0407175,32.872969 28.0555533,32.9180946 28.0835122,32.9549268 C28.1404589,33.0305699 28.2152779,33.0909078 28.3012683,33.1305366 C28.3792545,33.1746797 28.4632599,33.207217 28.5506341,33.227122 C28.6103415,33.2446829 28.6718049,33.2587317 28.7262439,33.2727805 C28.9603902,32.153561 29.2185366,31.0413659 29.5006829,29.9361951 C29.6183415,29.4813659 30.3260488,29.6745366 30.203122,30.131122 C29.993561,30.9319024 29.8003902,31.7356098 29.6236098,32.5422439 C29.5656585,32.8021463 29.5129756,33.0690732 29.4585366,33.3237073 C29.7581829,33.3080291 30.0539587,33.248874 30.3365854,33.1480976 C30.6292683,32.1225366 30.9219512,31.0952195 31.2146341,30.0661463 C31.3445854,29.6130732 32.0505366,29.8062439 31.9170732,30.2610732 C31.6027317,31.3674146 31.2989268,32.4755122 30.9722927,33.5783415 C30.8456103,34.08313 30.6380476,34.5640826 30.3576585,35.0025366 C30.2100652,35.2288083 29.966528,35.3745419 29.6973659,35.3976585 C29.6482861,35.4018896 29.5989334,35.4018896 29.5498537,35.3976585 C29.5148066,35.4109616 29.4782278,35.4198114 29.4409756,35.424 C29.3449756,35.4345366 29.2466341,35.4433171 29.1459512,35.4503415 C29.0405854,36.9465366 28.8649756,38.4345366 28.619122,39.9143415 L29.9098537,40.0214634 C30.9722927,40.1057561 32.0364878,40.1777561 33.1006829,40.1865366 C33.2411707,39.3962927 33.4074146,38.6101463 33.5994146,37.8280976 L33.3605854,37.8280976 C33.0885512,37.847525 32.8156045,37.8061331 32.561561,37.7069268 C32.4255502,37.6404434 32.3227305,37.5211217 32.2770732,37.3767805 C32.1603955,37.2830524 32.1066877,37.1314468 32.1383415,36.9851707 C32.2278554,36.4161214 32.3545659,35.85355 32.5176585,35.3010732 C33.094306,33.3761736 34.0918536,31.6036222 35.4380488,30.1118049 C35.5363902,29.7219512 36.1843902,29.7447805 36.1580488,30.1890732 C36.1580488,30.203122 36.1580488,30.2171707 36.1580488,30.2312195 C36.1621345,30.2706492 36.1591612,30.3104915 36.1492683,30.348878 C36.0965854,31.248 36.0286829,32.1465366 35.945561,33.0444878 C35.8050732,34.5477073 35.6171707,36.0456585 35.3906341,37.5383415 C35.3904004,37.5675759 35.3856619,37.5965996 35.3765854,37.6243902 C35.2466341,38.4766829 35.1020488,39.3254634 34.9428293,40.1707317 C35.675122,40.140878 36.4302439,40.0460488 37.0167805,39.7211707 C37.9633171,39.1943415 38.0440976,38.051122 38.2214634,37.0870244 C38.4427317,35.8987317 38.6645854,34.7086829 38.8870244,33.516878 C39.6974341,33.5603388 40.5083341,33.4409132 41.2718049,33.1656585 C41.4277726,33.1212698 41.554608,33.0075268 41.6156602,32.8572972 C41.6767124,32.7070677 41.6651781,32.5370923 41.5843902,32.3964878 L41.5843902,32.3964878 Z M23.3719024,31.4060488 C23.3947317,31.3761951 23.4193171,31.3480976 23.4421463,31.32 C23.4578745,31.3735978 23.4778399,31.4258601 23.5018537,31.4762927 C23.4579512,31.4534634 23.4140488,31.4341463 23.3719024,31.4060488 L23.3719024,31.4060488 Z M29.4199024,28.1080976 L29.3742439,28.0641951 L29.4409756,28.0150244 L29.4199024,28.1080976 Z M35.9912195,26.1763902 C36.2616585,26.5276098 36.5285854,26.8981463 36.7955122,27.2616585 L37.0238049,27.5812683 C36.6466869,27.1426642 36.304379,26.6752936 36,26.1834146 L35.9912195,26.1763902 Z M37.872,27.0158049 C37.8579512,26.9947317 37.8439024,26.9736585 37.8280976,26.9543415 C37.8476225,26.9233416 37.8624192,26.8896053 37.872,26.8542439 L37.872,27.0158049 Z" id="Shape" fill="#FF8000"/></g><g id="LEG1" transform="translate(38.107317, 61.463415)" fill="#4C4C4C"><path d="M0.121170732,1.18536585 C0.121170732,3.69658537 0.23004878,6.20253659 0.447804878,8.70321951 C0.565463415,10.043122 2.67453659,10.0554146 2.55512195,8.70321951 C2.33736585,6.20253659 2.2284878,3.69658537 2.2284878,1.18536585 C2.2284878,-0.170341463 0.121170732,-0.172097561 0.121170732,1.18536585 Z" id="Path"/></g><g id="LEG2" transform="translate(50.575610, 61.463415)" fill="#4C4C4C"><path d="M0.0140487805,1.12565854 C0.0140487805,3.63687805 0.122926829,6.14282927 0.340682927,8.6435122 C0.458341463,9.98341463 2.56565854,9.99570732 2.448,8.6435122 C2.2302439,6.14282927 2.12136585,3.63687805 2.12136585,1.12565854 C2.12136585,-0.23004878 0.0140487805,-0.231804878 0.0140487805,1.12565854 L0.0140487805,1.12565854 Z" id="Path"/></g><g id="LINES" transform="translate(17.560976, 11.414634)" fill="#4C4C4C"><path d="M54.9658537,2.36019512 C54.2019512,5.63707317 53.5732683,8.91043902 53.1219512,12.2470244 C52.9621463,13.4394146 54.7884878,13.9557073 54.9518049,12.7510244 C55.4013659,9.41443902 56.0300488,6.14282927 56.7939512,2.86419512 C57.0714146,1.67707317 55.2433171,1.16956098 54.9658537,2.36019512 Z" id="Path"/><path d="M5.47902439,4.93990244 C6.01015816,16.6149693 5.03391678,28.309798 2.57443902,39.7352195 C1.872,42.9652683 1.05892683,46.1660488 0.135219512,49.337561 C-0.216,50.5123902 1.62263415,51.012878 1.96331707,49.841561 C5.27772662,38.494887 7.12726911,26.7708886 7.46692683,14.9549268 C7.55941463,11.616 7.52897561,8.27941463 7.37560976,4.94517073 C7.32117073,3.72995122 5.42458537,3.71590244 5.47902439,4.94517073 L5.47902439,4.93990244 Z" id="Path"/><path d="M6.80663415,5.37541463 C19.3590933,2.51546323 32.2473781,1.40913211 45.1036098,2.088 C48.780878,2.28117073 52.4470244,2.62009756 56.1020488,3.10478049 C57.3084878,3.26282927 57.2961951,1.3644878 56.1020488,1.20819512 C43.1549477,-0.487882641 30.0354368,-0.384463073 17.1166829,1.5155122 C13.4874146,2.04819512 9.87980488,2.72487805 6.29385366,3.54556098 C5.10497561,3.8177561 5.60897561,5.65287805 6.79960976,5.37541463 L6.80663415,5.37541463 Z" id="Path"/><path d="M53.28,11.214439 C51.5063415,23.1646829 51.1621463,35.3203902 51.5502439,47.3900488 C51.588878,48.6070244 53.4819512,48.6193171 53.4468293,47.3900488 C53.0657561,35.5047805 53.3607805,23.507122 55.1080976,11.7254634 C55.2837073,10.5313171 53.459122,10.0167805 53.28,11.2214634 L53.28,11.214439 Z" id="Path"/><path d="M0.918439024,50.4860488 C4.09697561,51.425561 7.51960976,51.4764878 10.8070244,51.6889756 C14.2524878,51.9102439 17.7014634,52.0753171 21.1539512,52.1420488 C27.9096585,52.2702439 34.6759024,52.0033171 41.3719024,51.0286829 C45.1909289,50.4771682 48.9660508,49.6555965 52.668878,48.5701463 C53.8366829,48.2189268 53.3397073,46.3943415 52.164878,46.7402927 C39.3453659,50.5194146 25.8444878,50.6669268 12.6070244,49.9012683 C8.91921951,49.6852683 4.99258537,49.7098537 1.42243902,48.6561951 C0.249365854,48.3049756 -0.251121951,50.1383415 0.918439024,50.4842927 L0.918439024,50.4860488 Z" id="Path"/><path d="M10.7420488,3.6684878 C11.2382271,6.25986193 11.4770467,8.89393566 11.4550244,11.5322927 C11.4550244,12.3225366 12.6842927,12.3242927 12.6842927,11.5322927 C12.7024911,8.78213212 12.4489673,6.03689963 11.9274146,3.33658537 C11.7799024,2.56039024 10.5945366,2.88878049 10.7420488,3.66321951 L10.7420488,3.6684878 Z" id="Path"/><path d="M11.5094634,19.1994146 C11.4704248,23.1857873 11.1305324,27.1635266 10.4926829,31.0987317 C10.3662439,31.8731707 11.5463415,32.2050732 11.6780488,31.4253659 C12.3361215,27.3823321 12.6883399,23.295425 12.7317073,19.1994146 C12.7317073,18.4091707 11.502439,18.4074146 11.502439,19.1994146 L11.5094634,19.1994146 Z" id="Path"/><path d="M8.87356098,39.2294634 C8.23404741,42.925873 7.38625815,46.5832101 6.3342439,50.184 C6.11121951,50.9443902 7.29834146,51.2692683 7.51960976,50.5106341 C8.571624,46.9098443 9.41941326,43.2525072 10.0589268,39.5560976 C10.1941463,38.7816585 9.00526829,38.4497561 8.87356098,39.2294634 L8.87356098,39.2294634 Z" id="Path"/></g><g id="BAG_HANGER_1" transform="translate(30.204878, 5.795122)" fill="#4C4C4C"><path d="M15.0444878,6.63453659 C14.4960154,4.88913558 13.8600899,3.17242969 13.139122,1.49092683 C12.6965854,0.454829268 11.1828293,1.34868293 11.6218537,2.3777561 C12.2773033,3.92218075 12.8540433,5.49883797 13.3498537,7.10165854 C13.6852683,8.17639024 15.3816585,7.71804878 15.0444878,6.63453659 L15.0444878,6.63453659 Z" id="Path"/><path d="M12.7966829,2.55512195 C16.0630244,1.57873171 19.6068293,1.93873171 22.968,2.00897561 C24.0971707,2.03356098 24.0971707,0.277463415 22.968,0.252878049 C19.44,0.179121951 15.7574634,-0.163317073 12.3313171,0.860487805 C11.249561,1.18360976 11.7096585,2.88 12.7966829,2.55512195 Z" id="Path"/><path d="M22.2778537,1.48039024 L23.7512195,6.15160976 C24.0901463,7.22634146 25.7847805,6.768 25.4440976,5.6844878 L23.9707317,1.01326829 C23.6318049,-0.0614634146 21.9371707,0.398634146 22.2778537,1.48039024 Z" id="Path"/><path d="M3.43843902,7.96917073 C2.85892683,6.71707317 2.29873171,5.45443902 1.76839024,4.1795122 C1.33814634,3.15219512 -0.361756098,3.6035122 0.0737560976,4.64663415 C0.659121951,6.06204878 1.2755122,7.46692683 1.92292683,8.86126829 C2.39707317,9.88507317 3.91082927,8.99473171 3.43843902,7.97443902 L3.43843902,7.96917073 Z" id="Path"/><path d="M1.28019512,4.896 L5.02068293,4.09697561 C6.27278049,3.83004878 7.51960976,3.47882927 8.80858537,3.63512195 C9.92897561,3.77034146 9.91843902,2.0124878 8.80858537,1.87902439 C7.47921951,1.71746341 6.17443902,2.05463415 4.88019512,2.33560976 L0.814829268,3.20136585 C-0.289756098,3.43668293 0.177365854,5.13307317 1.28019512,4.896 Z" id="Path"/><path d="M8.30809756,3.32604878 C9.12564577,4.49737454 9.83621415,5.73984066 10.4312195,7.03843902 C10.9000976,8.0657561 12.4138537,7.17365854 11.9467317,6.16039024 C11.3528089,4.8606791 10.6421887,3.61753456 9.82360976,2.4462439 C9.18087805,1.52780488 7.65834146,2.40409756 8.30809756,3.33307317 L8.30809756,3.32604878 Z" id="Path"/></g><g id="OPEN_EYES" transform="translate(43.375610, 15.278049)" fill="#4C4C4C"><path d="M0.175609756,0.790243902 L0.175609756,1.22926829 C0.17180495,1.29026653 0.185190223,1.35110868 0.214243902,1.40487805 C0.252410086,1.51327025 0.337656577,1.59851674 0.44604878,1.63668293 C0.499818149,1.66573661 0.560660301,1.67912188 0.621658537,1.67531707 L0.737560976,1.6595122 C0.81125964,1.63977009 0.878478708,1.60101315 0.932487805,1.54712195 C1.0124695,1.46083128 1.0559004,1.34690385 1.05365854,1.22926829 L1.05365854,0.790243902 C1.05746334,0.729245667 1.04407807,0.668403515 1.01502439,0.614634146 C0.976858206,0.506241943 0.891611716,0.420995452 0.783219512,0.382829268 C0.729450144,0.353775589 0.668607991,0.340390315 0.607609756,0.344195122 L0.491707317,0.36 C0.418008653,0.379742105 0.350789584,0.418499045 0.296780488,0.472390244 C0.215915437,0.555822431 0.170046527,0.667038828 0.168585366,0.783219512 L0.175609756,0.790243902 Z" id="Path"/><path d="M11.9853659,0.43902439 L11.9853659,0.87804878 C11.981561,0.939047016 11.9949463,0.999889168 12.024,1.05365854 C12.0621662,1.16205074 12.1474127,1.24729723 12.2558049,1.28546341 C12.3095742,1.31451709 12.3704164,1.32790237 12.4314146,1.32409756 L12.5473171,1.30829268 C12.6210157,1.28855058 12.6882348,1.24979364 12.7422439,1.19590244 C12.823109,1.11247025 12.8689779,1.00125385 12.870439,0.885073171 L12.870439,0.44604878 C12.8742438,0.385050545 12.8608586,0.324208393 12.8318049,0.270439024 C12.7936387,0.162046821 12.7083922,0.0768003301 12.6,0.0386341463 C12.5462306,0.00958046694 12.4853885,-0.00380480656 12.4243902,-9.9822494e-15 L12.3084878,0.015804878 C12.2347891,0.0355469826 12.1675701,0.0743039228 12.113561,0.128195122 C12.0326959,0.211627309 11.986827,0.322843706 11.9853659,0.43902439 L11.9853659,0.43902439 Z" id="Path"/></g><g id="MOUTH" transform="translate(45.482927, 20.897561)"><path d="M3.16097561,1.38731707 C3.07317073,1.40663415 3.12760976,1.39609756 3.14868293,1.38731707 C3.11185161,1.38994265 3.0748801,1.38994265 3.03804878,1.38731707 L2.952,1.38731707 C2.8764878,1.38731707 3.04156098,1.41541463 2.91687805,1.38731707 C2.81031967,1.3667565 2.70959436,1.32298895 2.62185366,1.25912195 C2.67102439,1.2924878 2.62185366,1.25912195 2.60604878,1.24682927 C2.5902439,1.23453659 2.56214634,1.20643902 2.54282927,1.18536585 C2.5063563,1.15165688 2.47604773,1.11183973 2.45326829,1.06770732 C2.36897561,0.932487805 2.3022439,0.788487805 2.21619512,0.65502439 C2.05759125,0.370293887 1.79529745,0.157691239 1.48390244,0.0614634146 C1.13644628,-0.00913005142 0.776782816,0.0997588863 0.526829268,0.351219512 C0.0228292683,0.825365854 0.0790243902,1.61385366 0.216,2.2302439 C0.331342995,2.8655878 0.732992573,3.41234948 1.30478049,3.71239024 C2.02648248,4.035614 2.8602706,3.98780054 3.54029268,3.58419512 C3.74978371,3.46150708 3.82015143,3.19222275 3.6974634,2.98273172 C3.57477536,2.77324069 3.30549103,2.70287295 3.096,2.82556098 C2.69899568,3.06973757 2.21269558,3.12075711 1.77365854,2.96429268 C1.70165854,2.93795122 1.81756098,2.98712195 1.74907317,2.9537561 L1.66478049,2.91160976 C1.61560976,2.88526829 1.56995122,2.85541463 1.52429268,2.82556098 C1.46197539,2.7709313 1.4033126,2.71226851 1.34868293,2.64995122 C1.21086513,2.47238405 1.11861858,2.26377419 1.08,2.04234146 C1.01803629,1.81365445 0.993718177,1.57640462 1.008,1.33990244 C1.01468557,1.2591721 1.03119786,1.17955928 1.05717073,1.10282927 C1.06595122,1.0835122 1.0764878,1.06595122 1.08702439,1.04663415 C1.09756098,1.02731707 1.14497561,0.969365854 1.11512195,1.0044878 C1.13679506,0.983296824 1.15966162,0.963361878 1.18360976,0.944780488 C1.18360976,0.944780488 1.24682927,0.909658537 1.20643902,0.92897561 C1.16604878,0.948292683 1.24156098,0.918439024 1.25209756,0.914926829 C1.31004878,0.897365854 1.23804878,0.914926829 1.23804878,0.914926829 C1.23804878,0.914926829 1.30653659,0.914926829 1.23804878,0.914926829 C1.26628656,0.919615994 1.29395154,0.927268009 1.32058537,0.937756098 C1.28195122,0.92195122 1.2977561,0.918439024 1.32936585,0.951804878 C1.32936585,0.951804878 1.28721951,0.914926829 1.32936585,0.951804878 C1.3715122,0.988682927 1.38204878,1.00273171 1.40839024,1.02907317 C1.43473171,1.05541463 1.45931707,1.09229268 1.42243902,1.04312195 L1.45931707,1.09756098 C1.49443902,1.15258537 1.52780488,1.21112195 1.55941463,1.27317073 C1.61912195,1.38204878 1.67707317,1.49443902 1.74731707,1.59804878 C2.11407614,2.13597203 2.77076659,2.39725839 3.40682927,2.25834146 C3.63913766,2.19263841 3.77536566,1.95228211 3.71239024,1.71921951 C3.68551597,1.60076064 3.61149314,1.49838537 3.50742213,1.4357439 C3.40335111,1.37310243 3.27823433,1.35561342 3.16097561,1.38731707 L3.16097561,1.38731707 Z" id="Path" fill="#FF8000"/><path d="M0.65502439,0.902634146 C0.549077639,1.56100522 0.650331324,2.23602978 0.944780488,2.83434146 C1.0104402,2.9824679 1.10473566,3.11615261 1.2222439,3.22770732 C1.42196849,3.41852083 1.72324516,3.45564497 1.96331707,3.31902439 C2.34087805,3.06790244 2.33736585,2.55863415 2.25834146,2.1617561 C2.18809756,1.8 2.07043902,1.44526829 1.96682927,1.09053659 C1.90836455,0.878572126 1.70211193,0.742548964 1.48425126,0.772277407 C1.26639058,0.802005849 1.10412234,0.988315971 1.10458537,1.20819512 C1.152,1.59980488 1.07297561,1.99141463 1.14321951,2.38478049 C1.22239594,2.81790635 1.52717902,3.17560781 1.9422439,3.32253659 C2.37412121,3.45941503 2.84404642,3.28859866 3.08721951,2.90634146 C3.21629712,2.70525928 3.25335628,2.45862419 3.18907317,2.2284878 C3.10010997,1.93923528 2.81185163,1.75954177 2.51297561,1.80702439 C2.35570098,1.82756309 2.21306151,1.90983548 2.11653049,2.03568821 C2.01999946,2.16154094 1.9775106,2.32063041 1.99843902,2.47785366 C2.02510565,2.65116293 2.12294085,2.80546016 2.26832486,2.90349434 C2.41370888,3.00152851 2.59342938,3.0343904 2.76409756,2.99414634 L2.53053659,2.14595122 C2.35702638,2.19285431 2.2151005,2.31761212 2.14633693,2.48367615 C2.07757336,2.64974018 2.08975644,2.83831122 2.17931707,2.99414634 C2.30200512,3.20363736 2.57128945,3.27400509 2.78078048,3.15131706 C2.99027151,3.02862902 3.06063924,2.75934469 2.93795122,2.54985366 L2.97658537,2.71141463 C2.97785289,2.74788827 2.97000649,2.7841024 2.9537561,2.81678049 C2.91515764,2.89729737 2.84734131,2.96009028 2.76409756,2.99239024 C2.99672454,2.92585455 3.13334179,2.68540819 3.07141463,2.4515122 C3.00104699,2.22192758 2.76378068,2.08711718 2.53053659,2.14419512 C2.72370732,2.10731707 2.92565854,2.25131707 2.85717073,2.46204878 L2.77463415,2.60429268 C2.70965854,2.64819512 2.69736585,2.65873171 2.7342439,2.63590244 C2.70411293,2.65771739 2.66783294,2.66940077 2.63063415,2.66926829 C2.58497561,2.66926829 2.57970732,2.66926829 2.61307317,2.66926829 C2.52684497,2.66954489 2.44551882,2.62920711 2.39356098,2.56039024 C2.37452545,2.53834599 2.36018458,2.51265192 2.35141463,2.48487805 C2.35141463,2.41639024 2.34263415,2.40585366 2.34263415,2.45502439 C2.34263415,2.53931707 2.36019512,2.35492683 2.34263415,2.4444878 C2.33209756,2.47785366 2.33209756,2.47785366 2.34263415,2.4444878 C2.35317073,2.41112195 2.35843902,2.40760976 2.34263415,2.4444878 C2.27765854,2.53053659 2.34263415,2.4444878 2.34263415,2.4444878 C2.33063034,2.45766492 2.31772088,2.46998758 2.304,2.48136585 C2.27590244,2.50595122 2.27765854,2.50595122 2.304,2.48136585 C2.33034146,2.45678049 2.33385366,2.45853659 2.304,2.48136585 L2.25658537,2.50770732 C2.25658537,2.50770732 2.35843902,2.46380488 2.25658537,2.50770732 C2.15473171,2.55160976 2.34790244,2.50770732 2.26712195,2.50770732 L2.21092683,2.50770732 L2.25834146,2.50770732 L2.16526829,2.48136585 C2.16526829,2.48136585 2.26360976,2.53404878 2.16526829,2.48136585 C2.14266112,2.46547777 2.11921233,2.45082228 2.09502439,2.43746341 C2.14595122,2.47785366 2.15297561,2.48136585 2.11785366,2.4515122 L2.09678049,2.43219512 C2.08301929,2.4196051 2.07011263,2.40611178 2.05814634,2.39180488 C2.03356098,2.36195122 2.03356098,2.36195122 2.05814634,2.39180488 C2.08273171,2.42165854 2.08097561,2.41990244 2.05814634,2.39180488 L2.02829268,2.34263415 L2.00897561,2.3057561 C1.99668293,2.27765854 2.00897561,2.28819512 2.02302439,2.33560976 C2.00546341,2.31804878 2.00019512,2.26712195 1.99317073,2.24078049 C1.98614634,2.21443902 1.96156098,2.10029268 1.97560976,2.17053659 C1.98965854,2.24078049 1.97560976,2.11258537 1.97560976,2.09678049 C1.95804878,1.8035122 2.00721951,1.5102439 1.97560976,1.21873171 L1.11336585,1.33463415 C1.20643902,1.656 1.30478049,1.97560976 1.38204878,2.3004878 C1.38204878,2.33560976 1.39785366,2.37073171 1.40487805,2.40585366 C1.41190244,2.44097561 1.40487805,2.45326829 1.41717073,2.47609756 C1.41717073,2.42517073 1.41717073,2.41639024 1.41717073,2.448 C1.41717073,2.47960976 1.41717073,2.53053659 1.41717073,2.57268293 C1.41717073,2.61482927 1.41717073,2.60780488 1.41717073,2.62536585 C1.41717073,2.64292683 1.41717073,2.64819512 1.41717073,2.5955122 L1.40136585,2.664 C1.38731707,2.70614634 1.38731707,2.70790244 1.40136585,2.664 C1.41541463,2.62009756 1.41717073,2.62887805 1.40136585,2.664 C1.43691835,2.60478348 1.49430679,2.56189981 1.56117073,2.54458537 C1.62202366,2.52231833 1.68936559,2.52613014 1.74731707,2.55512195 C1.77537105,2.56368746 1.80036628,2.58014773 1.81931707,2.60253659 C1.80401852,2.59044099 1.78990609,2.57691657 1.77717073,2.56214634 C1.81053659,2.60780488 1.81756098,2.61834146 1.8,2.592 C1.76487805,2.53229268 1.728,2.47258537 1.69639024,2.41639024 L1.6542439,2.32682927 C1.63492683,2.28117073 1.63668293,2.28643902 1.6542439,2.34087805 L1.62965854,2.27941463 C1.57808655,2.14538662 1.53756125,2.00736568 1.5084878,1.86673171 C1.5084878,1.83512195 1.49443902,1.8017561 1.48917073,1.77014634 L1.47863415,1.70341463 C1.48741463,1.76663415 1.48917073,1.77190244 1.47863415,1.72273171 C1.46809756,1.67356098 1.46634146,1.59102439 1.46458537,1.52429268 C1.46282927,1.45756098 1.46458537,1.3697561 1.46458537,1.2924878 C1.46458537,1.26087805 1.46458537,1.2275122 1.46458537,1.19414634 C1.46458537,1.16078049 1.46458537,1.1502439 1.46458537,1.12917073 C1.45580488,1.19063415 1.45580488,1.19590244 1.46458537,1.14673171 C1.49175211,1.03218144 1.47613957,0.911652629 1.42068293,0.807804878 C1.36220688,0.710127179 1.26859563,0.638505146 1.15902439,0.607609756 C0.95004878,0.558439024 0.65502439,0.670829268 0.618146341,0.913170732 L0.65502439,0.902634146 Z" id="Path" fill="#FF8000"/><path d="M2.76936585,2.28292683 L2.86243902,3.16097561 C2.86888479,3.40072141 3.06171761,3.59355423 3.30146341,3.6 C3.54353009,3.5990375 3.7395253,3.40304228 3.7404878,3.16097561 L3.64741463,2.28292683 C3.64010052,2.0435554 3.44776167,1.85121656 3.20839024,1.84390244 C2.96632357,1.84486494 2.77032836,2.04086016 2.76936585,2.28292683 L2.76936585,2.28292683 Z" id="Path" fill="#FF5000"/><path d="M3.00468293,1.7982439 L3.07668293,3.11707317 C3.10653659,3.67902439 3.98634146,3.68253659 3.95473171,3.11707317 L3.88273171,1.7982439 C3.85112195,1.23629268 2.97307317,1.23278049 3.00468293,1.7982439 Z" id="Path" fill="#FF5000"/><path d="M2.67980488,2.53756098 C3.0702125,2.52662143 3.4453722,2.38361501 3.744,2.13190244 L3.94243902,1.98790244 L4.04429268,1.91765854 C4.04429268,1.91765854 4.1004878,1.88078049 4.1022439,1.88253659 C4.08519462,1.88824549 4.06749451,1.89178551 4.04956098,1.89307317 C4.00658535,1.89371247 3.96460333,1.88013005 3.93014634,1.85443902 C3.93014634,1.85443902 3.89326829,1.79473171 3.91785366,1.83863415 C3.94243902,1.88253659 3.91785366,1.82458537 3.91785366,1.81756098 C3.91785366,1.81053659 3.93190244,1.89131707 3.92663415,1.84741463 C3.92136585,1.8035122 3.92663415,1.8755122 3.92663415,1.87726829 C3.92663415,1.87902439 3.92663415,1.92292683 3.92663415,1.944 C3.92663415,2.0195122 3.93717073,1.88956098 3.92663415,1.96156098 C3.89761178,2.12891164 3.85413184,2.29343035 3.79668293,2.45326829 C3.82478049,2.3795122 3.77912195,2.49190244 3.76858537,2.51297561 C3.75804878,2.53404878 3.72995122,2.58321951 3.70887805,2.61658537 C3.68780488,2.64995122 3.68604878,2.64995122 3.6755122,2.6657561 C3.66497561,2.68156098 3.71765854,2.62009756 3.68429268,2.65521951 L3.58770732,2.75531707 C3.5315122,2.808 3.61756098,2.74302439 3.55082927,2.78165854 L3.45073171,2.83960976 C3.37873171,2.8764878 3.48936585,2.82907317 3.41209756,2.85365854 C3.36819512,2.86770732 3.32604878,2.88 3.28039024,2.89053659 L3.1644878,2.91336585 C3.11356098,2.92390244 3.17502439,2.91336585 3.18380488,2.91336585 L3.12234146,2.91336585 C3.03629268,2.91336585 2.94673171,2.92214634 2.85892683,2.92214634 C2.77112195,2.92214634 2.65697561,2.92214634 2.55512195,2.90985366 L2.42517073,2.90985366 L2.37073171,2.90985366 C2.3057561,2.90985366 2.4444878,2.92390244 2.37073171,2.90985366 C2.29697561,2.89580488 2.28819512,2.89404878 2.24780488,2.8835122 L2.19512195,2.86946341 C2.18458537,2.86946341 2.11434146,2.83960976 2.16702439,2.86946341 C2.21970732,2.89931707 2.16702439,2.86946341 2.1564878,2.86946341 L2.09853659,2.83434146 C2.09853659,2.83434146 2.1582439,2.8817561 2.12487805,2.84839024 C2.0915122,2.81502439 2.17756098,2.93443902 2.12487805,2.84839024 C2.04809142,2.70799176 1.90099506,2.62049417 1.74097098,2.62003013 C1.5809469,2.61956609 1.43334556,2.7062091 1.35574597,2.8461599 C1.27814637,2.98611069 1.28284158,3.15719874 1.368,3.29268293 C1.64721951,3.73697561 2.15121951,3.79843902 2.63239024,3.8195122 C3.11356098,3.84058537 3.59473171,3.8195122 3.99160976,3.56312195 C4.39802845,3.27125435 4.67011895,2.82831633 4.74673171,2.33385366 C4.83746282,2.04203197 4.82317298,1.72765532 4.70634146,1.44526829 C4.55606971,1.1484311 4.22674969,0.987717188 3.90029268,1.05190244 C3.63336585,1.10634146 3.41385366,1.32585366 3.19785366,1.47512195 C3.10429024,1.5403917 3.00629736,1.59907008 2.90458537,1.65073171 C2.84487805,1.67882927 2.96429268,1.63843902 2.90458537,1.65073171 C2.87473171,1.65073171 2.84312195,1.67004878 2.8115122,1.67882927 C2.7342439,1.69990244 2.79395122,1.67882927 2.8115122,1.67882927 C2.7723368,1.68145993 2.73302906,1.68145993 2.69385366,1.67882927 C2.45178699,1.67979177 2.25579177,1.87578699 2.25482927,2.11785366 C2.2603942,2.35797729 2.45373002,2.55131312 2.69385366,2.55687805 L2.67980488,2.53756098 Z" id="Path" fill="#FF8000"/><path d="M3.24526829,3.16097561 L3.91434146,2.60429268 C3.95590646,2.56501906 3.98725326,2.51619037 4.00565854,2.46204878 C4.03392837,2.40803953 4.04669255,2.3472577 4.04253659,2.28643902 C4.04300572,2.16985933 3.99690217,2.05791897 3.91446721,1.97548401 C3.83203225,1.89304905 3.72009189,1.84694549 3.6035122,1.84741109 L3.48760976,1.86321951 C3.41460249,1.88339223 3.34805609,1.92211013 3.29443902,1.97560976 L2.62360976,2.53229268 C2.58228554,2.5714347 2.55148465,2.62035376 2.53404878,2.67453659 C2.50517121,2.72837128 2.49179709,2.78916272 2.49541463,2.85014634 C2.49494549,2.96672604 2.54104905,3.07866639 2.62348401,3.16110135 C2.70591897,3.24353631 2.81785933,3.28963987 2.93443902,3.28917428 L3.05209756,3.27336585 C3.12510483,3.25319314 3.19165123,3.21447524 3.24526829,3.16097561 L3.24526829,3.16097561 Z" id="Path" fill="#FF8000"/><path d="M0.265170732,1.66829268 C0.246758984,1.94635112 0.281932899,2.22535777 0.368780488,2.49014634 C0.444725726,2.76003602 0.547073614,3.0217878 0.674341463,3.27160976 C0.925463415,3.72819512 1.40839024,3.92487805 1.88429268,4.05834146 C2.15201468,4.14293339 2.43067349,4.18789745 2.71141463,4.19180488 C3.00908186,4.17571983 3.29942908,4.09353477 3.56136585,3.95121951 C4.00214634,3.72995122 4.42887805,3.4524878 4.63609756,2.98536585 C4.87451594,2.46938209 4.84364801,1.86909947 4.55356098,1.38029268 C4.25678049,0.900878049 3.49990244,1.34165854 3.79492683,1.82458537 C3.97270454,2.10390375 3.9650848,2.46272432 3.77560976,2.7342439 C3.73294159,2.79316638 3.68342379,2.84681067 3.62809756,2.89404878 C3.53345107,2.96499993 3.4329987,3.02785609 3.32780488,3.08195122 C3.14360887,3.20696382 2.9323417,3.28641472 2.71141463,3.3137561 C2.4716718,3.30826954 2.23442161,3.26378513 2.00897561,3.18204878 C1.83957808,3.14563441 1.67979214,3.07382051 1.54009756,2.97131707 C1.40114167,2.8096225 1.30458478,2.61590524 1.25912195,2.40760976 C1.1649306,2.17305893 1.12356022,1.92063966 1.13795122,1.66829268 C1.13607401,1.42797183 0.942737052,1.23307569 0.702439024,1.22926829 C0.461934042,1.23393961 0.268085947,1.4277877 0.263414634,1.66829268 L0.265170732,1.66829268 Z" id="Path" fill="#FF8000"/><path d="M2.10731707,3.16097561 C2.67278049,3.16097561 2.67278049,2.28292683 2.10731707,2.28292683 C1.54185366,2.28292683 1.54185366,3.16097561 2.10731707,3.16097561 Z" id="Path" fill="#FF8000"/></g><g id="ARM1" transform="translate(16.682927, 0.878049)" fill="#4C4C4C"><path d="M10.3609756,24.1972683 C8.46614634,23.9742439 6.77326829,22.4148293 5.5422439,21.0626341 C4.31965933,19.723725 3.36577583,18.1623369 2.7324878,16.4634146 C1.37546402,12.7363594 1.62211915,8.6137858 3.41385366,5.07512195 C3.94068293,4.02146341 2.36019512,3.10302439 1.83336585,4.15317073 C-0.245853659,8.26770732 -0.58302439,13.1637073 1.16780488,17.459122 C2.68858537,21.1943415 6.08487805,25.5178537 10.3557073,26.0236098 C11.52,26.1623415 11.5112195,24.3342439 10.3557073,24.1972683 L10.3609756,24.1972683 Z" id="Path"/><path d="M3.24526829,3.76858537 C2.84839024,3.06614634 2.33912195,2.20390244 2.8097561,1.42770732 C3.41912195,0.419707317 1.84039024,-0.504 1.22926829,0.505756098 C0.389853659,1.89131707 0.927219512,3.39804878 1.66478049,4.69053659 C2.24780488,5.71258537 3.82653659,4.79239024 3.24526829,3.76858537 L3.24526829,3.76858537 Z" id="Path"/><path d="M3.8915122,4.9662439 C4.58912031,3.94440658 5.13122039,2.82469768 5.50009756,1.64370732 C5.85131707,0.521560976 4.09521951,0.0403902439 3.744,1.15902439 C3.41383229,2.18495122 2.93200982,3.1556992 2.31453659,4.03902439 C1.64546341,5.01014634 3.22770732,5.92507317 3.89502439,4.96097561 L3.8915122,4.9662439 Z" id="Path"/><path d="M3.16097561,5.73892683 C4.28696836,5.67921793 5.40445344,5.50983072 6.49756098,5.23317073 C7.6355122,4.94165854 7.15258537,3.18029268 6.01112195,3.47707317 C5.0776733,3.71545394 4.12301746,3.86132864 3.16097561,3.91258537 C1.99141463,3.97756098 1.98439024,5.80390244 3.16097561,5.73892683 Z" id="Path"/></g><g id="ARM2" transform="translate(61.463415, 14.048780)" fill="#4C4C4C"><path d="M9.77443902,12.5297561 C11.1687805,13.4078049 12.7317073,15.8663415 10.7420488,17.0692683 C8.82790244,18.2177561 6.89795122,16.3123902 6.09014634,14.723122 C4.40253659,11.4040976 4.50965854,7.488 4.34809756,3.86868293 C4.29190244,2.63941463 2.35843902,2.62360976 2.41639024,3.86868293 C2.51473171,6.03395122 2.53053659,8.2044878 2.85190244,10.3539512 C3.26985366,13.1496585 4.1004878,16.4089756 6.46068293,18.2142439 C8.47141463,19.7508293 11.7289756,19.7771707 13.086439,17.3361951 C14.4439024,14.8952195 12.8844878,12.1943415 10.7490732,10.8597073 C9.69541463,10.1976585 8.72253659,11.8677073 9.77443902,12.528 L9.77443902,12.5297561 Z" id="Path"/><path d="M3.99512195,4.34458537 L5.63882927,2.3742439 C5.9724878,1.97385366 6.03043902,1.40136585 5.63882927,1.0097561 C5.29639024,0.658536585 4.6097561,0.605853659 4.27258537,1.0097561 L2.63414634,2.98536585 C2.3004878,3.3857561 2.24253659,3.9582439 2.63414634,4.35160976 C2.98536585,4.69404878 3.66497561,4.7537561 4.00039024,4.35160976 L3.99512195,4.34458537 Z" id="Path"/><path d="M4.03902439,3.55960976 C3.82146807,2.69856498 3.67521734,1.82106062 3.6017561,0.936 C3.50165854,-0.293268293 1.56819512,-0.305560976 1.67004878,0.936 C1.75227202,1.99415049 1.92142815,3.04374079 2.17580488,4.07414634 C2.47785366,5.27882927 4.34107317,4.76780488 4.03902439,3.55960976 Z" id="Path"/><path d="M3.2364878,3.01346341 C2.67958156,2.74358928 2.19723998,2.34143699 1.83160976,1.84214634 C1.53307317,1.41541463 0.986926829,1.21521951 0.509268293,1.49092683 C0.087804878,1.73853659 -0.13697561,2.38302439 0.15804878,2.81326829 C0.695326556,3.59974002 1.41941352,4.24055699 2.26536585,4.6782439 C2.72865411,4.93316156 3.31051026,4.77841258 3.58595122,4.32702439 C3.83882927,3.89678049 3.70712195,3.2417561 3.23473171,3.00468293 L3.2364878,3.01346341 Z" id="Path"/></g><g id="MATASUEGRAS_COLOUR" transform="translate(52.858537, 11.063415)"><path d="M0.112390244,14.2770732 C0.0913692093,13.1538623 0.178403895,12.0312324 0.372292683,10.9246829 C0.372292683,10.9246829 4.3235122,9.3617561 7.01560976,9.27043902 C9.70770732,9.17912195 13.9223415,9.01404878 15.8839024,7.98321951 C17.9456868,6.89914391 20.2079087,6.24946487 22.5307317,6.07434146 C25.0437073,5.87063415 30.3102439,5.70204878 32.5404878,5.08390244 C34.7707317,4.4657561 37.8597073,4.36917073 40.1461463,4.0302439 C42.4325854,3.69131707 43.9797073,3.44546341 44.1658537,2.21970732 C44.2715855,1.47308464 44.1329792,0.7122901 43.7707317,0.0509268293 C43.7707317,0.0509268293 46.1116098,-0.210731707 46.7297561,0.944780488 C47.3479024,2.10029268 48.0450732,3.34360976 46.566439,4.52370732 C45.0878049,5.70380488 41.9338537,7.2 39.4314146,7.98321951 C36.9289756,8.76643902 33.6362927,9.82185366 33.6362927,9.82185366 C33.6362927,9.82185366 30.0907317,11.0739512 27.3986341,11.1898537 C24.7065366,11.3057561 21.4279024,11.9976585 21.4279024,11.9976585 C21.4279024,11.9976585 17.9859512,13.5693659 16.1596098,13.6273171 C14.3332683,13.6852683 11.5832195,13.6273171 11.5832195,13.6273171 C11.5832195,13.6273171 9.12468293,13.7555122 7.31239024,14.3069268 C5.50009756,14.8583415 3.61229268,15.5572726 3.61229268,15.5572726 C3.61229268,15.5572726 0.147512195,15.569561 0.112390244,14.2770732 Z" id="Path" fill="#82C9E3"/><path d="M2.24253659,15.4536585 C1.28019512,15.6099512 0.00526829268,14.633561 0.00526829268,14.633561 L0.108878049,11.9818537 L0.732292683,10.5400976 L4.55356098,9.52507317 C4.55356098,9.52507317 4.52721951,11.1266341 4.04429268,12.2856585 C3.56136585,13.4446829 2.24253659,15.4536585 2.24253659,15.4536585 Z" id="Path" fill="#DEE37A"/><path d="M9.48292683,13.7397073 L11.0844878,8.89112195 C11.0844878,8.89112195 14.561561,8.73307317 15.8786341,7.75492683 C17.1957073,6.77678049 18.377561,6.74165854 18.377561,6.74165854 C18.377561,6.74165854 17.2905366,10.2907317 17.1482927,10.6981463 C17.0060488,11.105561 15.6924878,13.7397073 15.6924878,13.7397073 C14.4810673,13.6641317 13.2665073,13.6524081 12.0538537,13.7045854 C11.1982109,13.7644026 10.3398843,13.7761284 9.48292683,13.7397073 L9.48292683,13.7397073 Z" id="Path" fill="#DEE37A"/><path d="M22.374439,12.1574634 C22.374439,12.1574634 23.4280976,9.82009756 23.795122,8.54692683 C24.1621463,7.2737561 24.4290732,5.832 24.4290732,5.832 C24.4290732,5.832 28.2626341,5.33853659 29.1986341,4.90653659 C29.9142998,4.60433319 30.6577168,4.37260353 31.4183415,4.21463415 C31.4183415,4.21463415 30.870439,6.65912195 30.563122,7.72682927 C30.2558049,8.79453659 29.0019512,11.1547317 29.0019512,11.1547317 C29.0019512,11.1547317 24.0093659,11.4760976 22.374439,12.1574634 Z" id="Path" fill="#DEE37A"/><path d="M35.5732683,9.63043902 C35.64,9.40039024 36.9781463,6.92253659 37.2731707,5.81092683 C37.4243362,5.22087275 37.6138112,4.64130208 37.8403902,4.07590244 C37.8403902,4.07590244 40.913561,3.94770732 41.8039024,3.58068293 C42.3559503,3.34991979 42.8890904,3.07630382 43.398439,2.76234146 C43.398439,2.76234146 44.0376585,3.5315122 43.614439,4.74321951 C43.1912195,5.95492683 42.8716098,7.02614634 42.8716098,7.02614634 C42.8716098,7.02614634 39.3787317,8.15882927 38.2109268,8.67687805 C37.3503093,9.04400557 36.4696949,9.3623635 35.5732683,9.63043902 Z" id="Path" fill="#DEE37A"/></g><g id="MATASUEGRAS_LINES" transform="translate(47.941463, 7.902439)" fill="#4C4C4C"><path d="M6.34302439,12.0222439 C5.74079563,13.1640116 5.5717683,14.4850444 5.86712195,15.7416585 C6.09717073,16.7004878 6.72234146,18.3213659 7.96039024,17.6733659 C8.86126829,17.1992195 8.0622439,15.8347317 7.16312195,16.308878 L7.31414634,16.2491707 L7.99726829,16.6407805 C7.19448806,15.5211433 7.08273799,14.0473968 7.7075122,12.8195122 C8.16936585,11.915122 6.80663415,11.1143415 6.34302439,12.0204878 L6.34302439,12.0222439 Z" id="Path"/><path d="M6.1937561,12.456 C4.45697561,13.0407805 2.72019512,13.6308293 0.979902439,14.2120976 C0.0193170732,14.5317073 0.432,16.0577561 1.40136585,15.7363902 C3.13990244,15.1586341 4.87668293,14.5668293 6.61346341,13.9802927 C7.57229268,13.6589268 7.16136585,12.131122 6.1937561,12.4577561 L6.1937561,12.456 Z" id="Path"/><path d="M0.252878049,14.8214634 C0.0671425801,15.5268708 0.160877323,16.2767487 0.514536585,16.9147317 C0.654865926,17.1627117 0.917824915,17.3159464 1.20275718,17.31578 C1.48768944,17.3156134 1.75046917,17.1620715 1.89050861,16.9139277 C2.03054804,16.6657838 2.02616009,16.3614665 1.87902439,16.1174634 C1.73151921,15.8493735 1.69495356,15.5341524 1.77717073,15.2394146 C1.85214422,14.967126 1.77615831,14.675523 1.57783616,14.4744497 C1.37951401,14.2733764 1.08898546,14.1933807 0.815689819,14.2645961 C0.542394175,14.3358114 0.32785154,14.5474187 0.252878049,14.8197073 L0.252878049,14.8214634 Z" id="Path"/><path d="M1.41541463,17.2396098 C3.21208436,17.2471024 5.00672241,17.1179495 6.78380488,16.8532683 C7.78653659,16.7057561 7.35980488,15.1832195 6.36409756,15.3289756 C4.72530531,15.5644516 3.07096366,15.6748194 1.41541463,15.659122 C0.398634146,15.659122 0.396878049,17.2396098 1.41541463,17.2396098 Z" id="Path"/><path d="M4.78185366,14.1155122 C4.65365854,14.5106341 3.816,14.5562927 3.49639024,14.6282927 L1.67882927,15.0409756 C0.686634146,15.2657561 1.10634146,16.7970732 2.09853659,16.5652683 C3.528,16.2403902 5.76878049,16.1912195 6.31317073,14.5369756 C6.62926829,13.5658537 5.10321951,13.1514146 4.78887805,14.1155122 L4.78185366,14.1155122 Z" id="Path"/><path d="M9.70770732,17.1763902 C10.6123504,15.5452387 11.2636978,13.7860086 11.6394146,11.9590244 C11.6973194,11.7260931 11.5620302,11.4887571 11.3320976,11.4199024 C11.0982016,11.3579753 10.8577552,11.4945925 10.7912195,11.7272195 C10.4384628,13.4799312 9.819594,15.1683475 8.95609756,16.7338537 C8.68214634,17.2290732 9.44078049,17.6716098 9.71473171,17.1763902 L9.70770732,17.1763902 Z" id="Path"/><path d="M16.5283902,15.0515122 C17.3397073,13.8801951 17.406439,12.3875122 18.1299512,11.1880976 C18.4214634,10.7016585 17.6628293,10.260878 17.3713171,10.7438049 C16.6442927,11.9555122 16.577561,13.4517073 15.7697561,14.6177561 C15.6907045,14.753273 15.6899553,14.9206694 15.7677907,15.0568885 C15.845626,15.1931076 15.9902209,15.2774546 16.1471077,15.2781612 C16.3039946,15.2788589 16.4493387,15.1958096 16.5283902,15.0602927 L16.5283902,15.0515122 Z" id="Path"/><path d="M22.9240976,15.1533659 C24.0537869,13.0836623 24.8951421,10.8691967 25.4247805,8.5715122 C25.5512195,8.02009756 24.7065366,7.78653659 24.5783415,8.33795122 C24.0692426,10.561768 23.2579985,12.7053905 22.1672195,14.7090732 C21.8967805,15.2060488 22.6536585,15.6503415 22.9240976,15.1533659 L22.9240976,15.1533659 Z" id="Path"/><path d="M29.5709268,13.104 C30.5672008,11.3950923 31.2516133,9.52262041 31.5921951,7.57404878 C31.6503691,7.34118793 31.5161075,7.10352947 31.2866341,7.03317073 C31.052608,6.9702319 30.8114894,7.10723112 30.7457561,7.3404878 C30.4223368,9.21407153 29.7682477,11.0151951 28.8140488,12.6597073 C28.529561,13.1496585 29.2881951,13.5921951 29.5709268,13.104 L29.5709268,13.104 Z" id="Path"/><path d="M35.9736585,12.5367805 C37.3416585,10.9106341 37.9598049,8.86653659 38.5041951,6.85053659 C38.6517073,6.30439024 37.8017561,6.07082927 37.6577561,6.61697561 C37.1555122,8.47141463 36.6146341,10.4171707 35.352,11.915122 C35.1865359,12.0893108 35.1865359,12.3625916 35.352,12.5367805 C35.5247174,12.7058901 35.8009412,12.7058901 35.9736585,12.5367805 L35.9736585,12.5367805 Z" id="Path"/><path d="M7.23512195,13.1830244 C8.75239024,12.7650732 10.2046829,12.1293659 11.7588293,11.8413659 C13.6729756,11.4901463 15.6327805,11.556878 17.5539512,11.3426341 C21.2136585,10.9352195 24.4413659,9.04565854 28.0606829,8.4977561 C29.9291707,8.21502439 31.8292683,8.18868293 33.7065366,7.97092683 C35.5346341,7.76019512 37.3451707,7.43531707 39.150439,7.1244878 C41.0332815,6.77203422 42.9338157,6.5217171 44.8437073,6.37463415 C46.4540488,6.27804878 48.2066341,6.47297561 49.7080976,5.7635122 C51.0181463,5.14536585 52.1666341,3.68780488 51.7293659,2.16878049 C51.318439,0.737560976 49.7397073,-0.0368780488 48.4033171,0.605853659 C47.4866341,1.04663415 48.2874146,2.41112195 49.2005854,1.97034146 C49.6940488,1.73326829 50.2120976,2.36195122 50.2401951,2.8062439 C50.2840976,3.50868293 49.5658537,4.08995122 49.0109268,4.34985366 C47.6692683,4.968 45.9605854,4.71336585 44.5240976,4.81697561 C41.3086829,5.04878049 38.1564878,5.7582439 34.974439,6.22185366 C31.859122,6.67668293 28.6437073,6.56253659 25.5933659,7.40721951 C24.1129756,7.81814634 22.6905366,8.40468293 21.2347317,8.89287805 C19.676164,9.41929752 18.0568883,9.74504103 16.416,9.8622439 C14.7178537,9.98341463 13.0109268,10.0115122 11.3320976,10.3170732 C9.77795122,10.5980488 8.32565854,11.2390244 6.80839024,11.6569756 C5.8284878,11.9291707 6.24468293,13.4534634 7.22809756,13.1812683 L7.23512195,13.1830244 Z" id="Path"/><path d="M7.10517073,17.7998049 C10.7754146,18.6146341 13.859122,15.9892683 17.4169756,15.804878 C19.5383415,15.6942439 21.5420488,16.1139512 23.651122,15.6292683 C25.6197073,15.1709268 27.5057561,14.4193171 29.4813659,13.9750244 C31.5960687,13.5235945 33.7448293,13.2498595 35.9051707,13.1566829 C37.9229268,13.0442927 39.8792195,12.8423415 41.7459512,12.0222439 C42.6011707,11.6481951 43.4177561,11.1845854 44.2817561,10.8298537 C45.3108293,10.4083902 46.3996098,10.1484878 47.4708293,9.8657561 C49.2269268,9.40565854 50.9496585,8.8595122 52.3756098,7.704 C53.7278049,6.60643902 54.899122,4.752 54.4600976,2.93443902 C54.2634146,2.12136585 53.7155122,1.50497561 53.028878,1.05717073 C52.4599024,0.688390244 51.3763902,0.056195122 50.6862439,0.331902439 C50.3719024,0.456585366 50.0891707,0.721756098 50.1067317,1.09404878 C50.1028862,1.43493827 50.2853735,1.75075573 50.5826341,1.91765854 C50.8940354,2.09279726 51.2835706,2.04205048 51.5397073,1.79297561 L51.5906341,1.75082927 C52.3650732,1.08878049 51.2394146,-0.0263414634 50.4737561,0.632195122 L50.4228293,0.676097561 L51.3799024,0.553170732 L51.299122,0.500487805 L51.6907317,1.18185366 L51.6907317,1.09404878 L51.1112195,1.85443902 C50.9461463,1.92117073 51.0690732,1.83160976 51.2253659,1.92292683 C51.3816585,2.0142439 51.5555122,2.05463415 51.7082927,2.13014634 C52.0110127,2.26023983 52.2908702,2.43811538 52.5371707,2.65697561 C53.1939512,3.30146341 52.9814634,4.3164878 52.5933659,5.05580488 C51.8803902,6.41678049 50.4333659,7.25795122 49.0337561,7.75668293 C47.3865366,8.34497561 45.6444878,8.61365854 44.0130732,9.24936585 C42.3816585,9.88507317 40.931122,10.8298537 39.2206829,11.2091707 C37.4452683,11.6025366 35.6066341,11.5516098 33.803122,11.7131707 C31.9910789,11.8739146 30.193646,12.1703561 28.4259512,12.6 C26.6698537,13.0284878 24.9910244,13.6940488 23.2349268,14.1049756 C21.3822439,14.5369756 19.6085854,14.1927805 17.7418537,14.220878 C16.0085854,14.2454634 14.3877073,14.8232195 12.7720976,15.3957073 C11.1108293,15.984 9.31082927,16.6776585 7.52839024,16.2737561 C6.53795122,16.0542439 6.11473171,17.5767805 7.10868293,17.7980488 L7.10517073,17.7998049 Z" id="Path"/><path d="M42.4817561,10.9879024 C43.5785518,9.52768093 44.4057797,7.88333513 44.9244878,6.13229268 C45.0860488,5.58790244 44.2396098,5.35609756 44.0780488,5.89873171 C43.5771556,7.57593117 42.7795569,9.1497165 41.723122,10.5453659 C41.6029054,10.7551236 41.6732776,11.0225381 41.8811707,11.1459512 C42.0914345,11.2622282 42.3559634,11.1926153 42.4817561,10.9879024 L42.4817561,10.9879024 Z" id="Path"/><path d="M50.1067317,8.09912195 C50.7068105,6.88920472 51.0980771,5.58656621 51.264,4.2462439 C51.2630375,4.00417723 51.0670423,3.80818202 50.8249756,3.80721951 C50.5852298,3.81366528 50.392397,4.0064981 50.3859512,4.2462439 C50.2323499,5.43311606 49.8809474,6.58585878 49.3463415,7.65658537 C49.2310165,7.86696678 49.3004482,8.13080695 49.5043902,8.25717073 C49.714148,8.37738732 49.9815625,8.30701508 50.1049756,8.09912195 L50.1067317,8.09912195 Z" id="Path"/><path d="M49.1198049,1.9475122 C50.2577561,1.3644878 51.6222439,1.82985366 52.4757073,2.6657561 C53.2027317,3.37873171 54.3213659,2.26185366 53.5925854,1.54887805 C52.2105366,0.194926829 50.0997073,-0.328390244 48.3242927,0.581268293 C47.4199024,1.04663415 48.2189268,2.40936585 49.1233171,1.9475122 L49.1198049,1.9475122 Z" id="Path"/></g><g id="PARTY_END" transform="translate(89.736585, 0.526829)"><path d="M7.41073171,8.60487805 C6.83588795,6.52657059 7.04591582,4.30940134 8.00078049,2.376 L5.24195122,2.61834146 C5.24195122,2.61834146 4.50439024,5.29287805 5.74946341,7.97970732 L6.17970732,8.81385366 C6.17970732,8.81385366 2.68682927,9.01756098 1.08702439,6.30263415 L0.0860487805,9.216 C0.0860487805,9.216 1.51726829,10.817561 5.99531707,9.91843902 C5.99531707,9.91843902 4.47453659,12.4805854 5.35082927,14.0979512 C6.22712195,15.7153171 8.10790244,16.1350244 8.10790244,16.1350244 L9.53736585,14.0979512 C9.53736585,14.0979512 7.31414634,13.571122 7.09287805,11.8150244 C6.87160976,10.0589268 7.09287805,9.74458537 7.09287805,9.74458537 C7.09287805,9.74458537 9.92546341,10.1730732 11.3689756,9.92019512 C12.8124878,9.66731707 13.7800976,7.54946341 13.7800976,7.54946341 L11.7412683,5.85307317 C11.7412683,5.85307317 11.484878,7.63902439 9.83414634,8.18692683 C8.18341463,8.73482927 7.41073171,8.60487805 7.41073171,8.60487805 Z" id="Path" fill="#DEE37A"/><path d="M8.39239024,6.97873171 C7.02614634,5.37541463 6.7644878,3.1715122 7.54946341,1.24507317 C7.93229268,0.303804878 6.4044878,-0.105365854 6.02517073,0.825365854 C5.02068293,3.29268293 5.56507317,6.09365854 7.2737561,8.09736585 C7.93580488,8.87180488 9.04917073,7.74614634 8.39239024,6.97873171 L8.39239024,6.97873171 Z" id="Path" fill="#4C4C4C"/><path d="M6.94185366,1.84214634 C7.69708089,1.83697077 8.4506188,1.77001573 9.19492683,1.64195122 C9.61639024,1.57170732 9.85170732,1.05014634 9.74634146,0.670829268 C9.62341463,0.22302439 9.19668293,0.0474146341 8.77521951,0.117658537 C8.16904979,0.215597507 7.55588083,0.263758287 6.94185366,0.261658537 C5.92507317,0.261658537 5.92331707,1.84214634 6.94185366,1.84214634 L6.94185366,1.84214634 Z" id="Path" fill="#4C4C4C"/><path d="M8.51004878,0.809560976 C7.4493696,3.19256866 7.23860643,5.8674013 7.91297561,8.38712195 C8.17463415,9.36878049 9.69892683,8.95258537 9.4355122,7.96741463 C8.85767894,5.85864524 9.01245759,3.61621212 9.87453659,1.60682927 C10.2766829,0.683121951 8.91570732,-0.122926829 8.51004878,0.809560976 L8.51004878,0.809560976 Z" id="Path" fill="#4C4C4C"/><path d="M8.81209756,7.23160976 C6.77678049,6.83473171 4.44292683,6.39570732 3.26282927,4.49385366 C2.72721951,3.63160976 1.36097561,4.42360976 1.89834146,5.29287805 C3.32078049,7.58634146 5.89873171,8.26946341 8.39590244,8.75590244 C9.38985366,8.94907317 9.81482927,7.42653659 8.81560976,7.23160976 L8.81209756,7.23160976 Z" id="Path" fill="#4C4C4C"/><path d="M1.52604878,4.72214634 L0.416195122,7.39843902 C0.251121951,7.79531707 0.591804878,8.26243902 0.967609756,8.37131707 C1.42068293,8.50126829 1.77717073,8.2115122 1.93873171,7.81814634 L3.05034146,5.14185366 C3.21541463,4.74497561 2.87473171,4.27609756 2.49892683,4.16897561 C2.04585366,4.03902439 1.68936585,4.32878049 1.52604878,4.72214634 L1.52604878,4.72214634 Z" id="Path" fill="#4C4C4C"/><path d="M1.0764878,8.568 C3.62603897,9.41940491 6.36932918,9.50427411 8.96663415,8.81209756 C9.95004878,8.55219512 9.53209756,7.02790244 8.54692683,7.28780488 C6.22405227,7.90366196 3.77091704,7.81873399 1.49619512,7.04370732 C0.530283121,6.72058537 0.114146341,8.24663415 1.0764878,8.568 L1.0764878,8.568 Z" id="Path" fill="#4C4C4C"/><path d="M7.13853659,7.776 C6.05502439,9.04214634 5.4755122,10.7157073 5.90926829,12.3717073 C6.3190502,13.9158671 7.54417843,15.1099623 9.09834146,15.48 C10.0887805,15.7100488 10.5032195,14.1857561 9.51980488,13.9557073 C7.1244878,13.4007805 6.81717073,10.5752195 8.25541463,8.89287805 C8.91395122,8.12370732 7.80058537,7.00156098 7.13853659,7.776 Z" id="Path" fill="#4C4C4C"/><path d="M10.0097561,15.0725854 C10.5167689,14.436349 10.9858736,13.7708067 11.4146341,13.0794146 C11.9502439,12.2013659 10.584,11.4163902 10.0501463,12.2803902 C9.69599772,12.8611114 9.30719633,13.4199768 8.88585366,13.9539512 C8.62068293,14.2876098 8.56097561,14.7459512 8.88585366,15.0725854 C9.16156098,15.3482927 9.73756098,15.408 10.0044878,15.0725854 L10.0097561,15.0725854 Z" id="Path" fill="#4C4C4C"/><path d="M7.53892683,8.3555122 C7.08409756,10.566439 7.9884878,13.4798049 10.7209756,13.355122 C11.7324878,13.3077073 11.7395122,11.7272195 10.7209756,11.7746341 C9.09131707,11.8483902 8.81034146,10.008 9.06321951,8.77521951 C9.26692683,7.78302439 7.74439024,7.35804878 7.53892683,8.3555122 Z" id="Path" fill="#4C4C4C"/><path d="M8.0657561,8.27473171 C9.31941628,9.31047324 10.9853239,9.70031121 12.5683902,9.32839024 C14.0628293,8.96839024 15.5748293,7.79707317 15.5379512,6.13756098 C15.515122,5.12078049 13.9346341,5.11726829 13.9574634,6.13756098 C13.9802927,7.15785366 12.7685854,7.71804878 11.9045854,7.85502439 C10.9408495,8.01174264 9.95527275,7.76185124 9.18263415,7.16487805 C8.39590244,6.53795122 7.2702439,7.64780488 8.0657561,8.2817561 L8.0657561,8.27473171 Z" id="Path" fill="#4C4C4C"/><path d="M15.0532683,5.26829268 L13.7467317,4.23921951 C13.4113171,3.97580488 12.9564878,3.91258537 12.6298537,4.23921951 C12.3541463,4.51317073 12.2909268,5.09092683 12.6298537,5.35609756 L13.9363902,6.38517073 C14.2718049,6.64858537 14.7266341,6.71180488 15.0532683,6.38517073 C15.3289756,6.11121951 15.3921951,5.53346341 15.0532683,5.26829268 Z" id="Path" fill="#4C4C4C"/><path d="M8.74887805,7.95336585 C10.8149235,8.15385795 12.7781042,7.01214505 13.625561,5.11726829 C14.0364878,4.19707317 12.6755122,3.39278049 12.2593171,4.32 C11.609561,5.77053659 10.3399024,6.51687805 8.74712195,6.37287805 C7.73560976,6.28156098 7.74087805,7.86204878 8.74712195,7.95336585 L8.74887805,7.95336585 Z" id="Path" fill="#4C4C4C"/></g></g></g></svg>