<svg xmlns="http://www.w3.org/2000/svg" viewBox="0 0 114 72"><g fill-rule="nonzero" fill="none"><path d="M.31 8.132l10.973 51.322h101.151z" fill="#FFD9B2"/><path d="M18.966 60.858s2.283-9.17 2.924-11.805c.64-2.634 1.547-16.38 2.046-19.213.498-2.833.049-13.485.049-13.485s11.414-2.42 18.593-3.416c7.18-.996 31.083.632 31.083.632s-.556 1.553-.599 2.129c-.042.576-1.8 8.83-2.69 20.476-.89 11.646-.07 22.622-.07 22.622s-16.718 3.67-26.477 3.84c-9.758.17-24.86-1.78-24.86-1.78z" fill="#FFF"/><path d="M24.78 61.904l-6.048-.918s2.376-8.956 3.198-14.02c.822-5.066 1.883-11.753 2.01-17.126.126-5.374-.233-13.965-.233-13.965l5.19-1.2s1.436 13.15.788 20.226c-.648 7.075-3.47 20.065-4.046 22.523-.576 2.459-.859 4.48-.859 4.48zM60.199 44.865a139.064 139.064 0 00-2.687-3.943v-3.466a.502.502 0 00-.254-.443l-.794-.393c-.28-.137-.68-.037-.754.307-.089.41-.152.824-.19 1.242-.62-.864-1.228-1.814-1.984-2.547-.716-.702-1.49-.73-2.377-.317-3.995 1.863-7.552 4.9-10.293 8.323a.527.527 0 00.104.807 4.71 4.71 0 002.536.95c-.429 1.81-.754 3.687-.764 5.501 0 1.205.951 1.191 1.931 1.272l1.316.109c.16-1.498.422-2.983.785-4.445a1.804 1.804 0 01-.266-.104c-.539-.27-.76-.853-.776-1.426-.017-.65.167-1.296.32-1.922l.485-2.025c.11-.459.816-.264.702.195l-.432 1.78c-.063.266-.135.527-.198.8.03.053.046.113.047.175 0 .046.014.091.042.128a.572.572 0 00.218.176.922.922 0 00.25.096c.059.018.12.032.175.046a78.33 78.33 0 01.774-3.337c.118-.454.826-.261.703.195-.21.801-.403 1.605-.58 2.412-.058.26-.11.526-.165.781.3-.016.596-.075.878-.176.293-1.025.586-2.052.878-3.082.13-.453.836-.26.703.195-.315 1.107-.618 2.215-.945 3.318a4.822 4.822 0 01-.615 1.424.878.878 0 01-.808.395.448.448 0 01-.108.026 7.47 7.47 0 01-.295.027 47.643 47.643 0 01-.527 4.464l1.29.107c1.063.084 2.127.156 3.191.165.14-.79.307-1.577.499-2.359h-.239a1.837 1.837 0 01-.799-.12.553.553 0 01-.284-.33.395.395 0 01-.139-.393c.09-.569.216-1.131.38-1.684a13.55 13.55 0 012.92-5.189c.098-.39.746-.367.72.077v.043c.004.039 0 .079-.01.117-.052.9-.12 1.798-.203 2.696a78.85 78.85 0 01-.555 4.494c0 .029-.005.058-.014.086a74.06 74.06 0 01-.434 2.546c.733-.03 1.488-.125 2.074-.45.947-.526 1.028-1.67 1.205-2.634l.666-3.57a6.073 6.073 0 002.384-.351.527.527 0 00.313-.77zm-18.212-.99c.022-.03.047-.059.07-.087.016.054.035.106.06.157-.044-.023-.088-.043-.13-.07zm6.048-3.299l-.046-.044.067-.049-.021.093zm6.57-1.931c.271.35.538.721.805 1.085l.228.32c-.377-.439-.719-.906-1.023-1.398l-.01-.007zm1.882.84a.777.777 0 00-.044-.062.369.369 0 00.044-.1v.161z" fill="#FF8000"/><path d="M38.228 62.649c0 2.511.11 5.017.327 7.518.118 1.34 2.227 1.352 2.107 0a86.62 86.62 0 01-.326-7.518c0-1.356-2.108-1.358-2.108 0zM50.59 62.59c0 2.51.109 5.016.326 7.517.118 1.34 2.225 1.352 2.108 0a86.62 86.62 0 01-.327-7.518c0-1.356-2.107-1.357-2.107 0z" fill="#4C4C4C"/><g fill="#4C4C4C"><path d="M72.527 13.775c-.764 3.277-1.393 6.55-1.844 9.887-.16 1.192 1.666 1.708 1.83.504.45-3.337 1.078-6.609 1.842-9.887.277-1.187-1.55-1.695-1.828-.504zM23.04 16.355a135.978 135.978 0 01-2.905 34.795c-.702 3.23-1.515 6.43-2.439 9.602-.351 1.175 1.488 1.676 1.828.504a138.63 138.63 0 005.504-34.886c.092-3.34.062-6.676-.091-10.01-.055-1.215-1.951-1.23-1.897 0v-.005z"/><path d="M24.368 16.79a139.324 139.324 0 0149.295-2.27c1.206.157 1.194-1.74 0-1.897a141.56 141.56 0 00-38.985.307c-3.63.533-7.237 1.21-10.823 2.03-1.189.272-.685 2.108.506 1.83h.007zM70.841 22.63c-1.774 11.95-2.118 24.105-1.73 36.175.039 1.217 1.932 1.229 1.897 0-.381-11.886-.086-23.883 1.661-35.665.176-1.194-1.649-1.709-1.828-.504v-.007z"/><path d="M18.48 61.9c3.178.94 6.6.991 9.888 1.204 3.445.22 6.894.386 10.347.453 6.756.128 13.522-.139 20.218-1.114a81.641 81.641 0 0011.297-2.458c1.168-.351.67-2.176-.504-1.83-12.82 3.779-26.32 3.927-39.558 3.16-3.688-.215-7.614-.19-11.185-1.244-1.173-.351-1.673 1.482-.504 1.828v.002zM28.303 15.083c.496 2.591.735 5.226.713 7.864 0 .79 1.23.792 1.23 0a41.76 41.76 0 00-.758-8.196c-.147-.776-1.332-.448-1.185.327v.005zM29.07 30.614a79.22 79.22 0 01-1.016 11.9c-.127.774 1.053 1.106 1.185.326a81.47 81.47 0 001.054-12.226c0-.79-1.23-.792-1.23 0h.007z"/><path d="M26.435 50.644a99.622 99.622 0 01-2.54 10.955c-.223.76.964 1.085 1.186.326 1.052-3.6 1.9-7.258 2.539-10.954.135-.775-1.054-1.107-1.185-.327z"/></g><g fill="#4C4C4C"><path d="M45.25 12.43a54.555 54.555 0 00-1.906-5.144c-.443-1.036-1.956-.142-1.517.887a49.647 49.647 0 011.728 4.724c.335 1.075 2.032.616 1.694-.467z"/><path d="M43.002 8.35c3.266-.976 6.81-.616 10.17-.546 1.13.025 1.13-1.731 0-1.756-3.527-.074-7.21-.416-10.636.608-1.082.323-.621 2.02.466 1.694z"/><path d="M52.483 7.276l1.473 4.67c.339 1.075 2.034.617 1.693-.466l-1.473-4.672c-.34-1.074-2.034-.614-1.693.468zM33.643 13.764c-.58-1.252-1.14-2.514-1.67-3.79-.43-1.027-2.13-.575-1.694.468.585 1.415 1.201 2.82 1.849 4.214.474 1.024 1.988.134 1.515-.886v-.006z"/><path d="M31.485 10.691l3.74-.799c1.253-.267 2.5-.618 3.788-.462 1.12.135 1.11-1.622 0-1.756-1.329-.161-2.634.176-3.928.457l-4.065.865c-1.105.236-.638 1.932.465 1.695z"/><path d="M38.513 9.121a23.828 23.828 0 012.123 3.713c.469 1.027 1.983.135 1.516-.878a23.625 23.625 0 00-2.124-3.715c-.642-.918-2.165-.042-1.515.887v-.007z"/></g><g fill="#4C4C4C"><path d="M43.551 16.068v.44a.327.327 0 00.039.175.38.38 0 00.232.232c.053.029.114.042.175.038l.116-.015a.436.436 0 00.195-.113c.08-.086.124-.2.121-.318v-.439a.327.327 0 00-.038-.175.38.38 0 00-.232-.232.327.327 0 00-.176-.039l-.116.016a.436.436 0 00-.323.423l.007.007zM55.361 15.717v.44a.327.327 0 00.039.175.38.38 0 00.231.232c.054.029.115.042.176.038l.116-.016a.436.436 0 00.323-.423v-.439a.327.327 0 00-.039-.176.38.38 0 00-.231-.231.327.327 0 00-.176-.039l-.116.016a.436.436 0 00-.323.423z"/></g><path d="M48.644 22.285c-.088.02-.033.009-.012 0a.778.778 0 01-.111 0h-.086c-.076 0 .09.028-.035 0a.74.74 0 01-.295-.128c.049.033 0 0-.016-.013a.67.67 0 01-.063-.061.427.427 0 01-.09-.118c-.084-.135-.15-.279-.237-.412a1.266 1.266 0 00-.732-.594 1.054 1.054 0 00-.957.29c-.504.474-.448 1.262-.311 1.879a2.097 2.097 0 001.089 1.482 2.432 2.432 0 002.235-.128.44.44 0 00-.444-.759 1.538 1.538 0 01-1.322.139c-.072-.026.043.023-.025-.01l-.084-.043c-.05-.026-.095-.056-.14-.086a1.893 1.893 0 01-.176-.175 1.377 1.377 0 01-.27-.608 2.183 2.183 0 01-.071-.703.996.996 0 01.05-.237c.008-.019.018-.036.029-.056.01-.02.058-.077.028-.042a.796.796 0 01.069-.06s.063-.035.022-.015c-.04.019.035-.011.046-.015.058-.017-.014 0-.014 0s.068 0 0 0a.407.407 0 01.083.023c-.04-.015-.023-.019.008.014 0 0-.042-.037 0 0s.053.051.08.078c.026.026.05.063.013.014l.037.054c.035.055.069.114.1.176.06.109.118.221.188.325.367.538 1.024.799 1.66.66a.44.44 0 00.305-.54.446.446 0 00-.551-.331z" fill="#FF8000"/><path d="M46.138 21.8a3.217 3.217 0 00.29 1.932c.065.148.16.282.277.393.2.191.501.228.741.092.378-.252.374-.76.295-1.158-.07-.361-.188-.716-.291-1.07a.439.439 0 00-.862.117c.047.391-.032.783.038 1.176.08.433.384.791.8.938a1 1 0 001.144-.416.838.838 0 00.102-.678.608.608 0 00-.676-.421.597.597 0 00-.245 1.096c.146.098.325.131.496.09l-.234-.847a.58.58 0 00-.35.848.44.44 0 00.758-.445l.039.162a.22.22 0 01-.023.105.351.351 0 01-.19.176.444.444 0 00.307-.54.453.453 0 00-.54-.308c.193-.037.395.107.326.318l-.082.142c-.065.044-.078.054-.04.031a.176.176 0 01-.104.034h-.018a.274.274 0 01-.22-.109.214.214 0 01-.042-.076c0-.068-.008-.079-.008-.03 0 .085.017-.1 0-.01-.011.033-.011.033 0 0 .01-.033.015-.037 0 0-.065.086 0 0 0 0a.383.383 0 01-.04.037c-.027.025-.025.025 0 0 .027-.025.03-.023 0 0l-.046.026s.101-.044 0 0c-.102.044.09 0 .01 0h-.056.047l-.093-.026s.099.053 0 0a.767.767 0 00-.07-.044c.05.04.058.044.023.014l-.021-.02a.42.42 0 01-.039-.04c-.025-.03-.025-.03 0 0s.023.028 0 0l-.03-.049-.02-.037c-.011-.028 0-.017.015.03-.018-.017-.023-.068-.03-.095-.007-.026-.032-.14-.017-.07.014.07 0-.058 0-.074-.018-.293.031-.586 0-.878l-.863.116c.093.322.192.641.269.966 0 .035.016.07.023.105.007.036 0 .048.012.07v-.027.147l-.016.069c-.014.042-.014.043 0 0 .014-.044.016-.036 0 0a.263.263 0 01.16-.12.235.235 0 01.186.01.153.153 0 01.072.048.307.307 0 01-.042-.04c.033.045.04.056.023.03l-.104-.176-.042-.09c-.02-.045-.017-.04 0 .014l-.024-.061a2.634 2.634 0 01-.122-.413c0-.031-.014-.065-.019-.096l-.01-.067c.008.063.01.068 0 .02-.011-.05-.013-.132-.014-.2-.002-.066 0-.154 0-.231v-.098-.065c-.01.061-.01.066 0 .017a.483.483 0 00-.044-.339.446.446 0 00-.262-.2c-.209-.049-.504.063-.54.306l.036-.01z" fill="#FF8000"/><path d="M48.252 23.18l.093.879c.007.24.2.432.44.439a.44.44 0 00.438-.44l-.093-.878a.453.453 0 00-.439-.439.44.44 0 00-.439.44z" fill="#FF5000"/><path d="M48.488 22.696l.072 1.319c.03.562.91.565.878 0l-.072-1.32c-.032-.561-.91-.565-.878 0z" fill="#FF5000"/><path d="M48.163 23.435c.39-.01.765-.154 1.064-.406l.198-.144.102-.07s.056-.037.058-.035a.214.214 0 01-.053.01.195.195 0 01-.119-.038s-.037-.06-.012-.016c.024.044 0-.014 0-.02 0-.008.014.073.009.029-.006-.044 0 .028 0 .03v.067c0 .075.01-.055 0 .017a2.938 2.938 0 01-.13.492c.028-.074-.018.038-.028.06l-.06.103c-.021.034-.023.034-.034.05-.01.015.043-.046.01-.011l-.097.1c-.057.053.03-.012-.037.026l-.1.058c-.072.037.038-.01-.039.014a1.618 1.618 0 01-.132.037l-.116.023c-.05.01.011 0 .02 0h-.062c-.086 0-.175.009-.263.009-.088 0-.202 0-.304-.013h-.184c-.065 0 .073.014 0 0a1.423 1.423 0 01-.123-.026l-.053-.014c-.01 0-.08-.03-.028 0 .053.03 0 0-.01 0l-.059-.035s.06.047.027.014c-.034-.033.052.086 0 0a.439.439 0 10-.757.444c.28.445.783.506 1.264.527.481.021.963 0 1.36-.256.406-.292.678-.735.755-1.23.09-.291.076-.606-.04-.888a.743.743 0 00-.807-.394c-.267.055-.486.274-.702.424a2.459 2.459 0 01-.293.175c-.06.028.06-.012 0 0-.03 0-.062.02-.094.028-.077.021-.017 0 0 0a.878.878 0 01-.117 0 .44.44 0 00-.44.44.45.45 0 00.44.438l-.014-.019z" fill="#FF8000"/><path d="M48.728 24.059l.67-.557a.351.351 0 00.09-.142.33.33 0 00.037-.176.437.437 0 00-.439-.439l-.115.016a.439.439 0 00-.194.112l-.67.557a.339.339 0 00-.09.142.33.33 0 00-.039.176.437.437 0 00.44.439l.117-.016a.439.439 0 00.193-.112z" fill="#FF8000"/><path d="M45.748 22.566c-.018.278.017.557.104.822.076.27.178.531.305.781.251.457.734.653 1.21.787.268.084.547.13.827.133.298-.016.588-.098.85-.24.441-.221.868-.499 1.075-.966a1.726 1.726 0 00-.083-1.605c-.296-.48-1.053-.039-.758.444a.82.82 0 01-.167 1.07 2.107 2.107 0 01-.3.188 1.405 1.405 0 01-.617.231 2.21 2.21 0 01-.702-.131 1.23 1.23 0 01-.469-.211 1.285 1.285 0 01-.281-.564 1.721 1.721 0 01-.121-.74.443.443 0 00-.436-.438.448.448 0 00-.439.439h.002z" fill="#FF8000"/><path d="M47.59 24.059c.566 0 .566-.879 0-.879-.565 0-.565.879 0 .879z" fill="#FF8000"/><g fill="#4C4C4C"><path d="M27.044 25.075c-1.895-.223-3.588-1.782-4.819-3.134a14.15 14.15 0 01-2.81-4.6 14.346 14.346 0 01.682-11.388c.527-1.053-1.054-1.972-1.58-.922-2.08 4.115-2.417 9.01-.666 13.306 1.52 3.735 4.917 8.059 9.188 8.565 1.164.138 1.155-1.69 0-1.827h.005z"/><path d="M19.928 4.647c-.397-.703-.906-1.565-.435-2.341.609-1.008-.97-1.932-1.58-.922-.84 1.385-.303 2.892.435 4.185.583 1.022 2.161.101 1.58-.922z"/><path d="M20.574 5.844a12.505 12.505 0 001.609-3.322c.351-1.122-1.405-1.604-1.756-.485a10.804 10.804 0 01-1.43 2.88c-.669.971.914 1.886 1.581.922l-.004.005z"/><path d="M19.844 6.617c1.126-.06 2.243-.23 3.336-.506 1.138-.291.656-2.053-.486-1.756-.933.239-1.888.384-2.85.436-1.17.065-1.177 1.891 0 1.826z"/></g><g fill="#4C4C4C"><path d="M71.238 26.579c1.394.878 2.957 3.336.967 4.539-1.914 1.149-3.844-.757-4.651-2.346-1.688-3.32-1.58-7.235-1.742-10.855-.057-1.229-1.99-1.245-1.932 0 .098 2.166.114 4.336.435 6.486.418 2.795 1.249 6.055 3.61 7.86 2.01 1.537 5.267 1.563 6.625-.878 1.357-2.441-.202-5.142-2.338-6.477-1.053-.662-2.026 1.008-.974 1.669v.002z"/><path d="M65.459 18.393l1.643-1.97c.334-.4.392-.973 0-1.364-.342-.352-1.029-.404-1.366 0l-1.638 1.975c-.334.4-.392.973 0 1.366.35.343 1.03.403 1.366 0l-.005-.007z"/><path d="M65.502 17.608a16.17 16.17 0 01-.437-2.623c-.1-1.23-2.033-1.242-1.932 0 .083 1.058.252 2.108.506 3.138.302 1.205 2.165.694 1.863-.515z"/><path d="M64.7 17.062a3.79 3.79 0 01-1.405-1.171c-.299-.427-.845-.627-1.322-.351-.422.247-.647.892-.352 1.322a5.755 5.755 0 002.108 1.865.989.989 0 001.32-.351c.253-.43.122-1.085-.35-1.323v.01z"/></g><g><path d="M52.97 25.34a17.524 17.524 0 01.26-3.352s3.952-1.563 6.644-1.654c2.692-.091 6.907-.257 8.868-1.287a17.034 17.034 0 016.647-1.91c2.513-.203 7.78-.372 10.01-.99 2.23-.618 5.32-.714 7.606-1.053 2.286-.34 3.833-.585 4.02-1.81a3.495 3.495 0 00-.396-2.17s2.341-.261 2.96.894c.617 1.156 1.315 2.399-.164 3.58-1.479 1.18-4.633 2.675-7.135 3.459-2.502.783-5.795 1.838-5.795 1.838s-3.546 1.252-6.238 1.368c-2.692.116-5.97.808-5.97.808s-3.443 1.572-5.269 1.63c-1.826.058-4.576 0-4.576 0s-2.459.128-4.271.68c-1.812.55-3.7 1.25-3.7 1.25s-3.465.012-3.5-1.28z" fill="#82C9E3"/><path d="M55.101 26.517c-.962.156-2.237-.82-2.237-.82l.103-2.652.624-1.441 3.821-1.016s-.026 1.602-.51 2.761c-.482 1.16-1.8 3.168-1.8 3.168zM62.341 24.803l1.602-4.848s3.477-.159 4.794-1.137c1.317-.978 2.5-1.013 2.5-1.013s-1.088 3.55-1.23 3.957c-.142.407-1.456 3.041-1.456 3.041a34.57 34.57 0 00-3.639-.035c-.855.06-1.714.072-2.57.035zM75.233 23.22s1.054-2.336 1.42-3.61c.368-1.273.635-2.715.635-2.715s3.833-.493 4.77-.925c.715-.302 1.458-.534 2.219-.692 0 0-.548 2.445-.855 3.512-.308 1.068-1.562 3.428-1.562 3.428s-4.992.322-6.627 1.003zM88.432 20.694c.067-.23 1.405-2.708 1.7-3.82.15-.59.34-1.17.567-1.735 0 0 3.073-.128 3.963-.495.552-.23 1.086-.504 1.595-.818 0 0 .64.769.216 1.98a58.582 58.582 0 00-.743 2.284s-3.493 1.132-4.66 1.65c-.861.367-1.742.686-2.638.954z" fill="#DEE37A"/></g><g fill="#4C4C4C"><path d="M54.284 19.925a5.35 5.35 0 00-.475 3.72c.23.958.855 2.579 2.093 1.93.9-.473.102-1.838-.797-1.364l.15-.06.684.392a3.688 3.688 0 01-.29-3.821c.462-.904-.9-1.705-1.365-.8v.003z"/><path d="M54.135 20.358c-1.737.585-3.473 1.175-5.214 1.757-.96.32-.548 1.845.422 1.524 1.738-.578 3.475-1.17 5.212-1.756.959-.322.548-1.85-.42-1.523v-.002z"/><path d="M48.194 22.724a2.83 2.83 0 00.262 2.093.79.79 0 101.364-.797 1.17 1.17 0 01-.101-.878.79.79 0 00-1.525-.42v.002z"/><path d="M49.357 25.142a35.438 35.438 0 005.368-.386c1.003-.148.576-1.67-.42-1.525a32.62 32.62 0 01-4.948.33c-1.017 0-1.019 1.581 0 1.581z"/><path d="M52.723 22.018c-.128.395-.966.44-1.285.513l-1.818.412c-.992.225-.572 1.757.42 1.525 1.43-.325 3.67-.374 4.215-2.029.316-.97-1.21-1.385-1.525-.421h-.007zM57.65 25.079a18.399 18.399 0 001.93-5.218.45.45 0 00-.306-.539.444.444 0 00-.541.308 17.526 17.526 0 01-1.835 5.006c-.274.496.484.938.758.443h-.007zM64.47 22.954c.811-1.171.878-2.664 1.601-3.863.292-.487-.467-.928-.758-.445-.727 1.212-.794 2.708-1.602 3.874a.44.44 0 10.759.443v-.009zM70.866 23.056a25.864 25.864 0 002.5-6.582c.127-.551-.718-.785-.846-.234a24.988 24.988 0 01-2.411 6.372c-.27.496.486.94.757.444zM77.512 21.006a16.683 16.683 0 002.022-5.53.451.451 0 00-.306-.54.443.443 0 00-.54.307 16.033 16.033 0 01-1.932 5.32c-.285.49.474.932.756.443zM83.915 20.44c1.368-1.627 1.986-3.671 2.53-5.687.148-.546-.702-.78-.846-.234-.502 1.855-1.043 3.8-2.306 5.299a.451.451 0 000 .621c.173.17.45.17.622 0z"/><path d="M55.177 21.085c1.517-.417 2.97-1.053 4.523-1.341 1.914-.351 3.874-.285 5.795-.499 3.66-.407 6.888-2.297 10.507-2.845 1.869-.283 3.769-.309 5.646-.527 1.828-.21 3.639-.535 5.444-.846a53.103 53.103 0 015.693-.75c1.61-.097 3.363.098 4.865-.611 1.31-.618 2.458-2.076 2.02-3.595-.41-1.431-1.989-2.205-3.325-1.563-.917.441-.116 1.806.797 1.365.494-.237 1.012.391 1.04.836.044.702-.675 1.283-1.23 1.543-1.341.618-3.05.364-4.486.467-3.216.232-6.368.942-9.55 1.405-3.115.455-6.33.341-9.381 1.186-1.48.41-2.903.997-4.359 1.485a19.372 19.372 0 01-4.819.97c-1.698.12-3.405.149-5.083.455-1.555.28-3.007.921-4.524 1.34-.98.272-.564 1.796.42 1.524l.007.001z"/><path d="M55.047 25.702c3.67.815 6.754-1.81 10.311-1.995 2.122-.11 4.126.31 6.235-.175 1.968-.459 3.854-1.21 5.83-1.655a38.773 38.773 0 016.424-.818c2.017-.112 3.974-.314 5.84-1.134.856-.374 1.672-.838 2.536-1.193 1.03-.421 2.118-.681 3.19-.964 1.755-.46 3.478-1.006 4.904-2.162 1.352-1.097 2.524-2.952 2.085-4.77-.197-.812-.745-1.429-1.432-1.876-.569-.37-1.652-1.001-2.342-.726-.315.125-.597.39-.58.762a.932.932 0 00.476.824c.311.175.701.124.957-.125l.051-.042c.775-.662-.351-1.777-1.117-1.118l-.05.044.956-.123-.08-.053.391.681v-.088l-.58.76c-.164.068-.041-.022.115.07.156.09.33.131.483.207.302.13.582.308.829.526.656.645.444 1.66.056 2.4-.713 1.36-2.16 2.201-3.56 2.7-1.647.588-3.389.857-5.02 1.493-1.632.636-3.082 1.58-4.793 1.96-1.775.393-3.614.342-5.417.504-1.812.16-3.61.457-5.378.886-1.756.429-3.435 1.094-5.19 1.505-1.853.432-3.627.088-5.494.116-1.733.025-3.354.603-4.97 1.175-1.66.588-3.46 1.282-5.243.878-.99-.22-1.414 1.303-.42 1.524l-.003.002z"/><path d="M90.423 18.89a15.34 15.34 0 002.443-4.855c.162-.545-.685-.776-.846-.234a14.64 14.64 0 01-2.355 4.647c-.12.21-.05.477.158.6a.45.45 0 00.6-.158zM98.048 16.002c.6-1.21.992-2.513 1.157-3.853a.44.44 0 00-.439-.44.451.451 0 00-.439.44 10.712 10.712 0 01-1.04 3.41.451.451 0 00.159.6c.21.12.477.05.6-.157h.002zM97.061 9.85c1.138-.583 2.503-.118 3.356.718.727.713 1.846-.404 1.117-1.117-1.382-1.354-3.493-1.877-5.268-.967-.905.465-.106 1.828.799 1.366h-.004z"/></g><g><path d="M97.147 9.132a8.78 8.78 0 01.59-6.23l-2.758.243s-.738 2.675.507 5.362l.43.834s-3.493.203-5.092-2.512l-1.001 2.914s1.43 1.601 5.909.702c0 0-1.52 2.562-.645 4.18.877 1.617 2.757 2.037 2.757 2.037l1.43-2.037s-2.223-.527-2.445-2.283c-.22-1.756 0-2.07 0-2.07s2.833.428 4.277.175c1.443-.253 2.41-2.37 2.41-2.37l-2.038-1.697s-.257 1.786-1.907 2.334c-1.651.548-2.424.418-2.424.418z" fill="#DEE37A"/><path d="M98.129 7.506c-1.366-1.604-1.628-3.808-.843-5.734.383-.941-1.145-1.35-1.524-.42-1.005 2.468-.46 5.268 1.248 7.272.662.775 1.776-.351 1.119-1.118z" fill="#4C4C4C"/><path d="M96.678 2.369a13.847 13.847 0 002.254-.2c.421-.07.656-.592.55-.971-.122-.448-.549-.624-.97-.554-.606.098-1.22.147-1.834.144-1.016 0-1.018 1.581 0 1.581z" fill="#4C4C4C"/><path d="M98.247 1.336a11.392 11.392 0 00-.597 7.578c.261.982 1.786.565 1.522-.42a9.659 9.659 0 01.44-6.36c.401-.924-.96-1.73-1.365-.798z" fill="#4C4C4C"/><path d="M98.549 7.758c-2.036-.396-4.37-.835-5.55-2.737-.535-.863-1.901-.07-1.364.799 1.422 2.293 4 2.976 6.497 3.463.994.193 1.42-1.33.42-1.525h-.003z" fill="#4C4C4C"/><path d="M91.263 5.249l-1.11 2.676c-.165.397.175.864.551.973.453.13.81-.16.971-.553l1.112-2.676c.165-.397-.176-.866-.551-.973-.454-.13-.81.16-.973.553z" fill="#4C4C4C"/><path d="M90.813 9.095a13.74 13.74 0 007.89.244c.984-.26.566-1.784-.42-1.524-2.322.615-4.775.53-7.05-.244-.966-.324-1.382 1.202-.42 1.524z" fill="#4C4C4C"/><path d="M96.875 8.303c-1.083 1.266-1.663 2.94-1.23 4.596a4.34 4.34 0 003.19 3.108c.99.23 1.405-1.294.421-1.524-2.395-.555-2.702-3.381-1.264-5.063.659-.77-.455-1.892-1.117-1.117z" fill="#4C4C4C"/><path d="M99.746 15.6c.507-.637.976-1.302 1.405-1.994.536-.878-.83-1.663-1.364-.799-.354.58-.743 1.14-1.165 1.674-.265.333-.324.792 0 1.118.276.276.852.336 1.12 0h.004z" fill="#4C4C4C"/><path d="M97.276 8.882c-.455 2.211.45 5.125 3.182 5 1.011-.047 1.018-1.628 0-1.58-1.63.073-1.911-1.767-1.658-3 .204-.992-1.319-1.417-1.524-.42z" fill="#4C4C4C"/><path d="M97.802 8.802a5.202 5.202 0 004.503 1.053c1.494-.36 3.006-1.531 2.97-3.19-.023-1.017-1.604-1.02-1.581 0 .023 1.02-1.189 1.58-2.053 1.717a3.526 3.526 0 01-2.722-.69c-.787-.627-1.912.483-1.117 1.117v-.007z" fill="#4C4C4C"/><path d="M104.79 5.795l-1.307-1.029c-.335-.263-.79-.327-1.117 0-.275.274-.338.852 0 1.117l1.307 1.029c.335.263.79.327 1.117 0 .276-.274.339-.852 0-1.117z" fill="#4C4C4C"/><path d="M98.485 8.48c2.067.2 4.03-.941 4.877-2.836.411-.92-.95-1.724-1.366-.797-.65 1.45-1.92 2.197-3.512 2.053-1.012-.092-1.007 1.489 0 1.58h.001z" fill="#4C4C4C"/></g></g></svg>