<svg fill="none" xmlns="http://www.w3.org/2000/svg" viewBox="0 0 334 56">
  <path d="M185.037 25.432v-2.461a.59.59 0 0 0-.569-.55h-13.385a.587.587 0 0 0-.572.57v2.426a.593.593 0 0 0 .565.574h4.38a.303.303 0 0 1 .29.292v13.852a.584.584 0 0 0 .562.587h2.924a.586.586 0 0 0 .559-.564V26.211a.3.3 0 0 1 .28-.224h4.4a.597.597 0 0 0 .563-.555" fill="#242E30"/>
  <path d="M192.493 28.779a4.05 4.05 0 0 0-1.765-1.255 7.87 7.87 0 0 0-2.814-.427 9.11 9.11 0 0 0-3.011.504 7.116 7.116 0 0 0-2.112 1.151.59.59 0 0 0 .019.815l1.214 1.24a.591.591 0 0 0 .838 0c.298-.265.629-.49.984-.672a3.871 3.871 0 0 1 1.751-.4 2.71 2.71 0 0 1 1.753.608c.458.378.704 1.053.737 2.137a.301.301 0 0 1-.293.253c-.455 0-.945 0-1.455.026a17.05 17.05 0 0 0-1.89.157c-.618.085-1.229.219-1.826.4a5.43 5.43 0 0 0-1.575.763 3.603 3.603 0 0 0-1.092 1.24c-.283.57-.42 1.201-.401 1.837a3.536 3.536 0 0 0 1.348 2.893c.429.335.919.586 1.442.739a5.83 5.83 0 0 0 1.684.244 5.896 5.896 0 0 0 2.271-.439 3.624 3.624 0 0 0 1.433-1.051h.039a.217.217 0 0 1 .243.04c.039.038.062.09.064.145v.454a.583.583 0 0 0 .562.566h2.454a.586.586 0 0 0 .562-.573V34.36c.01-1.181-.077-2.36-.26-3.527a4.821 4.821 0 0 0-.919-2.015l.015-.039Zm-2.396 7.256c.007.36-.078.716-.248 1.034a2.15 2.15 0 0 1-.672.725 3.4 3.4 0 0 1-.945.436c-.358.107-.729.16-1.102.157-.44 0-.871-.116-1.251-.336a1.1 1.1 0 0 1-.592-1.034 1.247 1.247 0 0 1 .427-1.007c.304-.25.658-.436 1.038-.544.414-.12.84-.194 1.271-.218.448-.026.815-.04 1.102-.04h.674a.3.3 0 0 1 .196.093.299.299 0 0 1 .084.2l.018.534ZM231.236 28.779a4.038 4.038 0 0 0-1.762-1.255 7.888 7.888 0 0 0-2.816-.427 9.151 9.151 0 0 0-3.012.504c-.764.26-1.478.65-2.109 1.151a.584.584 0 0 0 .017.815l1.213 1.24a.599.599 0 0 0 .842 0c.298-.265.628-.491.983-.672a3.865 3.865 0 0 1 1.756-.4 2.682 2.682 0 0 1 1.748.608c.458.378.704 1.053.739 2.137a.302.302 0 0 1-.293.253c-.455 0-.945 0-1.457.026-.632.017-1.263.07-1.89.157-.62.083-1.232.217-1.83.4a5.43 5.43 0 0 0-1.574.763c-.454.325-.826.75-1.089 1.24a3.83 3.83 0 0 0-.403 1.837c-.012.58.112 1.155.364 1.678.233.473.569.888.983 1.215.429.335.919.586 1.442.739a6.046 6.046 0 0 0 3.969-.195 3.602 3.602 0 0 0 1.431-1.051h.038a.222.222 0 0 1 .246.04c.037.04.058.091.061.145v.453a.587.587 0 0 0 .562.567h2.452a.584.584 0 0 0 .564-.573V34.36c.009-1.18-.077-2.36-.257-3.527a4.825 4.825 0 0 0-.923-2.015l.005-.039Zm-2.4 7.256a2.07 2.07 0 0 1-.246 1.034c-.163.292-.394.54-.674.725-.29.193-.609.34-.944.436-.358.107-.73.16-1.103.157a2.49 2.49 0 0 1-1.247-.336 1.102 1.102 0 0 1-.595-1.034 1.248 1.248 0 0 1 .428-1.007 2.86 2.86 0 0 1 1.036-.544c.415-.12.843-.194 1.274-.218.449-.027.818-.04 1.103-.04h.674a.296.296 0 0 1 .278.292l.016.535ZM264.673 28.779a4.05 4.05 0 0 0-1.765-1.255 7.87 7.87 0 0 0-2.814-.427 9.13 9.13 0 0 0-3.008.504c-.766.26-1.482.65-2.116 1.151a.585.585 0 0 0 .02.815l1.213 1.24a.599.599 0 0 0 .842 0c.3-.265.631-.491.988-.672a3.85 3.85 0 0 1 1.752-.4 2.695 2.695 0 0 1 1.748.608c.459.378.701 1.053.737 2.137a.294.294 0 0 1-.296.253c-.452 0-.945 0-1.452.026a16.94 16.94 0 0 0-1.889.157c-.62.085-1.232.219-1.83.4a5.43 5.43 0 0 0-1.575.763 3.567 3.567 0 0 0-1.088 1.24c-.285.57-.424 1.2-.403 1.837-.014.58.111 1.155.363 1.678.232.475.569.89.986 1.215.43.338.92.59 1.446.743a6.052 6.052 0 0 0 3.971-.194 3.551 3.551 0 0 0 1.432-1.051h.038a.217.217 0 0 1 .242.04.22.22 0 0 1 .045.067c.01.024.015.05.015.078v.453a.594.594 0 0 0 .567.566h2.449a.592.592 0 0 0 .57-.572v-5.82c.008-1.18-.08-2.36-.263-3.526a4.838 4.838 0 0 0-.92-2.015l-.005-.039Zm-2.395 7.256c.011.36-.072.717-.242 1.034-.165.29-.395.539-.673.725-.29.193-.609.34-.945.436a3.79 3.79 0 0 1-1.102.157c-.438 0-.869-.116-1.247-.336a1.102 1.102 0 0 1-.595-1.034 1.246 1.246 0 0 1 .426-1.007 2.87 2.87 0 0 1 1.038-.544 5.77 5.77 0 0 1 1.274-.218c.438-.027.808-.04 1.102-.04h.674a.3.3 0 0 1 .197.092c.051.054.08.126.081.2l.012.535ZM218.498 28.895a5.167 5.167 0 0 0-1.866-1.341 6.324 6.324 0 0 0-2.449-.471 8.068 8.068 0 0 0-2.74.47 6.682 6.682 0 0 0-2.23 1.342 6.316 6.316 0 0 0-1.493 2.082 9.003 9.003 0 0 0 0 6.175 6.193 6.193 0 0 0 1.493 2.078 6.513 6.513 0 0 0 2.23 1.343 7.914 7.914 0 0 0 2.74.47c1.021 0 2.03-.22 2.957-.646a6.2 6.2 0 0 0 1.937-1.343.587.587 0 0 0 0-.796l-1.757-1.297-.128-.091a.598.598 0 0 0-.712.094 4.45 4.45 0 0 1-.837.719 2.96 2.96 0 0 1-1.621.423 2.888 2.888 0 0 1-1.924-.671 3.5 3.5 0 0 1-.994-2.233.29.29 0 0 1 .243-.285h8.211a.592.592 0 0 0 .559-.587v-.642a8.258 8.258 0 0 0-.415-2.714 6.049 6.049 0 0 0-1.182-2.082l-.022.003Zm-2.577 3.354H211.4a.296.296 0 0 1-.293-.279c.037-.211.1-.418.189-.613.129-.283.315-.537.547-.745.246-.228.53-.409.841-.535a2.962 2.962 0 0 1 1.143-.204 2.303 2.303 0 0 1 1.732.698c.375.375.603.871.644 1.4a.298.298 0 0 1-.296.278" fill="#242E30"/>
  <path d="m203.57 34.25-.088-.121a.58.58 0 0 1 0-.6l4.547-5.64a.287.287 0 0 0 .043-.306.285.285 0 0 0-.262-.164h-3.575a1.189 1.189 0 0 0-.945.462l-.195.248-3.492 4.472-.045.053-.029.027h-.023a.216.216 0 0 1-.243-.04.234.234 0 0 1-.056-.108v-10.8a.592.592 0 0 0-.55-.557h-2.801a.596.596 0 0 0-.55.568v18.41a.587.587 0 0 0 .562.563h2.767a.59.59 0 0 0 .562-.554v-5.212a.216.216 0 0 1 .057-.108.214.214 0 0 1 .242-.04h.024a.058.058 0 0 1 .028.027v.016l.07.082 3.393 5.08.196.248a1.186 1.186 0 0 0 .926.46h3.779a.212.212 0 0 0 .112-.054.293.293 0 0 0 .087-.157.282.282 0 0 0-.023-.179l-4.518-6.076ZM253.937 28.346c.045-.125.068-.258.067-.39a.416.416 0 0 0 0-.071.59.59 0 0 0-.549-.471h-2.221a1.184 1.184 0 0 0-1.162.93l-.071.265-1.872 6.849a.273.273 0 0 1-.183.09.254.254 0 0 1-.209-.137l-.024-.11-1.869-6.918-.03-.123a1.188 1.188 0 0 0-1.136-.826h-2.412a1.19 1.19 0 0 0-1.162.92v.063l-.051.208-1.705 6.82a.23.23 0 0 1-.14.108.227.227 0 0 1-.257-.108l-2.022-6.826-.098-.314a.21.21 0 0 0 0-.061 1.19 1.19 0 0 0-1.127-.802h-2.446a.597.597 0 0 0-.549.47 1.181 1.181 0 0 0 .067.464l4.022 11.58a.749.749 0 0 0 .054.129 1.174 1.174 0 0 0 .97.67h2.362a1.197 1.197 0 0 0 1.047-.832l.098-.336 1.853-6.64a.247.247 0 0 1 .183-.097.257.257 0 0 1 .184.1l2.126 6.767c.04.129.088.254.145.376a1.177 1.177 0 0 0 .97.671h2.298a1.16 1.16 0 0 0 .967-.672c.027-.05.108-.274.157-.425l3.78-11.197a.159.159 0 0 1 .02-.07M279.594 27.875a.702.702 0 0 1-.029-.1.606.606 0 0 0-.509-.356h-2.362a1.188 1.188 0 0 0-1.082.798l-.016.062c-.011.032-.02.064-.028.097l-.07.224-2.146 6.994-.03.085a.28.28 0 0 1-.283.209.285.285 0 0 1-.273-.182l-2.554-7.109-.03-.091-.172-.48a1.189 1.189 0 0 0-1.011-.613h-2.664a.596.596 0 0 0-.432.335.514.514 0 0 0-.031.094.64.64 0 0 0 .02.305l5.081 12.332c.077.258.062.536-.045.784v.038l-.092.232c-.136.334-.267.643-.388.905a2.385 2.385 0 0 1-.452.672 1.77 1.77 0 0 1-.691.412 3.35 3.35 0 0 1-1.065.145h-1.683a.591.591 0 0 0-.573.574v2.107a.59.59 0 0 0 .576.574h2.255a7.66 7.66 0 0 0 2.257-.271 3.626 3.626 0 0 0 1.417-.802c.384-.374.696-.815.92-1.302.242-.523.493-1.118.751-1.786l5.438-14.644a.605.605 0 0 0 0-.232M279.059 38.022a1.314 1.314 0 0 0-1.011.43 1.418 1.418 0 0 0 1.013 2.42c.377-.002.739-.152 1.006-.419l.033-.031a1.425 1.425 0 0 0 0-1.97 1.322 1.322 0 0 0-1.011-.43M303.281 28.91a6.105 6.105 0 0 0-2.074-1.323 7.562 7.562 0 0 0-5.246 0 6.05 6.05 0 0 0-2.072 1.322 6.103 6.103 0 0 0-1.348 2.015c-.337.784-.498 2.331-.498 3.294a8.553 8.553 0 0 0 .498 2.981 5.993 5.993 0 0 0 3.436 3.356 7.558 7.558 0 0 0 5.245 0 6.106 6.106 0 0 0 2.081-1.332 6.183 6.183 0 0 0 1.348-2.012c.34-.957.508-1.966.497-2.981 0-.96-.168-2.51-.497-3.295a6.19 6.19 0 0 0-1.348-2.015l-.022-.01Zm-.641 7.452a4.126 4.126 0 0 1-.881 1.44c-.39.41-.858.74-1.377.966a4.802 4.802 0 0 1-3.591 0 4.349 4.349 0 0 1-1.378-.966 4.202 4.202 0 0 1-.875-1.44 7.258 7.258 0 0 1-.315-2.156 9.487 9.487 0 0 1 .315-2.47 4.093 4.093 0 0 1 2.248-2.397 4.714 4.714 0 0 1 3.591 0 4.105 4.105 0 0 1 2.258 2.404c.205.807.305 1.637.299 2.47a7.418 7.418 0 0 1-.299 2.155M283.974 30.332c.35-.425.796-.762 1.301-.983a4.42 4.42 0 0 1 1.804-.336 4.01 4.01 0 0 1 1.685.336 3.9 3.9 0 0 1 1.062.756.597.597 0 0 0 .771.015l.745-.671a.588.588 0 0 0 .06-.805 5.516 5.516 0 0 0-1.732-1.067 7.087 7.087 0 0 0-2.587-.47 6.67 6.67 0 0 0-2.582.486 5.968 5.968 0 0 0-2.022 1.343 6.044 6.044 0 0 0-1.296 2.04 10.69 10.69 0 0 0 0 6.192 6.076 6.076 0 0 0 1.287 2.04 5.58 5.58 0 0 0 2.005 1.343 7.22 7.22 0 0 0 5.14 0 5.189 5.189 0 0 0 1.715-1.099.589.589 0 0 0-.03-.784l-.63-.615a.6.6 0 0 0-.806 0 3.666 3.666 0 0 1-2.769 1.098 4.068 4.068 0 0 1-1.705-.353 3.824 3.824 0 0 1-1.3-.987 4.728 4.728 0 0 1-.839-1.45 8.355 8.355 0 0 1-.299-2.285 9.616 9.616 0 0 1 .261-2.286 4.38 4.38 0 0 1 .762-1.46M324.651 30.123a4.08 4.08 0 0 0-.788-1.617 3.5 3.5 0 0 0-1.441-1.007 5.953 5.953 0 0 0-2.204-.355 4.01 4.01 0 0 0-2.309.614 5.349 5.349 0 0 0-1.299 1.302l-.062.088-.03.044a.2.2 0 0 1-.157.066.21.21 0 0 1-.189-.113c0-.024-.038-.062-.055-.098-.06-.099-.121-.199-.184-.314a2.99 2.99 0 0 0-.695-.759 4.189 4.189 0 0 0-1.115-.6 5.451 5.451 0 0 0-3.082-.051 4.644 4.644 0 0 0-1.179.524 4.028 4.028 0 0 0-.907.742c-.087.097-.158.195-.24.295l-.023.027a.113.113 0 0 1-.03.04.213.213 0 0 1-.211.055.213.213 0 0 1-.147-.16v-.848a.586.586 0 0 0-.571-.566h-.739a.59.59 0 0 0-.568.583v12.118a.587.587 0 0 0 .574.58h.887a.601.601 0 0 0 .58-.594v-6.41a7.678 7.678 0 0 1 .222-1.91 4.333 4.333 0 0 1 .674-1.487 3.062 3.062 0 0 1 1.184-.973 4.027 4.027 0 0 1 1.721-.336c.84 0 1.443.283 1.809.85.367.565.55 1.527.55 2.886v7.385a.594.594 0 0 0 .58.587h.888a.6.6 0 0 0 .579-.595v-7.498a4.09 4.09 0 0 1 .251-1.473 3.4 3.4 0 0 1 .672-1.138c.283-.31.628-.56 1.011-.732a2.957 2.957 0 0 1 1.233-.262 3.261 3.261 0 0 1 1.469.288c.363.175.678.434.917.757.229.322.39.687.472 1.073.085.403.128.813.128 1.225v7.787a.591.591 0 0 0 .579.577h.886a.594.594 0 0 0 .579-.593v-7.874a8.844 8.844 0 0 0-.231-2.133M61.032 22.436h-4.997c-1.62 0-1.62 0-1.957 1.883-.337 1.882-.339 1.951 1.148 1.951h2.97l-1.688 9.62c-.405 2.152-1.35 3.632-4.252 4.507-.743.2-.945.47-.945.806 0 .405.134.74.472 1.547.473 1.144.744 1.346 1.148 1.346.405 0 1.149-.202 1.418-.268 4.12-1.346 5.808-4.507 6.482-8.274l1.89-10.826c.336-2.292.336-2.292-1.689-2.292ZM77.98 22.436c-2.025 0-2.025 0-2.296 1.68l-1.485 8.747c-.405 2.556-1.08 4.035-3.578 4.035-2.431 0-3.307-1.48-2.904-3.765l1.416-8.344c.406-2.353.339-2.353-1.754-2.353-2.027 0-2.095 0-2.363 1.614l-1.485 8.74c-.878 4.979 2.227 8.073 6.614 8.073 4.93 0 7.427-2.22 8.238-7.467l1.485-8.679c.337-2.286.202-2.286-1.89-2.286M87.23 36.762c1.622-.066 2.5-.807 2.5-1.547 0-.942-1.149-1.277-2.701-1.75-3.04-.94-5.808-2.017-5.808-5.246 0-3.835 3.175-5.92 7.157-5.92 1.688 0 3.58.068 4.795.201 1.08.135 1.35.47 1.013 2.153-.337 1.682-.743 1.817-1.688 1.75-1.148-.068-2.633-.202-4.389-.202-2.025 0-2.633.74-2.633 1.412 0 .874.81 1.346 2.7 1.883 3.51 1.009 5.807 2.42 5.807 5.449 0 3.565-2.633 5.648-6.887 5.785a33.754 33.754 0 0 1-6.077-.336c-1.35-.203-1.417-.203-1.08-2.153.337-1.75.337-1.883 1.62-1.75 2.498.27 4.05.337 5.67.27M109.31 22.436H97.9c-1.621 0-1.621 0-1.958 1.95-.337 1.95-.27 1.95 1.148 1.95h3.713l-2.093 12.04c-.406 2.354-.338 2.354 1.755 2.354 1.959 0 2.026 0 2.296-1.682l2.16-12.709h3.581c1.621 0 1.621 0 1.958-1.95.337-1.95.337-1.953-1.15-1.953ZM129.433 26.269c1.62 0 1.62 0 1.957-1.952.337-1.952.339-1.95-1.148-1.95h-8.17c-2.904 0-2.834 0-3.307 2.891l-2.094 12.177c-.54 3.161-.473 3.161 2.431 3.161h7.967c1.688 0 1.621 0 1.959-1.883.337-1.951.337-1.951-1.148-1.951h-6.888l.54-3.5h5.74c1.553 0 1.553 0 1.822-1.817.271-1.883.271-1.883-1.822-1.883h-5.069l.54-3.295 6.69.002ZM138.075 32.726l2.633-5.786c.203-.47.203-.47.54-.47s.339 0 .407.538l.809 5.718h-4.389Zm7.158-8.073c-.405-2.286-.405-2.286-3.646-2.286-3.039 0-2.972 0-3.916 1.882l-6.821 14.19c-1.012 2.02-.809 2.22 1.688 2.22 1.959 0 1.959 0 2.769-1.815l1.08-2.423h6.614l.339 2.423c.269 1.815.337 1.815 2.294 1.815 2.228 0 2.432-.133 2.027-2.353l-2.428-13.653ZM161.371 22.436h-11.479c-1.62 0-1.62 0-1.959 1.95-.338 1.95-.269 1.95 1.148 1.95h3.714l-2.088 12.04c-.405 2.354-.337 2.354 1.755 2.354 1.958 0 2.026 0 2.296-1.682l2.161-12.709h3.578c1.62 0 1.62 0 1.959-1.95.405-1.95.405-1.95-1.08-1.95M44.536 26.708c-.111-.29-1.66-3.138-4.532-6.71a.573.573 0 0 1-.132-.305 56.335 56.335 0 0 0-.866-6.2 1.007 1.007 0 0 0-.877-.785l-2.992-.359a.45.45 0 0 0-.08 0 .63.63 0 0 0-.63.628v1.032a.038.038 0 0 1-.037.038.036.036 0 0 1-.025-.01A41.97 41.97 0 0 0 28.346 9.5a2.653 2.653 0 0 0-1.479-.446 2.653 2.653 0 0 0-1.478.446C15.08 15.846 9.408 26.143 9.189 26.708a1.013 1.013 0 0 0 .672 1.42l2.969.57a1.018 1.018 0 0 1 .742.864c.023.522.585 12.184 1.29 15.21a1.02 1.02 0 0 0 .988.757h.022c1.733-.044 3.318-.072 5.04-.096h.141a.336.336 0 0 0 .332-.332v-.008c-.07-1.019-.22-3.347-.341-5.805 0-.061-.008-.138-.011-.201a.626.626 0 0 0-.309-.491 3.197 3.197 0 0 1-1.557-2.576c-.158-4.089-.235-8.816-.011-12.514a.594.594 0 0 1 .608-.583.599.599 0 0 1 .585.606v.047c-.146 2.465-.157 5.38-.107 8.256a.706.706 0 0 0 .992.635.71.71 0 0 0 .425-.66c-.053-2.895-.037-5.829.112-8.301a.595.595 0 0 1 .837-.533.598.598 0 0 1 .357.556v.047c-.145 2.453-.157 5.35-.107 8.21a.705.705 0 0 0 .72.696.71.71 0 0 0 .697-.717c-.053-2.883-.038-5.805.112-8.26a.592.592 0 0 1 .38-.543.599.599 0 0 1 .814.566v.047c-.213 3.596-.144 8.146 0 12.139v.138a3.178 3.178 0 0 1-1.39 2.63.617.617 0 0 0-.264.464s-.072.613.199 3.583c.127 1.298.223 2.197.269 2.603a.313.313 0 0 0 .315.273h4.504l1.683.014a.315.315 0 0 0 .315-.276c.39-3.56.482-5.56.482-5.56a.352.352 0 0 0-.315-.342l-2.047-.281a.699.699 0 0 1-.586-.5.958.958 0 0 1-.025-.313c.817-11.872 4.743-15.868 4.743-15.868.058-.058.122-.111.19-.157a.63.63 0 0 1 .956.28c.029.092.045.188.05.285.34 3.73.174 10.077-.035 15.029-.178 4.203-.394 7.502-.394 7.502a.244.244 0 0 0 .246.245c1.115.019 2.204.04 3.376.07h.022a1.026 1.026 0 0 0 .989-.757c.704-3.025 1.26-14.687 1.29-15.21a1.008 1.008 0 0 1 .741-.864l2.969-.57a1.022 1.022 0 0 0 .77-.985c0-.15-.033-.299-.098-.434v-.005Z" fill="#242E30"/>
</svg>
