<svg fill="none" xmlns="http://www.w3.org/2000/svg" viewBox="0 0 133 56">
  <path d="M43.112 25.968c-.109-.282-1.61-3.052-4.395-6.528a.562.562 0 0 1-.129-.296c-.169-2.02-.449-4.03-.84-6.019a.98.98 0 0 0-.85-.763l-2.902-.351a.65.65 0 0 0-.076 0 .611.611 0 0 0-.61.61v1.005c0 .01-.005.019-.012.026a.036.036 0 0 1-.026.01.035.035 0 0 1-.024-.009 40.81 40.81 0 0 0-5.847-4.409 2.566 2.566 0 0 0-1.434-.433c-.51-.002-1.01.15-1.434.433-9.986 6.15-15.486 16.173-15.699 16.724a.988.988 0 0 0 .652 1.373l2.883.562a.987.987 0 0 1 .72.84c.023.508.568 11.853 1.25 14.796a.99.99 0 0 0 .96.735h.02c1.68-.04 3.219-.068 4.888-.091h.137a.326.326 0 0 0 .322-.324v-.007c-.067-.99-.213-3.256-.331-5.647 0-.06-.008-.135-.01-.196a.609.609 0 0 0-.294-.49 3.109 3.109 0 0 1-1.51-2.505c-.153-3.98-.228-8.576-.011-12.175a.579.579 0 0 1 1.158.025v.045c-.142 2.398-.153 5.234-.104 8.031a.687.687 0 0 0 1.374-.024c-.052-2.816-.037-5.67.109-8.077a.579.579 0 0 1 1.157.025v.045c-.14 2.386-.153 5.203-.104 7.987a.687.687 0 0 0 1.375-.021c-.052-2.804-.037-5.647.108-8.037a.578.578 0 1 1 1.158.024v.046c-.207 3.496-.14 7.924 0 11.808v.134a3.101 3.101 0 0 1-1.347 2.56.598.598 0 0 0-.257.457s-.07.597.193 3.486c.123 1.262.216 2.137.26 2.532a.305.305 0 0 0 .306.266h4.368l1.632.013a.305.305 0 0 0 .305-.268c.38-3.463.468-5.409.468-5.409a.343.343 0 0 0-.306-.333l-1.985-.273a.677.677 0 0 1-.585-.49.926.926 0 0 1-.024-.305c.805-11.544 4.612-15.434 4.612-15.434.056-.057.118-.109.184-.153a.612.612 0 0 1 .927.272c.028.09.044.183.05.278.328 3.627.167 9.802-.036 14.619a355.565 355.565 0 0 1-.382 7.298.24.24 0 0 0 .239.238c1.08.018 2.138.04 3.274.067h.014a.992.992 0 0 0 .958-.735c.683-2.943 1.222-14.288 1.251-14.797a.986.986 0 0 1 .72-.839l2.873-.551a.99.99 0 0 0 .652-1.373l.007-.008ZM54.365 21.99h-2.407c-.782 0-.782 0-.944.915-.162.915-.163.943.553.943H53l-.814 4.652c-.196 1.04-.65 1.756-2.051 2.18-.358.097-.458.228-.458.39 0 .195.064.358.227.75.228.552.357.65.553.65.232-.022.46-.066.684-.13 1.985-.652 2.8-2.181 3.125-4.002l.916-5.238c.163-1.106.163-1.106-.814-1.106M62.538 21.99c-.977 0-.977 0-1.107.813l-.716 4.229c-.196 1.236-.521 1.952-1.726 1.952-1.171 0-1.594-.716-1.399-1.823l.683-4.033c.195-1.139.163-1.139-.846-1.139-.976 0-1.01 0-1.14.781L55.572 27c-.423 2.406 1.07 3.904 3.19 3.904 2.377 0 3.581-1.069 3.97-3.611l.717-4.197c.162-1.107.098-1.107-.916-1.107M66.997 28.918c.782-.032 1.205-.39 1.205-.748 0-.458-.554-.618-1.303-.845-1.464-.458-2.799-.977-2.799-2.538 0-1.855 1.527-2.863 3.45-2.863.814 0 1.725.033 2.312.097.52.066.65.23.489 1.041-.162.812-.36.88-.814.847-.555-.034-1.27-.098-2.117-.098-.976 0-1.269.358-1.269.683 0 .422.391.651 1.303.915 1.692.489 2.799 1.172 2.799 2.636 0 1.724-1.27 2.732-3.322 2.797-.979.034-1.96-.022-2.929-.166-.65-.098-.684-.098-.52-1.04.163-.846.163-.916.782-.846.906.115 1.82.159 2.733.13M77.642 21.99h-5.497c-.782 0-.782 0-.944.942-.162.944-.13.944.553.944h1.791l-1.008 5.823c-.195 1.139-.163 1.139.846 1.139.944 0 .978 0 1.108-.814l1.041-6.149h1.726c.78 0 .78 0 .943-.943.164-.943.164-.943-.552-.943M87.35 23.843c.78 0 .78 0 .944-.943.163-.943.163-.943-.553-.943h-3.94c-1.398 0-1.374 0-1.594 1.398l-1.01 5.89c-.26 1.526-.227 1.526 1.172 1.526h3.842c.814 0 .78 0 .944-.916.163-.945.163-.945-.553-.945h-3.329l.26-1.683H86.3c.748 0 .748 0 .878-.879.131-.916.131-.916-.878-.916h-2.444l.262-1.595 3.232.006ZM91.509 26.966l1.27-2.797c.098-.228.098-.228.26-.228s.163 0 .195.26l.391 2.765H91.51Zm3.45-3.904c-.195-1.105-.195-1.105-1.757-1.105-1.464 0-1.432 0-1.889.916l-3.288 6.868c-.487.976-.39 1.068.814 1.068.945 0 .945 0 1.335-.88l.52-1.17h3.19l.164 1.17c.13.88.164.88 1.107.88 1.07 0 1.172-.066.976-1.139l-1.171-6.608ZM102.739 21.99h-5.533c-.782 0-.782 0-.944.942-.161.944-.13.944.553.944h1.79l-1.01 5.823c-.193 1.139-.161 1.139.848 1.139.944 0 .976 0 1.106-.814l1.043-6.149h1.724c.782 0 .782 0 .945-.943.194-.943.194-.943-.522-.943ZM56.69 36.78v-1.19a.287.287 0 0 0-.276-.265h-6.456a.285.285 0 0 0-.277.276v1.17a.288.288 0 0 0 .274.279h2.12a.153.153 0 0 1 .14.14v6.701a.286.286 0 0 0 .27.284h1.411a.28.28 0 0 0 .269-.273v-6.744a.153.153 0 0 1 .136-.108h2.12a.288.288 0 0 0 .265-.27" fill="#242E30"/>
  <path d="M60.284 38.4a1.957 1.957 0 0 0-.85-.61 3.768 3.768 0 0 0-1.358-.206 4.362 4.362 0 0 0-1.453.244 3.464 3.464 0 0 0-1.018.555.287.287 0 0 0 .01.396l.582.596a.284.284 0 0 0 .404 0c.143-.127.302-.236.473-.323.262-.13.552-.197.845-.194.308-.005.607.1.846.295.22.183.338.51.355 1.033a.152.152 0 0 1-.142.122c-.22 0-.458 0-.702.014a8.004 8.004 0 0 0-.916.074 5.42 5.42 0 0 0-.88.193c-.273.08-.531.205-.764.369-.22.157-.4.362-.526.6-.136.276-.202.58-.193.888-.007.28.053.56.176.812.11.23.273.43.473.588.207.162.444.283.697.357a2.87 2.87 0 0 0 1.907-.093c.269-.11.506-.285.69-.509h.02a.102.102 0 0 1 .116.019.096.096 0 0 1 .03.07v.22a.286.286 0 0 0 .272.274h1.182a.283.283 0 0 0 .272-.277v-2.804a10.469 10.469 0 0 0-.125-1.706 2.329 2.329 0 0 0-.443-.974l.02-.023Zm-1.168 3.512c.004.174-.037.347-.12.5-.079.14-.19.26-.325.35-.14.095-.295.166-.458.212-.172.05-.351.076-.531.076-.212 0-.42-.056-.602-.163a.532.532 0 0 1-.287-.499.61.61 0 0 1 .208-.488c.146-.121.316-.21.5-.263.198-.058.403-.093.61-.105.217-.014.394-.02.531-.02h.326a.153.153 0 0 1 .134.142l.014.258ZM78.966 38.4a1.938 1.938 0 0 0-.849-.61 3.768 3.768 0 0 0-1.357-.206 4.367 4.367 0 0 0-1.454.244 3.42 3.42 0 0 0-1.017.555.285.285 0 0 0 .01.396l.584.598a.284.284 0 0 0 .406 0c.144-.127.303-.236.474-.324.263-.13.553-.197.847-.194.307-.005.606.1.843.295.22.183.34.51.356 1.033a.144.144 0 0 1-.142.122c-.218 0-.458 0-.701.014a7.963 7.963 0 0 0-.916.075c-.3.04-.594.104-.883.192-.273.081-.53.206-.764.37a1.737 1.737 0 0 0-.523.6 1.87 1.87 0 0 0-.196.888 1.707 1.707 0 0 0 .65 1.4c.207.161.443.283.696.356.63.187 1.304.154 1.913-.093a1.74 1.74 0 0 0 .69-.508h.019a.11.11 0 0 1 .119.018.12.12 0 0 1 .029.07v.22a.284.284 0 0 0 .27.275h1.187a.284.284 0 0 0 .271-.278v-2.805a10.65 10.65 0 0 0-.123-1.706 2.353 2.353 0 0 0-.446-.974l.007-.023Zm-1.162 3.512a.971.971 0 0 1-.444.85c-.14.095-.295.167-.458.212-.172.051-.35.077-.53.076-.212 0-.42-.056-.602-.163a.532.532 0 0 1-.287-.499.6.6 0 0 1 .206-.488c.147-.121.317-.21.5-.263.199-.057.404-.093.61-.105.216-.014.393-.02.53-.02h.326a.153.153 0 0 1 .136.142l.013.258ZM95.091 38.4a1.96 1.96 0 0 0-.852-.61 3.756 3.756 0 0 0-1.356-.206 4.353 4.353 0 0 0-1.45.244c-.37.125-.715.313-1.02.555a.288.288 0 0 0 .008.396l.585.598a.287.287 0 0 0 .406 0 2.34 2.34 0 0 1 .477-.324c.262-.13.551-.197.844-.194.307-.005.606.1.843.295.222.183.34.51.356 1.033a.143.143 0 0 1-.142.122c-.218 0-.458 0-.7.014a7.983 7.983 0 0 0-.917.075c-.299.04-.593.104-.881.192-.273.08-.531.205-.764.37-.22.156-.4.361-.525.6a1.85 1.85 0 0 0-.194.887c-.006.281.054.56.176.812.11.23.273.431.475.588.205.162.44.283.691.357a2.918 2.918 0 0 0 1.917-.093c.269-.109.506-.283.69-.508h.018a.102.102 0 0 1 .116.018.104.104 0 0 1 .03.07v.22a.289.289 0 0 0 .273.275h1.18a.286.286 0 0 0 .275-.278v-2.805a10.47 10.47 0 0 0-.127-1.706 2.329 2.329 0 0 0-.442-.974l.01-.023Zm-1.168 3.512c.005.174-.035.346-.116.5-.08.14-.191.26-.325.35-.141.094-.296.165-.459.212a1.839 1.839 0 0 1-.53.076c-.212 0-.42-.056-.601-.163a.534.534 0 0 1-.289-.499.61.61 0 0 1 .207-.488c.147-.121.317-.21.5-.263.2-.057.404-.093.611-.105.232-.02.405-.02.538-.02h.325a.143.143 0 0 1 .133.142l.006.258ZM72.825 38.46a2.48 2.48 0 0 0-.9-.649 3.055 3.055 0 0 0-1.182-.224 3.857 3.857 0 0 0-1.32.224 3.207 3.207 0 0 0-1.07.649 3.023 3.023 0 0 0-.72 1.007 4.366 4.366 0 0 0 0 2.987c.168.381.413.724.72 1.005.31.286.673.507 1.07.65.423.152.87.228 1.32.225.493 0 .98-.107 1.426-.313a3.01 3.01 0 0 0 .935-.65.285.285 0 0 0 0-.385l-.852-.624-.061-.044a.282.282 0 0 0-.342.046c-.12.131-.256.248-.405.346a1.422 1.422 0 0 1-.782.205 1.39 1.39 0 0 1-.928-.324 1.694 1.694 0 0 1-.478-1.08.138.138 0 0 1 .116-.138h3.96a.286.286 0 0 0 .274-.288v-.306c.008-.445-.059-.889-.198-1.312a2.948 2.948 0 0 0-.571-1.007h-.013Zm-1.24 1.623h-2.187a.143.143 0 0 1-.14-.134 1.101 1.101 0 0 1 .354-.665c.118-.11.255-.198.406-.258.174-.07.361-.104.55-.1a1.106 1.106 0 0 1 1.142 1.016.153.153 0 0 1-.142.134" fill="#242E30"/>
  <path d="m65.626 41.054-.043-.058a.286.286 0 0 1 0-.291l2.188-2.728a.144.144 0 0 0-.012-.196.152.152 0 0 0-.093-.032h-1.724a.57.57 0 0 0-.458.224l-.095.119-1.68 2.164-.023.026-.006.01h-.01a.106.106 0 0 1-.118-.02.106.106 0 0 1-.027-.053v-5.227a.286.286 0 0 0-.265-.27h-1.347a.291.291 0 0 0-.265.275v8.905a.287.287 0 0 0 .271.273h1.334a.284.284 0 0 0 .272-.268v-2.522a.114.114 0 0 1 .027-.052.105.105 0 0 1 .117-.02h.011c.006.004.011.008.014.014l.034.04 1.632 2.463.095.12a.571.571 0 0 0 .447.224h1.82a.098.098 0 0 0 .054-.026.139.139 0 0 0 .032-.164l-2.182-2.93ZM89.913 38.191a.537.537 0 0 0 .033-.19v-.033a.287.287 0 0 0-.265-.227h-1.07a.573.573 0 0 0-.56.458l-.033.128-.904 3.31a.134.134 0 0 1-.087.044.128.128 0 0 1-.101-.067l-.016-.052-.9-3.346-.016-.06a.577.577 0 0 0-.546-.4h-1.164a.576.576 0 0 0-.56.446v.03l-.025.101-.822 3.3a.11.11 0 0 1-.152.04.153.153 0 0 1-.041-.04l-.975-3.303-.047-.153a.094.094 0 0 0 0-.029.577.577 0 0 0-.544-.389H79.94a.29.29 0 0 0-.265.228v.036c0 .064.011.127.032.188l1.944 5.59a.566.566 0 0 0 .493.388h1.138a.578.578 0 0 0 .505-.403l.046-.163.896-3.205a.12.12 0 0 1 .087-.048.132.132 0 0 1 .09.05l1.025 3.273c.019.062.042.123.07.182a.565.565 0 0 0 .468.325h1.108a.561.561 0 0 0 .459-.325c.012-.025.051-.133.076-.206l1.819-5.417c0-.012.004-.024.01-.034M102.287 37.964c0-.017-.011-.032-.015-.05a.293.293 0 0 0-.246-.172h-1.136a.577.577 0 0 0-.503.335c0 .016-.014.035-.02.052v.029c0 .015-.009.032-.013.047l-.034.108-1.035 3.385-.014.04a.133.133 0 0 1-.136.1.14.14 0 0 1-.133-.086l-1.238-3.445-.016-.043-.082-.232a.57.57 0 0 0-.487-.297h-1.286a.292.292 0 0 0-.208.162.305.305 0 0 0-.005.198l2.444 5.961a.566.566 0 0 1-.021.379v.018l-.045.111a7.983 7.983 0 0 1-.188.438 1.14 1.14 0 0 1-.212.325.857.857 0 0 1-.333.2 1.63 1.63 0 0 1-.513.07H96a.286.286 0 0 0-.277.278v1.02a.286.286 0 0 0 .278.278h1.086c.368.01.735-.034 1.089-.132.254-.076.487-.21.683-.389.185-.18.335-.393.442-.629.117-.25.239-.539.364-.863l2.622-7.085a.262.262 0 0 0 0-.111ZM102.029 42.872a.63.63 0 0 0-.489.208.69.69 0 0 0 .02.953.686.686 0 0 0 .97-.001.687.687 0 0 0 0-.952.63.63 0 0 0-.487-.208M113.71 38.46a2.985 2.985 0 0 0-1.002-.64 3.642 3.642 0 0 0-2.529 0c-.37.144-.708.361-.991.64-.279.279-.501.61-.651.975-.162.378-.239 1.128-.239 1.592-.007.49.074.978.239 1.44a2.908 2.908 0 0 0 1.657 1.624 3.646 3.646 0 0 0 2.531 0 2.856 2.856 0 0 0 1.649-1.613c.164-.462.246-.949.241-1.44 0-.464-.081-1.22-.241-1.592a2.995 2.995 0 0 0-.649-.974l-.015-.012Zm-.306 3.61a1.982 1.982 0 0 1-1.087 1.165 2.3 2.3 0 0 1-1.733 0 2.104 2.104 0 0 1-.665-.467 2.014 2.014 0 0 1-.421-.697 3.539 3.539 0 0 1-.153-1.043c-.001-.403.05-.805.153-1.195a1.98 1.98 0 0 1 1.086-1.161 2.257 2.257 0 0 1 1.733 0c.25.106.476.262.664.458.188.2.332.437.423.696.102.39.153.791.153 1.195.001.353-.051.704-.153 1.042M104.399 39.151c.169-.205.383-.368.626-.475.276-.114.573-.17.872-.163.279-.005.556.05.811.163.19.092.364.215.513.365a.287.287 0 0 0 .371.008l.359-.324a.287.287 0 0 0 .029-.39 2.675 2.675 0 0 0-.834-.516 3.424 3.424 0 0 0-1.247-.23 3.208 3.208 0 0 0-1.245.234 2.883 2.883 0 0 0-.976.65 2.93 2.93 0 0 0-.624.985 5.181 5.181 0 0 0 0 2.996c.138.367.349.703.62.987.271.284.601.506.966.65a3.473 3.473 0 0 0 2.48 0c.308-.12.588-.3.826-.528a.285.285 0 0 0-.013-.38l-.306-.297a.287.287 0 0 0-.388 0 1.763 1.763 0 0 1-1.334.53 1.956 1.956 0 0 1-.823-.17 1.849 1.849 0 0 1-.625-.475 2.274 2.274 0 0 1-.405-.702 4.086 4.086 0 0 1-.152-1.105 4.736 4.736 0 0 1 .126-1.106c.077-.257.202-.497.368-.707M124.013 39.049a1.944 1.944 0 0 0-.379-.782 1.686 1.686 0 0 0-.696-.488 2.86 2.86 0 0 0-1.069-.17 1.93 1.93 0 0 0-1.112.295 2.587 2.587 0 0 0-.627.63l-.029.043-.016.022a.1.1 0 0 1-.163-.023c0-.013-.018-.03-.026-.048l-.09-.152a1.392 1.392 0 0 0-.335-.367 2.01 2.01 0 0 0-.537-.291 2.62 2.62 0 0 0-1.486-.025 2.277 2.277 0 0 0-.57.254c-.161.098-.308.219-.436.358-.042.048-.08.095-.115.144l-.012.012a.051.051 0 0 1-.014.02.101.101 0 0 1-.172-.05v-.41a.287.287 0 0 0-.277-.275h-.356a.288.288 0 0 0-.275.282v5.865a.29.29 0 0 0 .278.28h.428a.289.289 0 0 0 .279-.286v-3.101a3.84 3.84 0 0 1 .107-.925c.063-.258.173-.502.326-.72.146-.2.342-.361.568-.466.261-.115.545-.17.83-.163.405 0 .697.137.872.41.176.273.266.74.266 1.397v3.572a.286.286 0 0 0 .28.284h.427a.289.289 0 0 0 .28-.287v-3.63a2.035 2.035 0 0 1 .12-.713 1.65 1.65 0 0 1 .326-.551c.136-.15.302-.27.487-.354a1.42 1.42 0 0 1 .594-.127c.244-.009.486.04.708.14.175.084.327.21.443.365.111.157.188.334.229.52.041.196.061.394.061.593v3.766a.287.287 0 0 0 .28.28h.438a.286.286 0 0 0 .28-.287v-3.816a4.315 4.315 0 0 0-.113-1.031" fill="#242E30"/>
</svg>
