<svg fill="none" xmlns="http://www.w3.org/2000/svg" viewBox="0 0 60 56">
  <path d="M41.17 17.178c-.072-.186-1.05-2.01-2.868-4.3a.373.373 0 0 1-.083-.195 36.603 36.603 0 0 0-.548-3.971.648.648 0 0 0-.555-.503l-1.888-.23a.414.414 0 0 0-.05 0 .397.397 0 0 0-.281.118.404.404 0 0 0-.117.284v.663a.024.024 0 0 1-.024.024.023.023 0 0 1-.016-.006 26.646 26.646 0 0 0-3.814-2.905 1.663 1.663 0 0 0-1.87 0c-6.518 4.062-10.105 10.665-10.244 11.028a.657.657 0 0 0 .425.91l1.88.358a.641.641 0 0 1 .47.553c.014.335.37 7.81.815 9.754a.654.654 0 0 0 .625.484h.014c1.096-.027 2.1-.046 3.188-.06H26.318a.214.214 0 0 0 .21-.212v-.013c-.044-.653-.139-2.145-.215-3.716 0-.039-.005-.089-.008-.128a.404.404 0 0 0-.19-.323 2.038 2.038 0 0 1-.697-.701 2.061 2.061 0 0 1-.288-.95c-.1-2.621-.148-5.651-.007-8.021a.383.383 0 0 1 .116-.267.376.376 0 0 1 .64.283v.03c-.093 1.58-.1 3.448-.069 5.291a.454.454 0 0 0 .285.413.445.445 0 0 0 .58-.255.457.457 0 0 0 .032-.174c-.034-1.855-.024-3.735.07-5.321a.383.383 0 0 1 .117-.267.376.376 0 0 1 .639.283v.03c-.092 1.572-.1 3.428-.068 5.262a.454.454 0 0 0 .455.445.446.446 0 0 0 .315-.137.455.455 0 0 0 .126-.322c-.033-1.847-.024-3.72.071-5.295a.383.383 0 0 1 .386-.373.376.376 0 0 1 .343.243.385.385 0 0 1 .026.175c-.134 2.305-.09 5.222 0 7.78v.088a2.06 2.06 0 0 1-.878 1.688.392.392 0 0 0-.168.301s-.045.392.126 2.297c.08.831.141 1.407.17 1.668.006.049.03.093.067.125.037.033.084.05.132.05h2.849l1.065.01a.201.201 0 0 0 .2-.177c.246-2.282.304-3.564.304-3.564a.225.225 0 0 0-.2-.219l-1.294-.18a.439.439 0 0 1-.37-.32.616.616 0 0 1-.017-.202c.525-7.605 3.009-10.168 3.009-10.168a.749.749 0 0 1 .12-.1.397.397 0 0 1 .605.178c.018.06.028.12.032.182.214 2.391.11 6.46-.023 9.633-.113 2.694-.25 4.807-.25 4.807v.005a.158.158 0 0 0 .097.145c.019.007.039.011.059.011.705.012 1.4.027 2.136.045h-.003a.645.645 0 0 0 .625-.484c.445-1.94.797-9.414.816-9.754a.65.65 0 0 1 .47-.553l1.874-.368a.656.656 0 0 0 .487-.632.647.647 0 0 0-.058-.278ZM15.539 33.605h-1.574c-.509 0-.509 0-.615.604-.107.603-.106.62.361.62h.931l-.53 3.066c-.128.685-.426 1.157-1.338 1.436-.234.064-.3.15-.3.257 0 .129.044.236.15.494.149.364.233.428.36.428.152-.014.3-.043.446-.085 1.295-.43 1.827-1.437 2.04-2.637l.597-3.45c.105-.73.105-.73-.531-.73M20.866 33.605c-.637 0-.637 0-.722.536l-.467 2.786c-.127.815-.34 1.287-1.125 1.287-.765 0-1.04-.472-.913-1.201l.446-2.658c.127-.75.105-.75-.552-.75-.637 0-.658 0-.744.515l-.467 2.782c-.276 1.586.697 2.572 2.08 2.572 1.551 0 2.336-.703 2.59-2.379l.468-2.765c.106-.729.063-.729-.598-.729M23.775 38.17c.51-.02.785-.256.785-.492 0-.302-.36-.403-.848-.557-.957-.302-1.827-.644-1.827-1.673 0-1.221.996-1.886 2.251-1.886.53 0 1.126.022 1.507.064.34.044.425.151.319.686-.107.535-.233.58-.531.558-.36-.022-.828-.064-1.38-.064-.637 0-.828.235-.828.45 0 .278.255.429.85.603 1.103.321 1.825.772 1.825 1.736 0 1.136-.828 1.8-2.165 1.843-.64.023-1.28-.013-1.912-.107-.424-.064-.445-.064-.34-.686.107-.557.107-.603.51-.557a11.14 11.14 0 0 0 1.784.085M30.718 33.605h-3.586c-.51 0-.51 0-.616.622-.107.621-.085.621.361.621h1.168l-.659 3.837c-.127.75-.105.75.553.75.616 0 .637 0 .721-.536l.68-4.051h1.125c.51 0 .51 0 .616-.621.105-.622.106-.622-.36-.622M37.045 34.827c.51 0 .51 0 .616-.621.105-.622.106-.622-.36-.622h-2.57c-.913 0-.891 0-1.04.921l-.659 3.88c-.17 1.006-.148 1.006.765 1.006h2.505c.531 0 .51 0 .616-.603.106-.623.106-.623-.36-.623h-2.166l.17-1.114h1.804c.488 0 .488 0 .574-.58.084-.602.084-.602-.574-.602h-1.594l.17-1.051 2.103.009ZM39.764 36.884l.827-1.843c.064-.15.064-.15.17-.15.107 0 .106 0 .128.172l.254 1.821h-1.38Zm2.25-2.572c-.128-.728-.128-.728-1.147-.728-.955 0-.934 0-1.23.603l-2.145 4.525c-.32.644-.255.704.53.704.616 0 .616 0 .871-.58l.34-.77h2.08l.106.77c.086.58.107.58.722.58.698 0 .765-.043.638-.75l-.765-4.354ZM47.089 33.605h-3.61c-.51 0-.51 0-.616.622-.106.621-.084.621.36.621h1.17l-.66 3.837c-.127.75-.106.75.553.75.615 0 .637 0 .722-.536l.68-4.051h1.128c.509 0 .509 0 .615-.621.128-.622.128-.622-.34-.622M10.283 43.268v-.783a.189.189 0 0 0-.18-.176h-4.21a.188.188 0 0 0-.18.182v.771a.19.19 0 0 0 .177.183H7.27a.1.1 0 0 1 .092.094v4.414a.183.183 0 0 0 .177.187h.92a.184.184 0 0 0 .172-.177v-4.444a.1.1 0 0 1 .088-.072h1.383a.186.186 0 0 0 .178-.177" fill="#242E30"/>
  <path d="M12.627 44.335a1.284 1.284 0 0 0-.555-.402 2.474 2.474 0 0 0-.884-.136 2.813 2.813 0 0 0-.947.161 2.24 2.24 0 0 0-.666.367.19.19 0 0 0 .007.26l.382.395a.186.186 0 0 0 .264 0c.093-.084.197-.156.309-.214.171-.086.36-.13.551-.128.2-.003.396.066.551.194.144.12.221.336.232.682a.1.1 0 0 1-.093.08c-.142 0-.298 0-.456.008-.2.005-.4.021-.598.05a3.613 3.613 0 0 0-.575.126 1.73 1.73 0 0 0-.498.243c-.143.104-.26.24-.343.397-.089.18-.132.382-.126.584a1.137 1.137 0 0 0 .424.923c.135.108.29.19.454.24.41.12.849.099 1.245-.063.175-.072.33-.188.45-.335h.013a.066.066 0 0 1 .075.013c.013.012.02.028.021.045v.145a.188.188 0 0 0 .177.181h.772a.182.182 0 0 0 .124-.056.186.186 0 0 0 .052-.127v-1.852a6.845 6.845 0 0 0-.082-1.124 1.542 1.542 0 0 0-.289-.642l.01-.015Zm-.758 2.314a.668.668 0 0 1-.077.33.68.68 0 0 1-.213.23 1.163 1.163 0 0 1-.645.19.785.785 0 0 1-.399-.107.351.351 0 0 1-.186-.33.398.398 0 0 1 .135-.32.882.882 0 0 1 .325-.174c.13-.038.264-.061.399-.07.14-.008.256-.012.345-.012h.213a.101.101 0 0 1 .089.093l.014.17ZM24.814 44.335a1.284 1.284 0 0 0-.554-.402 2.479 2.479 0 0 0-.886-.136c-.322 0-.642.054-.947.161-.24.083-.465.207-.664.367a.188.188 0 0 0 0 .26l.382.395a.188.188 0 0 0 .265 0c.094-.085.198-.157.31-.215.171-.085.36-.13.552-.127.2-.003.395.065.55.194.144.12.22.336.231.681a.095.095 0 0 1-.092.08c-.143 0-.299 0-.457.009-.2.005-.4.021-.598.05a3.625 3.625 0 0 0-.576.126 1.71 1.71 0 0 0-.493.243c-.143.104-.26.24-.343.396-.09.182-.133.382-.127.585a1.136 1.136 0 0 0 .424.923c.135.106.29.186.453.235.412.122.851.1 1.249-.062.175-.072.33-.187.45-.335h.012a.069.069 0 0 1 .078.013.069.069 0 0 1 .018.045v.145a.186.186 0 0 0 .177.181H25a.188.188 0 0 0 .177-.183v-1.848a7.084 7.084 0 0 0-.08-1.124 1.533 1.533 0 0 0-.292-.642l.01-.015Zm-.762 2.314a.668.668 0 0 1-.077.33.669.669 0 0 1-.211.23 1.16 1.16 0 0 1-.646.19.77.77 0 0 1-.392-.107.35.35 0 0 1-.188-.33.398.398 0 0 1 .135-.32.885.885 0 0 1 .327-.174c.13-.038.263-.062.398-.07.141-.008.257-.012.347-.012h.21a.101.101 0 0 1 .089.093l.008.17ZM35.331 44.335a1.284 1.284 0 0 0-.555-.402 2.456 2.456 0 0 0-.885-.136c-.322 0-.642.055-.947.161-.24.084-.465.208-.665.367a.189.189 0 0 0 .007.26l.381.395a.188.188 0 0 0 .265 0c.094-.085.198-.156.31-.214.172-.087.36-.13.552-.128.2-.003.395.066.55.194.143.12.22.336.232.682a.1.1 0 0 1-.094.08c-.142 0-.298 0-.456.008-.2.005-.4.021-.598.05a3.625 3.625 0 0 0-.575.126 1.717 1.717 0 0 0-.498.243 1.134 1.134 0 0 0-.47.98c-.004.186.035.37.115.536.073.151.18.284.31.388.137.109.294.19.461.24.411.12.852.099 1.25-.063.173-.074.326-.191.443-.34h.012a.066.066 0 0 1 .076.013c.012.012.02.028.02.045v.145a.187.187 0 0 0 .177.181h.771a.186.186 0 0 0 .178-.183v-1.847a6.957 6.957 0 0 0-.081-1.124 1.555 1.555 0 0 0-.29-.642l.004-.015Zm-.758 2.314a.677.677 0 0 1-.077.33.68.68 0 0 1-.212.23 1.16 1.16 0 0 1-.646.19.766.766 0 0 1-.39-.107.348.348 0 0 1-.188-.33.398.398 0 0 1 .134-.32.881.881 0 0 1 .326-.174c.13-.038.264-.061.398-.07.139-.008.255-.012.346-.012h.212a.091.091 0 0 1 .062.03c.016.016.025.04.025.063l.01.17ZM20.807 44.372a1.62 1.62 0 0 0-.587-.431c-.244-.1-.506-.15-.77-.148a2.521 2.521 0 0 0-.862.148 2.11 2.11 0 0 0-.697.427c-.2.187-.36.413-.47.664a2.904 2.904 0 0 0 0 1.968 2.028 2.028 0 0 0 1.166 1.09c.277.1.569.151.862.149.321.001.639-.067.93-.201.23-.102.436-.248.61-.429a.189.189 0 0 0 0-.253l-.554-.412-.041-.029a.183.183 0 0 0-.223.03 1.474 1.474 0 0 1-.264.23.93.93 0 0 1-.51.135.905.905 0 0 1-.605-.215 1.122 1.122 0 0 1-.313-.712.09.09 0 0 1 .076-.09h2.583a.19.19 0 0 0 .176-.187v-.201a2.683 2.683 0 0 0-.13-.866 1.947 1.947 0 0 0-.373-.664l-.004-.003Zm-.813 1.073h-1.422a.092.092 0 0 1-.092-.088.792.792 0 0 1 .06-.201.717.717 0 0 1 .171-.238.88.88 0 0 1 .624-.235.718.718 0 0 1 .546.222c.116.12.187.279.199.447a.1.1 0 0 1-.094.088" fill="#242E30"/>
  <path d="m16.112 46.079-.027-.038a.185.185 0 0 1 0-.193l1.427-1.796a.095.095 0 0 0-.009-.13.089.089 0 0 0-.06-.021h-1.124a.373.373 0 0 0-.299.148l-.062.079-1.097 1.422-.014.017-.008.008h-.008a.07.07 0 0 1-.077-.012.081.081 0 0 1-.018-.034v-3.44a.188.188 0 0 0-.172-.176h-.879a.186.186 0 0 0-.172.18v5.87a.19.19 0 0 0 .176.179h.87a.186.186 0 0 0 .176-.176v-1.663a.07.07 0 0 1 .019-.034.069.069 0 0 1 .077-.013h.01l.009.008v.006l.021.025 1.066 1.619.061.078a.374.374 0 0 0 .292.147h1.187a.067.067 0 0 0 .036-.017.092.092 0 0 0 .02-.107l-1.421-1.936ZM31.954 44.197a.375.375 0 0 0 .021-.146.19.19 0 0 0-.172-.15h-.697a.372.372 0 0 0-.366.296l-.022.085-.588 2.18a.088.088 0 0 1-.058.03.082.082 0 0 1-.066-.044l-.009-.035-.589-2.204-.009-.04a.38.38 0 0 0-.357-.262h-.76a.37.37 0 0 0-.365.292v.02l-.016.067-.536 2.174a.072.072 0 0 1-.044.035.07.07 0 0 1-.055-.01.064.064 0 0 1-.026-.025l-.637-2.176-.03-.1a.061.061 0 0 0 0-.02.38.38 0 0 0-.355-.255h-.768a.187.187 0 0 0-.173.15v.023c0 .042.008.084.021.123l1.266 3.692a.373.373 0 0 0 .322.254h.741a.375.375 0 0 0 .33-.265l.03-.107.585-2.112a.07.07 0 0 1 .057-.03.069.069 0 0 1 .058.03l.669 2.156c.012.041.027.081.045.12a.371.371 0 0 0 .305.214h.723a.36.36 0 0 0 .304-.214c.01-.016.034-.088.05-.136l1.191-3.564c0-.008.003-.016.006-.023M40.025 44.047a.324.324 0 0 1-.01-.032.19.19 0 0 0-.16-.113h-.742a.373.373 0 0 0-.34.254l-.006.02c0 .01-.005.02-.007.03l-.023.073-.675 2.229-.01.026a.086.086 0 0 1-.088.066.089.089 0 0 1-.086-.057l-.804-2.265-.009-.03-.055-.152a.375.375 0 0 0-.317-.201h-.834a.186.186 0 0 0-.145.136.204.204 0 0 0 .005.101l1.594 3.928a.374.374 0 0 1-.014.249v.012l-.03.074c-.042.107-.083.201-.121.289a.789.789 0 0 1-.143.214.56.56 0 0 1-.217.13c-.108.035-.221.05-.334.047h-.53a.189.189 0 0 0-.18.183v.672a.19.19 0 0 0 .054.127.186.186 0 0 0 .127.056h.709c.24.007.478-.022.71-.087.165-.05.317-.137.444-.255.121-.12.22-.26.29-.415a9.73 9.73 0 0 0 .236-.57l1.71-4.667a.181.181 0 0 0 0-.074M39.856 47.281a.407.407 0 0 0-.318.137.455.455 0 0 0 .322.76.446.446 0 0 0 .313-.121l.01-.01a.456.456 0 0 0 0-.629.414.414 0 0 0-.318-.137M47.475 44.377a1.922 1.922 0 0 0-.653-.422c-.532-.199-1.117-.199-1.65 0a1.882 1.882 0 0 0-1.075 1.064c-.106.25-.157.743-.157 1.05-.003.323.05.643.157.948a1.91 1.91 0 0 0 1.08 1.07c.533.2 1.119.2 1.65 0 .244-.094.466-.237.653-.42.182-.184.326-.402.425-.642a2.8 2.8 0 0 0 .156-.95c0-.3-.053-.804-.156-1.05a1.985 1.985 0 0 0-.425-.64l-.005-.008Zm-.203 2.38a1.33 1.33 0 0 1-.277.458c-.122.13-.27.235-.433.308-.362.149-.768.149-1.13 0a1.293 1.293 0 0 1-.708-.767 2.361 2.361 0 0 1-.1-.686c0-.266.033-.53.1-.788a1.303 1.303 0 0 1 .71-.766c.361-.15.767-.15 1.129 0a1.293 1.293 0 0 1 .71.766c.064.258.095.522.094.788.002.232-.03.463-.094.686M41.402 44.83c.11-.135.25-.242.41-.313.18-.075.373-.112.567-.107.183-.003.363.033.53.107.124.06.237.142.334.24a.185.185 0 0 0 .242.007l.235-.215a.189.189 0 0 0 .019-.256 1.733 1.733 0 0 0-.545-.341 2.212 2.212 0 0 0-.814-.152 2.084 2.084 0 0 0-.812.155 1.88 1.88 0 0 0-.635.428 1.928 1.928 0 0 0-.408.65 3.449 3.449 0 0 0 0 1.974c.09.243.227.466.404.654.177.188.392.334.63.429.521.2 1.097.2 1.618 0 .2-.08.384-.197.539-.348a.19.19 0 0 0-.009-.25l-.2-.196a.187.187 0 0 0-.253 0 1.148 1.148 0 0 1-.87.35 1.264 1.264 0 0 1-.537-.112 1.214 1.214 0 0 1-.408-.314 1.498 1.498 0 0 1-.264-.463 2.76 2.76 0 0 1-.095-.728c0-.245.027-.49.083-.729.05-.168.132-.326.24-.464M54.197 44.764a1.304 1.304 0 0 0-.248-.516 1.104 1.104 0 0 0-.454-.321 1.844 1.844 0 0 0-.693-.114 1.245 1.245 0 0 0-.726.196c-.159.114-.297.254-.41.415l-.018.028-.01.014a.063.063 0 0 1-.047.021.069.069 0 0 1-.06-.036c0-.007-.012-.02-.017-.031a.952.952 0 0 0-.277-.342 1.324 1.324 0 0 0-.35-.192 1.7 1.7 0 0 0-.97-.016 1.467 1.467 0 0 0-.656.404 1.1 1.1 0 0 0-.075.093l-.008.01a.027.027 0 0 1-.008.011.066.066 0 0 1-.113-.033v-.27a.187.187 0 0 0-.055-.127.183.183 0 0 0-.125-.053h-.232a.184.184 0 0 0-.127.056.188.188 0 0 0-.053.13v3.861a.187.187 0 0 0 .181.185h.28a.186.186 0 0 0 .129-.057.19.19 0 0 0 .053-.132v-2.041c-.002-.205.022-.41.07-.609.04-.17.112-.33.212-.474a.968.968 0 0 1 .37-.308 1.26 1.26 0 0 1 .542-.106c.264 0 .454.089.569.27.114.181.173.487.173.92v2.353c0 .049.02.096.054.13.034.035.08.056.129.057h.28a.188.188 0 0 0 .182-.19V45.56c-.003-.16.023-.32.077-.47.047-.133.119-.256.212-.362a.957.957 0 0 1 .316-.233.908.908 0 0 1 .389-.084c.158-.005.316.026.46.092a.781.781 0 0 1 .29.24c.072.103.123.22.15.343.026.129.04.26.039.39v2.482a.187.187 0 0 0 .182.184h.283a.19.19 0 0 0 .182-.189v-2.514a2.884 2.884 0 0 0-.072-.678" fill="#242E30"/>
</svg>
