<?xml version="1.0" encoding="UTF-8"?>
<svg width="10px" height="10px" viewBox="0 0 10 10" version="1.1" xmlns="http://www.w3.org/2000/svg" xmlns:xlink="http://www.w3.org/1999/xlink">
    <!-- Generator: Sketch 49.3 (51167) - http://www.bohemiancoding.com/sketch -->
    <title>icon-cross</title>
    <desc>Created with Sketch.</desc>
    <defs></defs>
    <g id="Icons-16" stroke="none" stroke-width="1" fill="none" fill-rule="evenodd">
        <g id="icons-16/cross/icon-cross-16-midgrey" transform="translate(-3.000000, -3.000000)" fill="#000000" fill-rule="nonzero">
            <path d="M8,8.47140452 L3.90236893,12.5690356 C3.77219416,12.6992104 3.56113917,12.6992104 3.43096441,12.5690356 C3.30078964,12.4388608 3.30078964,12.2278058 3.43096441,12.0976311 L7.52859548,8 L3.43096441,3.90236893 C3.30078964,3.77219416 3.30078964,3.56113917 3.43096441,3.43096441 C3.56113917,3.30078964 3.77219416,3.30078964 3.90236893,3.43096441 L8,7.52859548 L12.0976311,3.43096441 C12.2278058,3.30078964 12.4388608,3.30078964 12.5690356,3.43096441 C12.6992104,3.56113917 12.6992104,3.77219416 12.5690356,3.90236893 L8.47140452,8 L12.5690356,12.0976311 C12.6992104,12.2278058 12.6992104,12.4388608 12.5690356,12.5690356 C12.4388608,12.6992104 12.2278058,12.6992104 12.0976311,12.5690356 L8,8.47140452 Z" id="icon-cross"></path>
        </g>
    </g>
</svg>