<?xml version="1.0" encoding="UTF-8" standalone="no"?>
<svg width="172px" height="24px" viewBox="0 0 172 24" version="1.1" xmlns="http://www.w3.org/2000/svg" xmlns:xlink="http://www.w3.org/1999/xlink">
    <!-- Generator: Sketch 40.1 (33804) - http://www.bohemiancoding.com/sketch -->
    <title>Group</title>
    <desc>Created with Sketch.</desc>
    <defs></defs>
    <g id="Page-1" stroke="none" stroke-width="1" fill="none" fill-rule="evenodd">
        <g id="Group">
            <g id="Group-2">
                <g id="Visa-dark">
                    <g id="Payment-badge-set">
                        <g>
                            <g id="Dark-Payment-badges">
                                <g id="Visa-dark">
                                    <rect id="Rectangle" fill="#26337A" x="0" y="0" width="40" height="24" rx="1.6"></rect>
                                    <polyline id="Fill-3" fill="#FFFFFF" points="16.5959963 15.8187042 17.8258912 8.18907044 19.7918341 8.18907044 18.5620516 15.8187042 16.5959963 15.8187042"></polyline>
                                    <path d="M25.6931484,8.37633804 C25.304435,8.22321128 24.6930857,8.05622536 23.9315134,8.05622536 C21.9878341,8.05622536 20.619635,9.09160564 20.6082784,10.5741972 C20.5959097,11.6708732 21.5846157,12.2824789 22.3299963,12.6469859 C23.0960664,13.0206197 23.353447,13.2597183 23.350411,13.5938028 C23.3451263,14.1047887 22.7389493,14.3389296 22.1737014,14.3389296 C21.3866046,14.3389296 20.9684313,14.223662 20.3218876,13.9388169 L20.0690046,13.8173521 L19.794083,15.5251831 C20.2525106,15.7376902 21.1023502,15.9221408 21.9843484,15.931831 C24.0500276,15.931831 25.3922525,14.9089578 25.4079945,13.3257465 C25.4150784,12.4561127 24.8912092,11.7969578 23.7566654,11.2527324 C23.0696424,10.8989296 22.6479834,10.6645634 22.6528184,10.3064789 C22.6532682,9.98940844 23.009036,9.64991548 23.7790415,9.64991548 C24.4220995,9.63954928 24.887611,9.78805632 25.2503502,9.9430986 L25.4268848,10.0303098 L25.6931484,8.37633804" id="Fill-4" fill="#FFFFFF"></path>
                                    <path d="M28.3109198,13.1136902 C28.4738488,12.6751549 29.0940811,10.9810704 29.0940811,10.9810704 C29.082612,11.0012394 29.2561106,10.5391549 29.3553972,10.2531831 L29.4880793,10.9112113 C29.4880793,10.9112113 29.8653235,12.7322817 29.9430212,13.1136902 L28.3109198,13.1136902 L28.3109198,13.1136902 L28.3109198,13.1136902 Z M30.7363023,8.19684508 L29.2169806,8.19684508 C28.7457346,8.19684508 28.3930028,8.331831 28.1865585,8.82929576 L25.2669917,15.8214084 L27.3318839,15.8214084 C27.3318839,15.8214084 27.6687613,14.8807887 27.7452221,14.6743662 C27.9704442,14.6743662 29.9768664,14.6783098 30.2632572,14.6783098 C30.322177,14.9445634 30.502647,15.8214084 30.502647,15.8214084 L32.3273622,15.8214084 L30.7363023,8.19684508 L30.7363023,8.19684508 L30.7363023,8.19684508 Z" id="Fill-5" fill="#FFFFFF"></path>
                                    <path d="M14.9466912,8.19549296 L13.0224645,13.3970704 L12.8163576,12.3397183 C12.4577788,11.1214648 11.3415631,9.80101408 10.0930028,9.13938028 L11.8534009,15.8120563 L13.934035,15.8108169 L17.030024,8.19549296 L14.9466912,8.19549296" id="Fill-6" fill="#FFFFFF"></path>
                                    <path d="M11.2362046,8.19030984 L8.06589124,8.19030984 L8.0398046,8.34839436 C10.5066784,8.98039436 12.1388922,10.5059155 12.8163576,12.3397183 L12.127423,8.83402816 C12.0085714,8.3505352 11.6631484,8.20721128 11.2362046,8.19030984" id="Fill-7" fill="#ED982D"></path>
                                </g>
                            </g>
                        </g>
                    </g>
                </g>
                <g id="MasterCard-dark" transform="translate(44.000000, 0.000000)">
                    <g id="Payment-badge-set">
                        <g>
                            <g id="Dark-Payment-badges">
                                <g id="MasterCard-dark">
                                    <rect id="Rectangle" fill="#000066" x="0" y="0" width="40" height="24" rx="1.6"></rect>
                                    <path d="M22.4514484,12.1941608 C22.4514484,16.5054631 18.9567881,20 14.6456092,20 C10.334307,20 6.8394,16.5054631 6.8394,12.1941608 C6.8394,7.88298196 10.334307,4.388075 14.6456092,4.388075 C18.9567881,4.388075 22.4514484,7.88298196 22.4514484,12.1941608" id="Fill-333" fill="#CC0000"></path>
                                    <path d="M25.1256425,4.388075 C23.108216,4.388075 21.2706482,5.15327596 19.8850707,6.40858544 C19.6031936,6.66443372 19.340067,6.94075968 19.0971716,7.23497284 L20.6743268,7.23497284 C20.8897131,7.49723584 21.088199,7.772945 21.2694146,8.06173036 L18.5019604,8.06173036 C18.3364116,8.32707732 18.1859126,8.60278652 18.0521906,8.88848784 L21.7189378,8.88848784 C21.8442714,9.15605528 21.954555,9.43164112 22.0495421,9.71487524 L17.7215862,9.71487524 C17.6315336,9.98404636 17.555544,10.2598789 17.4948509,10.5411393 L22.2760307,10.5411393 C22.3905086,11.0740537 22.4514484,11.6269524 22.4514484,12.1941608 C22.4514484,13.0607636 22.3102014,13.8949226 22.0495421,14.6739399 L17.7215862,14.6739399 C17.8165733,14.9569273 17.926857,15.2328832 18.0519438,15.5008208 L21.7189378,15.5008208 C21.584969,15.7857819 21.4352102,16.0617378 21.2686744,16.3274549 L18.5019604,16.3274549 C18.6824359,16.6153767 18.8812919,16.891456 19.0971716,17.1533489 L20.6738334,17.1533489 C20.4314314,17.4478088 20.1680582,17.7241347 19.8853174,17.979983 C21.2707716,19.2352925 23.108216,20 25.1256425,20 C29.436698,20 32.9314816,16.5054631 32.9314816,12.1941608 C32.9314816,7.88335204 29.436698,4.388075 25.1256425,4.388075" id="Fill-334" fill="#FF9900"></path>
                                    <path d="M12.8227212,13.0487977 C12.7337788,13.0386822 12.6945504,13.0354748 12.6334872,13.0354748 C12.1531241,13.0354748 11.9102286,13.2002835 11.9102286,13.5258301 C11.9102286,13.7262898 12.0287774,13.8537205 12.2138172,13.8537205 C12.5591013,13.8537205 12.807918,13.5250899 12.8227212,13.0487977 L12.8227212,13.0487977 L12.8227212,13.0487977 Z M13.4391502,14.4835957 L12.7367394,14.4835957 L12.7528996,14.1499074 C12.5387469,14.413404 12.2529222,14.539231 11.8647089,14.539231 C11.4055636,14.539231 11.090626,14.1807474 11.090626,13.6597988 C11.090626,12.8756005 11.6382202,12.4183056 12.5783454,12.4183056 C12.6746894,12.4183056 12.7978025,12.4271876 12.9238762,12.443101 C12.9500285,12.3367648 12.9569367,12.2916151 12.9569367,12.2342528 C12.9569367,12.021087 12.8093984,11.9411499 12.4135367,11.9411499 C11.9989244,11.9369556 11.6569709,12.0402078 11.5164641,12.0863444 C11.525346,12.0328062 11.634026,11.3620989 11.634026,11.3620989 C12.0561633,11.2379989 12.3347098,11.1916156 12.6481671,11.1916156 C13.37599,11.1916156 13.7614894,11.5182724 13.7606259,12.1358117 C13.7621062,12.3014839 13.734597,12.505151 13.6920378,12.7738286 C13.6185154,13.2401288 13.4606148,14.2402068 13.4391502,14.4835957 L13.4391502,14.4835957 L13.4391502,14.4835957 Z" id="Fill-336" fill="#000066"></path>
                                    <polyline id="Fill-337" fill="#000066" points="10.7359665 14.4835957 9.88836124 14.4835957 10.3741522 11.4400623 9.28994276 14.4835957 8.71249548 14.4835957 8.64107012 11.457086 8.13085392 14.4835957 7.33765032 14.4835957 8.00021588 10.5241156 9.21888752 10.5241156 9.29253332 12.7403981 10.0360229 10.5241156 11.3913772 10.5241156 10.7359665 14.4835957"></polyline>
                                    <path d="M26.1727206,13.0487977 C26.0837782,13.0386822 26.0450432,13.0354748 25.9841034,13.0354748 C25.5033702,13.0354748 25.2607215,13.2002835 25.2607215,13.5258301 C25.2607215,13.7262898 25.3787768,13.8537205 25.56431,13.8537205 C25.9093474,13.8537205 26.1582875,13.5250899 26.1727206,13.0487977 L26.1727206,13.0487977 L26.1727206,13.0487977 Z M26.7895197,14.4835957 L26.0873556,14.4835957 L26.103269,14.1499074 C25.8891164,14.413404 25.603415,14.539231 25.2154484,14.539231 C24.7556864,14.539231 24.4411188,14.1807474 24.4411188,13.6597988 C24.4411188,12.8756005 24.9889598,12.4183056 25.9288382,12.4183056 C26.0250589,12.4183056 26.1479253,12.4271876 26.2741224,12.443101 C26.300398,12.3367648 26.3071828,12.2916151 26.3071828,12.2342528 C26.3071828,12.021087 26.1596444,11.9411499 25.7637828,11.9411499 C25.3491705,11.9369556 25.0073404,12.0402078 24.8663401,12.0863444 C24.8757155,12.0328062 24.9846422,11.3620989 24.9846422,11.3620989 C25.4065328,11.2379989 25.685326,11.1916156 25.9982898,11.1916156 C26.7266062,11.1916156 27.1116122,11.5182724 27.110872,12.1358117 C27.1123523,12.3014839 27.0850898,12.505151 27.042284,12.7738286 C26.9690082,13.2401288 26.8107376,14.2402068 26.7895197,14.4835957 L26.7895197,14.4835957 L26.7895197,14.4835957 Z" id="Fill-338" fill="#000066"></path>
                                    <path d="M17.2053254,14.4346218 C16.9732856,14.5076509 16.7925635,14.539231 16.5964214,14.539231 C16.163305,14.539231 15.9268243,14.2902909 15.9268243,13.8317624 C15.9207796,13.6894052 15.989121,13.3150082 16.0429059,12.9735482 C16.0920031,12.6726736 16.4105181,10.7761398 16.4105181,10.7761398 L17.2526956,10.7761398 L17.1543778,11.2635344 L17.6632371,11.2635344 L17.5483891,12.0374939 L17.0378028,12.0374939 C16.9399784,12.6497287 16.8004585,13.4125858 16.7988548,13.5137408 C16.7988548,13.6797831 16.8874272,13.7523187 17.0891205,13.7523187 C17.1857112,13.7523187 17.2604673,13.7424499 17.3175828,13.7219722 L17.2053254,14.4346218" id="Fill-339" fill="#000066"></path>
                                    <path d="M19.7879866,14.4085929 C19.4985844,14.4970419 19.2196679,14.5402178 18.9237277,14.539231 C17.9806419,14.5379974 17.489053,14.0457917 17.489053,13.1027059 C17.489053,12.0020896 18.1143639,11.1916156 18.9634495,11.1916156 C19.657842,11.1916156 20.1015672,11.645333 20.1015672,12.3566257 C20.1015672,12.5931065 20.0712207,12.8235426 19.9975749,13.1487191 L18.3201281,13.1487191 C18.2635059,13.6158828 18.5622834,13.8104212 19.0526387,13.8104212 C19.35376,13.8104212 19.6258918,13.7482478 19.9282467,13.6079877 L19.7879866,14.4085929 L19.7879866,14.4085929 L19.7879866,14.4085929 Z M19.3145316,12.4997231 C19.3193426,12.432492 19.4037207,11.9248664 18.9222474,11.9248664 C18.6543098,11.9248664 18.4622386,12.129397 18.3843986,12.4997231 L19.3145316,12.4997231 L19.3145316,12.4997231 L19.3145316,12.4997231 Z" id="Fill-340" fill="#000066"></path>
                                    <path d="M13.9473926,12.281623 C13.9473926,12.688587 14.1447684,12.9694773 14.5925645,13.180546 C14.9356282,13.342024 14.989043,13.3897642 14.989043,13.5359456 C14.989043,13.7364053 14.8375571,13.8274448 14.5023885,13.8274448 C14.2493775,13.8274448 14.0142537,13.787723 13.7429854,13.7000142 C13.7429854,13.7000142 13.6318382,14.4100732 13.6265338,14.4439972 C13.8190984,14.4856928 13.9908153,14.5245512 14.5084331,14.539231 C15.402545,14.539231 15.8155537,14.1987579 15.8155537,13.4629166 C15.8155537,13.0205483 15.64285,12.7608758 15.2182455,12.5654739 C14.8630926,12.4025156 14.8220138,12.3660011 14.8220138,12.2157488 C14.8220138,12.0416881 14.963014,11.9527457 15.2367495,11.9527457 C15.4031618,11.9527457 15.6302673,11.9705095 15.8457769,12.0009794 L15.9662994,11.254159 C15.7469657,11.2192482 15.4141409,11.1916156 15.220466,11.1916156 C14.2725691,11.1916156 13.9443087,11.6866586 13.9473926,12.281623" id="Fill-341" fill="#000066"></path>
                                    <path d="M23.9095614,11.2766106 C24.1449319,11.2766106 24.3647591,11.337797 24.6668673,11.4903931 L24.8056471,10.6310686 C24.6810537,10.5822181 24.2442366,10.2959 23.8741571,10.2959 C23.3071954,10.2959 22.8273257,10.5776538 22.4904301,11.0416101 C21.9984711,10.8787751 21.7960376,11.2078991 21.5483312,11.5360362 L21.3281339,11.5873539 C21.3447874,11.4794141 21.3599607,11.3722144 21.3551497,11.2635344 L20.5765025,11.2635344 C20.470413,12.2604051 20.2820426,13.2697351 20.1346276,14.2669759 L20.096016,14.4835957 L20.943868,14.4835957 C21.0853618,13.5640716 21.1627084,12.975522 21.2098318,12.576823 L21.529087,12.399925 C21.577074,12.2221635 21.7259693,12.1624574 22.0254869,12.1697356 C21.9863818,12.379694 21.965164,12.6008782 21.965164,12.8297106 C21.965164,13.8833268 22.5343462,14.539231 23.4462219,14.539231 C23.6812224,14.539231 23.883039,14.508391 24.1955094,14.4232728 L24.3440347,13.521019 C24.063021,13.6590587 23.832955,13.7240693 23.6243535,13.7240693 C23.1316544,13.7240693 22.8334937,13.3602812 22.8334937,12.7593956 C22.8334937,11.887365 23.2766022,11.2766106 23.9095614,11.2766106" id="Fill-342" fill="#000066"></path>
                                    <path d="M31.0844151,10.5241156 L30.8960446,11.6680312 C30.664745,11.3632091 30.4158049,11.142395 30.0871743,11.142395 C29.6596092,11.142395 29.270409,11.4665846 29.0155476,11.9439872 C28.6606414,11.8703413 28.2938926,11.7451311 28.2938926,11.7451311 L28.2936459,11.7482151 C28.3218953,11.4813878 28.3338612,11.3190463 28.331024,11.2635344 L27.5525002,11.2635344 C27.4467808,12.2604051 27.2581636,13.2697351 27.110872,14.2669759 L27.0718903,14.4835957 L27.919989,14.4835957 C28.034467,13.7404762 28.1219291,13.1226902 28.1864462,12.6334452 C28.4763418,12.3714289 28.621413,12.1435833 28.9136524,12.1583865 C28.7840012,12.4719672 28.7083816,12.832918 28.7083816,13.2032442 C28.7083816,14.0079202 29.1152223,14.539231 29.731528,14.539231 C30.042148,14.539231 30.2804792,14.4320313 30.512889,14.1838314 L30.4729205,14.483349 L31.2747593,14.483349 L31.9203012,10.5241156 L31.0844151,10.5241156 L31.0844151,10.5241156 L31.0844151,10.5241156 Z M30.0246309,13.739736 C29.7362156,13.739736 29.5901576,13.5258301 29.5901576,13.1049264 C29.5901576,12.4719672 29.8631529,12.0233075 30.2474187,12.0233075 C30.5386712,12.0233075 30.6965718,12.2448618 30.6965718,12.6539229 C30.6965718,13.29231 30.4190122,13.739736 30.0246309,13.739736 L30.0246309,13.739736 L30.0246309,13.739736 Z" id="Fill-343" fill="#000066"></path>
                                    <polyline id="Fill-344" fill="#FFFFFF" points="10.9797255 14.2485952 10.132367 14.2485952 10.6180346 11.2050618 9.53407184 14.2485952 8.9563778 14.2485952 8.88507584 11.2227023 8.37473628 14.2485952 7.58153264 14.2485952 8.24409824 10.2894853 9.46276988 10.2894853 9.49681716 12.7403981 10.3191337 10.2894853 11.6352596 10.2894853 10.9797255 14.2485952"></polyline>
                                    <path d="M13.0666036,12.8142906 C12.9777845,12.8039284 12.9385561,12.8010912 12.877493,12.8010912 C12.3971298,12.8010912 12.154111,12.9656532 12.154111,13.290953 C12.154111,13.491166 12.2727832,13.6193368 12.4579462,13.6193368 C12.803107,13.6193368 13.0519238,13.2907063 13.0666036,12.8142906 L13.0666036,12.8142906 L13.0666036,12.8142906 Z M13.6829092,14.2485952 L12.9808685,14.2485952 L12.9969053,13.9151537 C12.7827526,14.1785269 12.4969279,14.3044772 12.1087146,14.3044772 C11.649446,14.3044772 11.3346317,13.9455002 11.3346317,13.424675 C11.3346317,12.6403533 11.8823493,12.1836753 12.8224745,12.1836753 C12.9185718,12.1836753 13.0416849,12.1924338 13.167882,12.2087173 C13.1940342,12.1021344 13.2009424,12.0568614 13.2009424,11.9992524 C13.2009424,11.78621 13.0534041,11.7068896 12.6575424,11.7068896 C12.2428067,11.7019552 11.9009766,11.8052074 11.7603465,11.8512206 C11.7693517,11.7979291 11.8779084,11.1272218 11.8779084,11.1272218 C12.300169,11.0033686 12.5787155,10.9566152 12.8921728,10.9566152 C13.6198724,10.9566152 14.0052484,11.283642 14.0046316,11.9009346 C14.0059886,12.0663601 13.978726,12.271014 13.9360436,12.5389516 C13.8623978,13.0048816 13.7044972,14.0055764 13.6829092,14.2485952 L13.6829092,14.2485952 L13.6829092,14.2485952 Z" id="Fill-345" fill="#FFFFFF"></path>
                                    <path d="M25.0494061,10.3960682 L24.9106263,11.2552693 C24.6080247,11.1031666 24.3888143,11.0416101 24.1536905,11.0416101 C23.520978,11.0416101 23.0771294,11.6531047 23.0771294,12.5252586 C23.0771294,13.1261443 23.3754134,13.4891922 23.8681125,13.4891922 C24.0768373,13.4891922 24.3073968,13.424675 24.5877937,13.286142 L24.4388984,14.1883957 C24.1269214,14.2733906 23.9249814,14.3044772 23.6901043,14.3044772 C22.7776117,14.3044772 22.209293,13.6484498 22.209293,12.5950803 C22.209293,11.1796497 22.9949717,10.1904274 24.1180395,10.1904274 C24.4881189,10.1904274 24.9251828,10.3472177 25.0494061,10.3960682" id="Fill-346" fill="#FFFFFF"></path>
                                    <path d="M26.4164796,12.8142906 C26.328154,12.8039284 26.2888022,12.8010912 26.2278624,12.8010912 C25.747746,12.8010912 25.5046038,12.9656532 25.5046038,13.290953 C25.5046038,13.491166 25.6231526,13.6193368 25.8081924,13.6193368 C26.1532298,13.6193368 26.4022932,13.2907063 26.4164796,12.8142906 L26.4164796,12.8142906 L26.4164796,12.8142906 Z M27.0332787,14.2485952 L26.331238,14.2485952 L26.3471514,13.9151537 C26.1329987,14.1785269 25.847174,14.3044772 25.4593308,14.3044772 C24.9995688,14.3044772 24.6851246,13.9455002 24.6851246,13.424675 C24.6851246,12.6403533 25.2323487,12.1836753 26.1727206,12.1836753 C26.2688179,12.1836753 26.3916843,12.1924338 26.517758,12.2087173 C26.5440336,12.1021344 26.5509418,12.0568614 26.5509418,11.9992524 C26.5509418,11.78621 26.4037735,11.7068896 26.0076652,11.7068896 C25.5932996,11.7019552 25.2515928,11.8052074 25.1107159,11.8512206 C25.1195978,11.7979291 25.2282778,11.1272218 25.2282778,11.1272218 C25.6505385,11.0033686 25.9288382,10.9566152 26.2422955,10.9566152 C26.9699951,10.9566152 27.3557412,11.283642 27.3547544,11.9009346 C27.3564814,12.0663601 27.3289722,12.271014 27.2862897,12.5389516 C27.2128906,13.0048816 27.05499,14.0055764 27.0332787,14.2485952 L27.0332787,14.2485952 L27.0332787,14.2485952 Z" id="Fill-347" fill="#FFFFFF"></path>
                                    <path d="M17.4490844,14.1997448 C17.2172913,14.2727738 17.0363225,14.3044772 16.8404271,14.3044772 C16.4071874,14.3044772 16.1705833,14.0554138 16.1705833,13.5973788 C16.164662,13.4545281 16.2331267,13.0807479 16.287035,12.7389178 C16.3357621,12.4377965 16.6544005,10.5415094 16.6544005,10.5415094 L17.4968247,10.5415094 L17.3982602,11.0287807 L17.8307597,11.0287807 L17.7155416,11.8024934 L17.2816852,11.8024934 C17.1838608,12.415345 17.0443409,13.1777087 17.0426138,13.2788637 C17.0426138,13.4453995 17.1315562,13.5174416 17.3330028,13.5174416 C17.4295936,13.5174416 17.5042262,13.5079429 17.5615886,13.4869718 L17.4490844,14.1997448" id="Fill-348" fill="#FFFFFF"></path>
                                    <path d="M20.032239,14.1742093 C19.7427135,14.262905 19.4631802,14.304724 19.16761,14.3044772 C18.2244009,14.3038604 17.7331821,13.811038 17.7331821,12.8680755 C17.7331821,11.7670892 18.3583696,10.9566152 19.2068384,10.9566152 C19.901971,10.9566152 20.3454496,11.4103326 20.3454496,12.1224888 C20.3454496,12.3584761 20.3146096,12.5887889 20.2418273,12.9140888 L18.5641338,12.9140888 C18.5072649,13.3812524 18.8064125,13.5761609 19.2962743,13.5761609 C19.5976424,13.5761609 19.8696508,13.5137408 20.1723758,13.3731106 L20.032239,14.1742093 L20.032239,14.1742093 L20.032239,14.1742093 Z M19.5586606,12.2647227 C19.563225,12.1973682 19.6479732,11.6899893 19.1666232,11.6899893 C18.8984389,11.6899893 18.7063677,11.89489 18.6282809,12.2647227 L19.5586606,12.2647227 L19.5586606,12.2647227 L19.5586606,12.2647227 Z" id="Fill-349" fill="#FFFFFF"></path>
                                    <path d="M14.1911516,12.0466225 C14.1911516,12.4543267 14.3887741,12.7346002 14.8366936,12.9459156 C15.1797572,13.1072702 15.2329253,13.1550105 15.2329253,13.3013152 C15.2329253,13.5020216 15.0815628,13.5925678 14.7461475,13.5925678 C14.4933832,13.5925678 14.258136,13.5533393 13.9867444,13.4658772 C13.9867444,13.4658772 13.8757206,14.1754429 13.8705395,14.2088734 C14.0629808,14.2510624 14.234821,14.2895507 14.7521921,14.3044772 C15.6465508,14.3044772 16.0595594,13.9641275 16.0595594,13.2282862 C16.0595594,12.7856712 15.886609,12.5261221 15.4621278,12.3312136 C15.1068516,12.1677618 15.0660195,12.1316174 15.0660195,11.9811184 C15.0660195,11.8070578 15.2068964,11.7174985 15.4808786,11.7174985 C15.6469208,11.7174985 15.874273,11.7360025 16.0896592,11.766349 L16.2103051,11.019652 C15.990848,10.9849879 15.65827,10.9566152 15.4644717,10.9566152 C14.5163281,10.9566152 14.1883144,11.4517815 14.1911516,12.0466225" id="Fill-350" fill="#FFFFFF"></path>
                                    <path d="M31.5186416,14.2485952 L30.7170495,14.2485952 L30.7567714,13.9489542 C30.5242382,14.1972776 30.2860303,14.3044772 29.9754103,14.3044772 C29.3595981,14.3044772 28.9521406,13.7737833 28.9521406,12.9682437 C28.9521406,11.8972338 29.5838663,10.9944866 30.3310567,10.9944866 C30.6596872,10.9944866 30.908504,11.1287021 31.1402971,11.4336476 L31.3282974,10.2894853 L32.1640602,10.2894853 L31.5186416,14.2485952 L31.5186416,14.2485952 L31.5186416,14.2485952 Z M30.2683899,13.5046122 C30.6632646,13.5046122 30.9403308,13.0574328 30.9403308,12.4196626 C30.9403308,12.0104781 30.7825536,11.7881837 30.4913011,11.7881837 C30.1069119,11.7881837 29.83404,12.2369667 29.83404,12.8701726 C29.83404,13.2915698 29.9802214,13.5046122 30.2683899,13.5046122 L30.2683899,13.5046122 L30.2683899,13.5046122 Z" id="Fill-351" fill="#FFFFFF"></path>
                                    <path d="M27.7966292,11.0287807 C27.6906632,12.0254046 27.5021694,13.0347346 27.3547544,14.0320988 L27.3161428,14.2485952 L28.163748,14.2485952 C28.4669665,12.2795258 28.5398721,11.89526 29.0155476,11.943247 C29.0911672,11.5402305 29.2321674,11.187298 29.3371466,11.0094132 C28.9822404,10.9353973 28.7840012,11.1359804 28.5242054,11.5171622 C28.5449299,11.3522301 28.5823079,11.1922324 28.5752764,11.0287807 L27.7966292,11.0287807" id="Fill-352" fill="#FFFFFF"></path>
                                    <path d="M20.8207549,11.0287807 C20.7142954,12.0254046 20.5255549,13.0347346 20.3783866,14.0320988 L20.3398984,14.2485952 L21.1877504,14.2485952 C21.4910922,12.2795258 21.5637511,11.89526 22.0386864,11.943247 C22.1147994,11.5402305 22.2560464,11.187298 22.3607789,11.0094132 C22.0062428,10.9353973 21.8076335,11.1359804 21.5483312,11.5171622 C21.5688089,11.3522301 21.6064336,11.1922324 21.599032,11.0287807 L20.8207549,11.0287807" id="Fill-353" fill="#FFFFFF"></path>
                                </g>
                            </g>
                        </g>
                    </g>
                </g>
                <g id="Maestro-dark" transform="translate(88.000000, 0.000000)">
                    <g id="Payment-badge-set">
                        <g>
                            <g id="Dark-Payment-badges">
                                <g id="Maestro-dark">
                                    <rect id="Rectangle" fill="#000066" x="0" y="0" width="40" height="24" rx="1.6"></rect>
                                    <path d="M33.4625959,11.9934932 C33.4625959,16.4156277 29.8922538,20 25.4869326,20 C21.0824938,20 17.5116475,16.4156277 17.5116475,11.9934932 C17.5116475,7.57123216 21.0824938,3.98673336 25.4869326,3.98673336 C29.8922538,3.98673336 33.4625959,7.57123216 33.4625959,11.9934932" id="Fill-356" fill="#CC0000"></path>
                                    <path d="M19.3259369,17.0780179 C19.1057213,16.8098986 18.9029011,16.5265955 18.7184846,16.2300066 L21.5451106,16.2300066 C21.7147787,15.9582179 21.8679338,15.6750414 22.004702,15.3821219 L18.2591453,15.3821219 C18.131453,15.1078026 18.0180048,14.8248791 17.9214478,14.5344902 L22.3417693,14.5344902 C22.6079945,13.7360792 22.7518216,12.8819944 22.7518216,11.9934932 C22.7518216,11.4117033 22.6900554,10.844338 22.5728255,10.2979768 L17.6910218,10.2979768 C17.752788,10.0091064 17.8306892,9.72643596 17.9224562,9.45009208 L22.3412651,9.45009208 C22.2443298,9.15970328 22.1315119,8.87690632 22.0039456,8.60258696 L18.2599016,8.60258696 C18.3966698,8.30966752 18.5502031,8.02699708 18.719367,7.75457568 L21.5442282,7.75457568 C21.3599378,7.45874604 21.1566134,7.17594908 20.9367759,6.90745016 L19.3269454,6.90745016 C19.5746407,6.60567352 19.8437651,6.32237044 20.1319236,6.06007156 C18.7163417,4.7716056 16.8375128,3.98673336 14.7766626,3.98673336 C10.3715935,3.98673336 6.80074716,7.57123216 6.80074716,11.9934932 C6.80074716,16.4156277 10.3715935,20 14.7766626,20 C16.8376389,20 18.7165938,19.2151278 20.1319236,17.927168 C20.4204603,17.6643629 20.6899629,17.3804272 20.9376582,17.0780179 L19.3259369,17.0780179" id="Fill-357" fill="#0066CC"></path>
                                    <path d="M20.0182233,14.1571746 C19.6773744,14.2477708 19.3477442,14.2920567 18.9993321,14.2912975 C17.8876654,14.2902853 17.3087012,13.78201 17.3087012,12.8099982 C17.3087012,11.6743818 18.0457366,10.8391502 19.046224,10.8391502 C19.864564,10.8391502 20.3869301,11.3074417 20.3869301,12.0411954 C20.3869301,12.2846412 20.3516351,12.521887 20.2650362,12.8571943 L18.2881377,12.8571943 C18.2177998,13.3319389 18.5630606,13.5403356 19.1508485,13.5403356 C19.5029162,13.5403356 19.8212015,13.476817 20.1738995,13.3344695 L20.0182233,14.1571746 L20.0182233,14.1571746 L20.0182233,14.1571746 Z M19.4866553,12.1874654 C19.4866553,12.1158488 19.596574,11.6061816 19.0244167,11.5951734 C18.7085264,11.5951734 18.4820081,11.8059742 18.3903671,12.1874654 L19.4866553,12.1874654 L19.4866553,12.1874654 L19.4866553,12.1874654 Z" id="Fill-359" fill="#000066"></path>
                                    <path d="M20.6879461,11.9647706 C20.6879461,12.3842212 20.9231621,12.6741038 21.4580075,12.8898394 C21.8667993,13.0578726 21.9310867,13.1065871 21.9310867,13.2567794 C21.9310867,13.4649231 21.7505779,13.5603275 21.3494754,13.5577969 C21.0483333,13.5556458 20.7734104,13.5188253 20.4490745,13.4286086 L20.3054994,14.1937421 C20.5939101,14.2609301 20.998164,14.2829465 21.3565344,14.2912975 C22.4240823,14.2912975 22.9169518,13.9404268 22.9169518,13.1819996 C22.9169518,12.7259816 22.7113584,12.4578622 22.2043709,12.2579432 C21.7805787,12.0878854 21.7309136,12.0513179 21.7309136,11.8973296 C21.7309136,11.7166432 21.8988169,11.6252878 22.2261781,11.6252878 C22.4247126,11.6252878 22.696358,11.6435082 22.9542637,11.674888 L23.0988472,10.905579 C22.8361515,10.8690116 22.4376961,10.8396564 22.2068919,10.8396564 C21.075939,10.8396564 20.6845426,11.3507154 20.6879461,11.9647706" id="Fill-360" fill="#000066"></path>
                                    <path d="M16.7667968,14.2365096 L15.9374902,14.2365096 L15.9572806,13.8877899 C15.704417,14.1628685 15.3674758,14.2910444 14.9104054,14.2910444 C14.3693834,14.2910444 13.9987858,13.9196758 13.9987858,13.3855881 C13.9987858,12.5737647 14.6430458,12.1054732 15.7508048,12.1054732 C15.8646312,12.1054732 16.0094668,12.1140773 16.15821,12.130906 C16.1889671,12.0222158 16.1972866,11.9753993 16.1972866,11.9164358 C16.1972866,11.6942472 16.0229545,11.6123816 15.5568083,11.6123816 C15.0972169,11.614153 14.787125,11.6826064 14.4993446,11.7601699 L14.6410289,11.015408 C15.1386885,10.8883708 15.464411,10.8391502 15.8331178,10.8391502 C16.6909125,10.8391502 17.1439492,11.1769882 17.1439492,11.811415 C17.1511342,11.9808401 17.0925193,12.3207026 17.0628967,12.4695031 C17.0293664,12.6857447 16.7916293,13.9404268 16.7667968,14.2365096 L16.7667968,14.2365096 L16.7667968,14.2365096 Z M16.0388372,12.7553368 C15.9338346,12.7449613 15.8880772,12.741798 15.8161005,12.741798 C15.250498,12.741798 14.9637261,12.9108435 14.9637261,13.244506 C14.9637261,13.4540414 15.1036456,13.5850011 15.3218444,13.5850011 C15.7282412,13.5850011 16.021694,13.2437468 16.0388372,12.7553368 L16.0388372,12.7553368 L16.0388372,12.7553368 Z" id="Fill-361" fill="#000066"></path>
                                    <path d="M24.6643068,14.1838726 C24.3922832,14.2586525 24.180135,14.2912975 23.9508435,14.2912975 C23.4428475,14.2912975 23.1654035,14.0306435 23.1654035,13.5665275 C23.1493947,13.4389842 23.2735575,12.8498555 23.3017935,12.6857447 C23.3297774,12.5211278 23.7698305,10.1213394 23.7698305,10.1213394 L24.7568302,10.1213394 L24.6075827,10.9154484 L25.113814,10.9154484 L24.9762895,11.7256269 L24.4677893,11.7256269 C24.4677893,11.7256269 24.1888327,13.1322729 24.1888327,13.2398243 C24.1888327,13.4102616 24.2916924,13.4844088 24.5280429,13.4844088 C24.6409869,13.4844088 24.7283421,13.4737802 24.7957808,13.4535353 L24.6643068,14.1838726" id="Fill-362" fill="#000066"></path>
                                    <path d="M29.0745441,10.8391502 C28.3511225,10.8391502 27.7858982,11.1383962 27.4575285,11.6374348 L27.7425357,10.8969749 C27.2173964,10.7035089 26.8788164,10.9797262 26.5728844,11.3722256 C26.5728844,11.3722256 26.5215806,11.4373891 26.4704028,11.4969853 L26.4704028,10.9150689 L25.5436568,10.9150689 C25.4181074,11.9421216 25.196127,12.9837254 25.0225512,14.0130557 L24.9805753,14.2368892 L25.9775332,14.2368892 C26.0721995,13.7145689 26.1498485,13.2906898 26.2272454,12.9525988 C26.4390154,12.025126 26.795495,11.7416964 27.3305926,11.8672152 C27.20706,12.1335631 27.1393692,12.4422989 27.1393692,12.7838063 C27.1393692,13.6129644 27.5876158,14.2912975 28.7012994,14.2912975 C29.8249412,14.2912975 30.6386172,13.6887566 30.6386172,12.3147556 C30.6386172,11.4861036 30.0963346,10.8391502 29.0745441,10.8391502 L29.0745441,10.8391502 L29.0745441,10.8391502 Z M28.7843687,13.4854211 C28.432301,13.490862 28.2187662,13.1942731 28.2187662,12.7504021 C28.2187662,12.224539 28.5302446,11.6302225 29.0308035,11.6302225 C29.4346792,11.6302225 29.57296,11.951738 29.57296,12.2942576 C29.57296,13.0423093 29.2675322,13.4854211 28.7843687,13.4854211 L28.7843687,13.4854211 L28.7843687,13.4854211 Z" id="Fill-363" fill="#000066"></path>
                                    <polyline id="Fill-364" fill="#000066" points="13.5342783 14.2368892 12.5413541 14.2368892 13.131411 11.1161268 11.7729314 14.2368892 10.8678665 14.2368892 10.7024842 11.1344738 10.1105365 14.2368892 9.20975748 14.2368892 9.97691968 10.1775192 11.5285134 10.1775192 11.6577184 12.4405275 12.6406843 10.1775192 14.316819 10.1775192 13.5342783 14.2368892"></polyline>
                                    <path d="M20.2673052,13.9070226 C19.9267084,13.9977454 19.5969522,14.0420313 19.2486661,14.0412721 C18.1369994,14.0402599 17.5580352,13.531858 17.5580352,12.5599728 C17.5580352,11.4243564 18.2949446,10.5891248 19.2953059,10.5891248 C20.1137719,10.5891248 20.6362641,11.0574163 20.6362641,11.7910435 C20.6362641,12.0344893 20.600843,12.2712289 20.5143703,12.6071689 L18.5375977,12.6071689 C18.4671338,13.0814074 18.8121425,13.2901836 19.3999304,13.2901836 C19.7519981,13.2901836 20.0705356,13.2266651 20.4231075,13.0840645 L20.2673052,13.9070226 L20.2673052,13.9070226 L20.2673052,13.9070226 Z M19.7357372,11.93744 C19.7357372,11.8656968 19.8456559,11.3561562 19.2737508,11.3450214 C18.9578604,11.3450214 18.7313421,11.5558222 18.639449,11.93744 L19.7357372,11.93744 L19.7357372,11.93744 L19.7357372,11.93744 Z" id="Fill-366" fill="#FFFFFF"></path>
                                    <path d="M20.9372801,11.7144922 C20.9372801,12.1340692 21.17237,12.4236989 21.7070894,12.6396874 C22.1161334,12.8078472 22.1802946,12.8564351 22.1802946,13.0062479 C22.1802946,13.2147711 21.9996598,13.3101756 21.5989354,13.3077715 C21.2974152,13.3054939 21.0224923,13.2686734 20.6984085,13.1784567 L20.5545814,13.9433371 C20.843118,14.0107781 21.247624,14.0327945 21.6056163,14.0412721 C22.6731642,14.0412721 23.1662859,13.6902749 23.1662859,12.9315946 C23.1662859,12.4758297 22.9605664,12.2074572 22.4535788,12.0077912 C22.0297866,11.83786 21.9799954,11.8007864 21.9799954,11.6473042 C21.9799954,11.4666178 22.148151,11.3748828 22.4753861,11.3748828 C22.6739205,11.3748828 22.94544,11.3934828 23.2034717,11.4248626 L23.3480552,10.6555536 C23.0853595,10.61848 22.686904,10.5895044 22.456352,10.5895044 C21.325147,10.5895044 20.9337506,11.1003104 20.9372801,11.7144922" id="Fill-367" fill="#FFFFFF"></path>
                                    <path d="M17.0161308,13.9863576 L16.1865721,13.9863576 L16.2066146,13.637638 C15.953625,13.9124635 15.6169358,14.0405129 15.1597394,14.0405129 C14.6188435,14.0405129 14.2478677,13.6692708 14.2478677,13.1351831 C14.2478677,12.3236128 14.8922537,11.8553213 16.0000128,11.8553213 C16.1138391,11.8553213 16.2585487,11.8640519 16.407544,11.8802479 C16.4383011,11.7718108 16.4464946,11.7253739 16.4464946,11.6662838 C16.4464946,11.4435892 16.2722885,11.3621032 15.8062684,11.3621032 C15.3465509,11.3640011 15.036459,11.4324544 14.7488047,11.5101445 L14.8901108,10.7652561 C15.3878965,10.6382189 15.7134929,10.5891248 16.0824518,10.5891248 C16.9402465,10.5891248 17.3931571,10.9265832 17.3931571,11.561263 C17.4005943,11.7308147 17.3416012,12.0700445 17.3123568,12.2193512 C17.2784483,12.4355928 17.0408373,13.6902749 17.0161308,13.9863576 L17.0161308,13.9863576 L17.0161308,13.9863576 Z M16.2880452,12.5053114 C16.1831686,12.4944297 16.1372851,12.491646 16.0651824,12.491646 C15.4998321,12.491646 15.2129341,12.6604385 15.2129341,12.9938479 C15.2129341,13.2037629 15.3531057,13.3349756 15.5709263,13.3349756 C15.9775752,13.3349756 16.271028,12.9933418 16.2880452,12.5053114 L16.2880452,12.5053114 L16.2880452,12.5053114 Z" id="Fill-368" fill="#FFFFFF"></path>
                                    <path d="M24.9135148,13.9337207 C24.6413651,14.0086271 24.4293429,14.0412721 24.1999254,14.0412721 C23.6919294,14.0412721 23.4147375,13.7804916 23.4147375,13.3163756 C23.3986026,13.1888323 23.5227654,12.5997036 23.5508754,12.4355928 C23.5791114,12.2709758 24.0191645,9.87118752 24.0191645,9.87118752 L25.0060382,9.87118752 L24.8569167,10.6650435 L25.363148,10.6650435 L25.2254974,11.475475 L24.7171233,11.475475 C24.7171233,11.475475 24.4379146,12.882121 24.4379146,12.9891662 C24.4379146,13.1602362 24.5409004,13.2338773 24.7772509,13.2338773 C24.8901949,13.2338773 24.977424,13.2237548 25.0452408,13.2032568 L24.9135148,13.9337207" id="Fill-369" fill="#FFFFFF"></path>
                                    <path d="M29.8224201,12.0435995 C29.8224201,12.7922839 29.5166141,13.2353957 29.0334506,13.2353957 C28.6813829,13.240457 28.4679742,12.9442477 28.4679742,12.5003767 C28.4679742,11.9745136 28.7794526,11.3800706 29.2798854,11.3800706 C29.6838872,11.3800706 29.8224201,11.701586 29.8224201,12.0435995 L29.8224201,12.0435995 L29.8224201,12.0435995 Z M30.8878251,12.0646037 C30.8878251,11.2360782 30.3454165,10.5891248 29.3238781,10.5891248 C28.1486804,10.5891248 27.3885772,11.3753889 27.3885772,12.5337809 C27.3885772,13.3628125 27.8368238,14.0412721 28.9506334,14.0412721 C30.0742752,14.0412721 30.8878251,13.4387312 30.8878251,12.0646037 L30.8878251,12.0646037 L30.8878251,12.0646037 Z" id="Fill-370" fill="#FFFFFF"></path>
                                    <path d="M25.7927386,10.6646639 C25.6673153,11.6919696 25.4452089,12.7334469 25.2717591,13.7626507 L25.2299093,13.9868638 L26.2267412,13.9868638 C26.585994,11.998934 26.7066272,11.4327075 27.4595454,11.6319939 L27.8216974,10.6914884 C27.296432,10.4980224 26.9584823,10.7743663 26.6525502,11.1671188 C26.680156,10.9903548 26.7320901,10.8196644 26.7196108,10.6646639 L25.7927386,10.6646639" id="Fill-371" fill="#FFFFFF"></path>
                                    <polyline id="Fill-372" fill="#FFFFFF" points="13.7834863 13.9868638 12.7908142 13.9868638 13.380745 10.8661013 12.0221393 13.9868638 11.1170745 13.9868638 10.9515661 10.8843218 10.3596184 13.9868638 9.45896544 13.9868638 10.2260016 9.92736728 11.7777214 9.92736728 11.8596562 12.4405275 12.9519107 9.92736728 14.566027 9.92736728 13.7834863 13.9868638"></polyline>
                                </g>
                            </g>
                        </g>
                    </g>
                </g>
                <g id="AmericanExpress-dark" transform="translate(132.000000, 0.000000)">
                    <g id="Payment-badge-set">
                        <g>
                            <g id="Dark-Payment-badges">
                                <g id="AmericanExpress-dark">
                                    <rect id="Rectangle" fill="#0072CE" x="0" y="0" width="40" height="24" rx="1.6"></rect>
                                    <path d="M33.7629445,13.8662332 L32.3497282,13.8662332 C32.2086316,13.8662332 32.1148933,13.8715011 32.0359301,13.9246678 C31.9541293,13.9770541 31.9226223,14.0548043 31.9226223,14.1574306 C31.9226223,14.2794701 31.9917029,14.3624882 32.0921926,14.3983879 C32.1739934,14.426776 32.2618608,14.435068 32.3910199,14.435068 L32.8112764,14.4462867 C33.235349,14.4567249 33.5184228,14.5294023 33.6910264,14.7066572 C33.7224355,14.7313382 33.7413201,14.7590434 33.7629445,14.7867486 L33.7629445,13.8662332 L33.7629445,13.8662332 Z M33.7629445,15.9990468 C33.5745874,16.27366 33.2075602,16.412869 32.7106888,16.412869 L31.2132255,16.412869 L31.2132255,15.7191656 L32.7046223,15.7191656 C32.8525682,15.7191656 32.9560912,15.6997524 33.0184203,15.6390741 C33.0724323,15.5890291 33.1101037,15.5163517 33.1101037,15.4280658 C33.1101037,15.333829 33.0724323,15.2590054 33.015387,15.2141308 C32.9591245,15.1647687 32.8772258,15.1423314 32.7421958,15.1423314 C32.01411,15.1176503 31.1057886,15.1647687 31.1057886,14.1410416 C31.1057886,13.671809 31.4046158,13.1778953 32.2183185,13.1778953 L33.7628467,13.1778953 L33.7628467,12.5342369 L32.3278102,12.5342369 C31.8947357,12.5342369 31.5801549,12.6376437 31.3573554,12.798412 L31.3573554,12.5342369 L29.2347422,12.5342369 C28.895308,12.5342369 28.4968716,12.618133 28.3084166,12.798412 L28.3084166,12.5342369 L24.517987,12.5342369 L24.517987,12.798412 C24.2163221,12.5814528 23.7073176,12.5342369 23.472385,12.5342369 L20.972177,12.5342369 L20.972177,12.798412 C20.7335261,12.5679904 20.2027994,12.5342369 19.8793144,12.5342369 L17.0811597,12.5342369 L16.4408434,13.2251112 L15.841134,12.5342369 L11.66127,12.5342369 L11.66127,17.0482353 L15.7624644,17.0482353 L16.4222524,16.346435 L17.0437818,17.0482353 L19.5717786,17.050479 L19.5717786,15.9886085 L19.8203122,15.9886085 C20.1557346,15.9937788 20.5513334,15.9803164 20.9003566,15.8298889 L20.9003566,17.0481378 L22.9854941,17.0481378 L22.9854941,15.8716418 L23.0860817,15.8716418 C23.214458,15.8716418 23.2270804,15.8769097 23.2270804,16.0048024 L23.2270804,17.0480402 L29.5613582,17.0480402 C29.9635129,17.0480402 30.3838672,16.9454138 30.6166472,16.7591841 L30.6166472,17.0480402 L32.6258548,17.0480402 C33.0439586,17.0480402 33.4522776,16.9896056 33.7629445,16.8399584 L33.7629445,15.9990468 L33.7629445,15.9990468 L33.7629445,15.9990468 Z M30.6698764,14.7066572 C30.8208556,14.8624502 30.9017758,15.0591182 30.9017758,15.3920685 C30.9017758,16.0880156 30.465668,16.412869 29.683668,16.412869 L28.1733866,16.412869 L28.1733866,15.7191656 L29.6776015,15.7191656 C29.8246668,15.7191656 29.9289726,15.6997524 29.9943349,15.6390741 C30.047662,15.5890291 30.0859205,15.5163517 30.0859205,15.4280658 C30.0859205,15.333829 30.0445309,15.2590054 29.9913016,15.2141308 C29.9320058,15.1647687 29.8502051,15.1423314 29.715175,15.1423314 C28.9900247,15.1176503 28.0818989,15.1647687 28.0818989,14.1410416 C28.0818989,13.671809 28.3775951,13.1778953 29.1905149,13.1778953 L30.7450236,13.1778953 L30.7450236,13.8664283 L29.3226095,13.8664283 C29.1816108,13.8664283 29.0899274,13.8716962 29.0119426,13.9248629 C28.9270107,13.9772492 28.8955037,14.0549994 28.8955037,14.1576257 C28.8955037,14.2796652 28.9676176,14.3626833 29.0651718,14.398583 C29.1469726,14.4269711 29.23484,14.4352632 29.3669346,14.4352632 L29.7843535,14.4464818 C30.2052949,14.4567249 30.4942396,14.5293048 30.6698764,14.7066572 L30.6698764,14.7066572 L30.6698764,14.7066572 Z M23.672973,14.5068675 C23.5692543,14.5682286 23.4409758,14.5734966 23.2900944,14.5734966 L22.3481133,14.5734966 L22.3481133,13.8469176 L23.3029125,13.8469176 C23.4409758,13.8469176 23.579137,13.8498442 23.672973,13.9053522 C23.7734628,13.9577385 23.8335414,14.057926 23.8335414,14.1963545 C23.8335414,14.334783 23.7734628,14.4462867 23.672973,14.5068675 L23.672973,14.5068675 L23.672973,14.5068675 Z M24.1412728,14.909471 C24.3138764,14.9729784 24.454973,15.0868234 24.5211181,15.1810601 C24.6306098,15.3389994 24.6464612,15.4864028 24.6495923,15.7715518 L24.6495923,16.412869 L23.8711149,16.412869 L23.8711149,16.0081192 C23.8711149,15.8134999 23.8899017,15.5253266 23.7457718,15.374899 C23.632464,15.2590054 23.4597626,15.2313002 23.1768845,15.2313002 L22.3482111,15.2313002 L22.3482111,16.412869 L21.5690488,16.412869 L21.5690488,13.1777978 L23.3592729,13.1777978 C23.7518384,13.1777978 24.0377498,13.1950647 24.292252,13.3304691 C24.5369695,13.4778725 24.6908841,13.6798084 24.6908841,14.0488535 C24.6907863,14.5652045 24.3453834,14.8286967 24.1412728,14.909471 L24.1412728,14.909471 L24.1412728,14.909471 Z M25.1208275,13.1777978 L27.7088051,13.1777978 L27.7088051,13.8468201 L25.8930427,13.8468201 L25.8930427,14.4349705 L27.66448,14.4349705 L27.66448,15.0950179 L25.8930427,15.0950179 L25.8930427,15.7386763 L27.7088051,15.7416029 L27.7088051,16.412869 L25.1208275,16.412869 L25.1208275,13.1777978 L25.1208275,13.1777978 L25.1208275,13.1777978 Z M19.889197,14.6707574 L18.8871373,14.6707574 L18.8871373,13.8469176 L19.898199,13.8469176 C20.1781417,13.8469176 20.3724675,13.9606651 20.3724675,14.2435704 C20.3724675,14.523354 20.1871437,14.6707574 19.889197,14.6707574 L19.889197,14.6707574 L19.889197,14.6707574 Z M18.1148243,16.1186474 L16.9243096,14.8008939 L18.1148243,13.5249909 L18.1148243,16.1186474 L18.1148243,16.1186474 L18.1148243,16.1186474 Z M15.0403473,15.7386763 L13.13388,15.7386763 L13.13388,15.0950179 L14.8362367,15.0950179 L14.8362367,14.4349705 L13.13388,14.4349705 L13.13388,13.8468201 L15.0779209,13.8468201 L15.926066,14.7895777 L15.0403473,15.7386763 L15.0403473,15.7386763 L15.0403473,15.7386763 Z M21.204957,14.2435704 C21.204957,15.1422338 20.5324488,15.3277807 19.8546568,15.3277807 L18.8871373,15.3277807 L18.8871373,16.412869 L17.379987,16.412869 L16.4251878,15.341926 L15.4329128,16.412869 L12.3614691,16.412869 L12.3614691,13.1777978 L15.4801734,13.1777978 L16.4341898,14.238205 L17.420496,13.1777978 L19.898199,13.1777978 C20.5135641,13.1777978 21.204957,13.3476385 21.204957,14.2435704 L21.204957,14.2435704 L21.204957,14.2435704 Z" id="EXPRESS" fill="#FFFFFF"></path>
                                    <path d="M8.66194012,9.44969084 L8.13121344,8.16032544 L7.60352004,9.44969084 L8.66194012,9.44969084 L8.66194012,9.44969084 Z M20.3537786,8.93626644 C20.2472223,9.00074936 20.1211943,9.00289552 19.970215,9.00289552 L19.0282339,9.00289552 L19.0282339,8.28451112 L19.9830331,8.28451112 C20.118161,8.28451112 20.2591597,8.29055944 20.3507453,8.34284816 C20.4513329,8.38996652 20.5135641,8.49025156 20.5135641,8.62877764 C20.5135641,8.77013272 20.4543662,8.8838802 20.3537786,8.93626644 L20.3537786,8.93626644 L20.3537786,8.93626644 Z M27.0737726,9.44969084 L26.537175,8.16032544 L26.0035129,9.44969084 L27.0737726,9.44969084 L27.0737726,9.44969084 L27.0737726,9.44969084 Z M14.547292,10.8452921 L13.7523762,10.8452921 L13.7494408,8.31221632 L12.6250712,10.8452921 L11.9442459,10.8452921 L10.816941,8.3099726 L10.816941,10.8452921 L9.23982948,10.8452921 L8.9418828,10.1238835 L7.32739344,10.1238835 L7.02641348,10.8452921 L6.18423712,10.8452921 L7.5727958,7.61100132 L8.72485628,7.61100132 L10.0436495,10.6732076 L10.0436495,7.61100132 L11.3092134,7.61100132 L12.3239934,9.80507848 L13.2561898,7.61100132 L14.5471942,7.61100132 L14.5471942,10.8452921 L14.547292,10.8452921 L14.547292,10.8452921 Z M17.7155073,10.8452921 L15.1251814,10.8452921 L15.1251814,7.61100132 L17.7155073,7.61100132 L17.7155073,8.28451112 L15.9006255,8.28451112 L15.9006255,8.8674912 L17.671965,8.8674912 L17.671965,9.5304652 L15.9006255,9.5304652 L15.9006255,10.1763673 L17.7155073,10.1763673 L17.7155073,10.8452921 L17.7155073,10.8452921 L17.7155073,10.8452921 Z M21.3677758,8.48205708 C21.3677758,8.9977252 21.0225686,9.26414396 20.8213934,9.34413788 C20.9910616,9.40852324 21.1359742,9.52227068 21.204957,9.61650744 C21.3144487,9.77737324 21.3333333,9.92106964 21.3333333,10.2099258 L21.3333333,10.8452921 L20.5512355,10.8452921 L20.5483001,10.4374206 C20.5483001,10.2428013 20.566989,9.96292012 20.4258924,9.8073222 C20.3125846,9.69357476 20.1398832,9.66889368 19.8607233,9.66889368 L19.0283318,9.66889368 L19.0283318,10.8452921 L18.2529854,10.8452921 L18.2529854,7.61100132 L20.036458,7.61100132 C20.4327418,7.61100132 20.7247198,7.62143956 20.9754059,7.76591636 C21.2207104,7.9103932 21.3677758,8.121304 21.3677758,8.48205708 L21.3677758,8.48205708 L21.3677758,8.48205708 Z M22.6086821,10.8452921 L21.8174844,10.8452921 L21.8174844,7.61100132 L22.6086821,7.61100132 L22.6086821,10.8452921 L22.6086821,10.8452921 L22.6086821,10.8452921 Z M31.7875923,10.8452921 L30.688761,10.8452921 L29.2189886,8.41776928 L29.2189886,10.8452921 L27.6398224,10.8452921 L27.3380596,10.1238835 L25.7272884,10.1238835 L25.4345277,10.8452921 L24.5271847,10.8452921 C24.1502748,10.8452921 23.6730709,10.7621765 23.4028152,10.4875632 C23.1303089,10.2129499 22.9885274,9.8409782 22.9885274,9.25282776 C22.9885274,8.77315688 23.0732636,8.33465364 23.4065334,7.9881434 C23.6572195,7.73001668 24.0497851,7.61100132 24.5841321,7.61100132 L25.3348208,7.61100132 L25.3348208,8.30402184 L24.5998856,8.30402184 C24.3169097,8.30402184 24.1571242,8.34596984 24.0032095,8.495617 C23.8710171,8.6318018 23.7803121,8.88924564 23.7803121,9.22824428 C23.7803121,9.57475452 23.8493927,9.8245892 23.9935226,9.98779628 C24.1128969,10.1157866 24.3298256,10.1546129 24.5339362,10.1546129 L24.8821766,10.1546129 L25.9750392,7.61109888 L27.1368844,7.61109888 L28.4497089,10.670281 L28.4497089,7.61109888 L29.630341,7.61109888 L30.9933614,9.8636106 L30.9933614,7.61109888 L31.7875923,7.61109888 L31.7875923,10.8452921 L31.7875923,10.8452921 L31.7875923,10.8452921 Z M6.17523512,11.4805609 L7.50009488,11.4805609 L7.79882432,10.7621765 L8.46761432,10.7621765 L8.765561,11.4805609 L11.3723253,11.4805609 L11.3723253,10.9313343 L11.6050075,11.4829022 L12.9582431,11.4829022 L13.1909253,10.9231398 L13.1909253,11.4805609 L19.6692351,11.4805609 L19.6662018,10.3013334 L19.7915449,10.3013334 C19.8793144,10.3043576 19.9049506,10.3124546 19.9049506,10.4569314 L19.9049506,11.4805609 L23.2555542,11.4805609 L23.2555542,11.2060452 C23.5258099,11.3504244 23.9461642,11.4805609 24.499298,11.4805609 L25.908894,11.4805609 L26.2105589,10.7621765 L26.8793489,10.7621765 L27.1743602,11.4805609 L29.8907141,11.4805609 L29.8907141,10.7981737 L30.3020664,11.4805609 L32.4787894,11.4805609 L32.4787894,6.9696842 L30.3245714,6.9696842 L30.3245714,7.5024242 L30.0229065,6.9696842 L27.8124259,6.9696842 L27.8124259,7.5024242 L27.5354187,6.9696842 L24.5495918,6.9696842 C24.0497851,6.9696842 23.6104483,7.03923988 23.2555542,7.23307884 L23.2555542,6.9696842 L21.1950743,6.9696842 L21.1950743,7.23307884 C20.9692415,7.03328912 20.66151,6.9696842 20.3193362,6.9696842 L12.7916082,6.9696842 L12.2865177,8.1347664 L11.7678263,6.9696842 L9.3967774,6.9696842 L9.3967774,7.5024242 L9.13630644,6.9696842 L7.114183,6.9696842 L6.17513724,9.11439924 L6.17513724,11.4805609 L6.17523512,11.4805609 L6.17523512,11.4805609 Z" id="AMERICAN" fill="#FFFFFF"></path>
                                </g>
                            </g>
                        </g>
                    </g>
                </g>
            </g>
        </g>
    </g>
</svg>