<svg xmlns="http://www.w3.org/2000/svg" viewBox="0 0 24 24"><path d="M17.5 8l-2.4-3.2a.5.5 0 0 1 .8-.6L18.75 8h2.75a.5.5 0 1 1 0 1h-1.1l-1.705 9.755A1.461 1.461 0 0 1 17.277 20H6.665a1.452 1.452 0 0 1-1.404-1.232L3.56 9H2.5a.5.5 0 0 1 0-1h2.75L8.1 4.2a.5.5 0 0 1 .8.6L6.5 8h11zm.995 1H4.574l1.675 9.61c.032.22.218.385.428.39h10.587a.462.462 0 0 0 .443-.404L19.384 9h-.889zM11.5 11.5a.5.5 0 1 1 1 0v5a.5.5 0 1 1-1 0v-5zm-3.467.047a.5.5 0 0 1 .996-.094l.469 5a.5.5 0 0 1-.996.094l-.469-5zm6.938-.094a.5.5 0 1 1 .996.094l-.47 5a.5.5 0 1 1-.995-.094l.47-5z"/></svg>