<svg xmlns="http://www.w3.org/2000/svg" viewBox="0 0 24 24"><path d="M10.57 19.214c.157-.156.272-.35.336-.562l.49-1.643a.5.5 0 0 1 .958.286l-.49 1.643a2.33 2.33 0 0 1-.586.984l-2.672 2.672a.5.5 0 0 1-.706 0l-1.752-1.74a.5.5 0 0 1-.002-.708l1.614-1.614c.194-.193.334-.432.41-.695l.96-3.355a.5.5 0 0 1 .96.276l-.96 3.354c-.12.426-.35.814-.662 1.128l-1.26 1.259 1.043 1.035 2.32-2.32zm2.356-10.063a.5.5 0 0 1 .864-.502C15.232 11.127 16.233 12 18.5 12a.5.5 0 1 1 0 1c-2.718 0-3.971-1.093-5.574-3.849zM11.5 7a2.5 2.5 0 1 1 0-5 2.5 2.5 0 0 1 0 5zm0-1a1.5 1.5 0 1 0 0-3 1.5 1.5 0 0 0 0 3zm-1.414 7.5v.123c-.002 1.98.237 2.376 2.385 3.068a2.818 2.818 0 0 1 1.845 2.012L14.89 21h1.3l-.618-3.074a3.96 3.96 0 0 0-1.04-1.99l-1.34-1.041A.5.5 0 0 1 13 14.5V9.416a.511.511 0 0 0-.484-.506c-.916-.055-1.723-.01-2.43.124V13.5zm-3.374-2.294a4.929 4.929 0 0 0-.624 1.596c-.066.324-.088.57-.088.698a.5.5 0 1 1-1 0c0-.192.027-.504.109-.9a5.918 5.918 0 0 1 .752-1.918c1.174-1.909 3.356-2.972 6.713-2.77A1.512 1.512 0 0 1 14 9.41v4.845l1.193.932a4.97 4.97 0 0 1 1.36 2.541l.737 3.672a.5.5 0 0 1-.49.599h-2.3a.5.5 0 0 1-.485-.379l-.67-2.68a1.818 1.818 0 0 0-1.186-1.3c-2.592-.835-3.075-1.634-3.073-4.019V9.305c-1.073.392-1.847 1.045-2.374 1.9z"/></svg>
