<svg width="14" height="12" xmlns="http://www.w3.org/2000/svg"><path d="M4.33 3.33h3a.33.33 0 0 1 0 .67h-.37L6 11.7a.33.33 0 0 1-.33.3H2.34a.33.33 0 0 1-.33-.3L1.04 4H.67a.33.33 0 1 1 0-.67h3V1.8L2.43.57A.33.33 0 1 1 2.9.1l1.34 1.33c.06.06.1.15.1.24v1.66zM6.3 4H1.7l.93 7.33h2.72L6.3 4zm6.04 3.33V7a1 1 0 0 0-1-1h-2a1 1 0 0 0-1 1v.33h4zM13 9.97v.36c0 .92-.75 1.67-1.67 1.67h-2c-.92 0-1.66-.75-1.66-1.67v-.36c-.1.02-.21.03-.34.03a.33.33 0 1 1 0-.67c.22 0 .3-.05.53-.25.34-.3.56-.41.97-.41.42 0 .64.11.98.41.22.2.31.25.53.25.2 0 .3-.04.52-.25.34-.3.56-.41.97-.41.42 0 .64.12.98.41.22.2.31.25.52.25a.33.33 0 0 1 0 .67c-.12 0-.23-.01-.33-.03zm-4.67-.41v.77a1 1 0 0 0 1 1h2a1 1 0 0 0 1-1v-.77c-.2-.18-.3-.23-.5-.23s-.3.05-.52.25c-.34.3-.56.42-.97.42-.42 0-.64-.12-.97-.42-.23-.2-.32-.25-.54-.25-.2 0-.3.05-.5.23zM7.67 7c0-.92.74-1.67 1.66-1.67h2c.92 0 1.67.75 1.67 1.67v.67c0 .18-.15.33-.33.33H8a.33.33 0 0 1-.33-.33V7z" fill="#333" fill-rule="nonzero"/></svg>