<svg xmlns="http://www.w3.org/2000/svg" viewBox="0 0 16 16"><path d="M1.667 6.667a.333.333 0 1 1 0-.667h3.712a1 1 0 0 1 .895.553l1.15 2.298a.333.333 0 1 1-.597.298l-1.15-2.298a.333.333 0 0 0-.298-.184H1.667zm4.219 4a2 2 0 1 1-3.772 0h-.447a.333.333 0 0 1-.334-.334v-.652A3.68 3.68 0 0 1 5.014 6a.333.333 0 1 1 0 .667A3.014 3.014 0 0 0 2 9.68V10h6.862l2.389-2.389-2.444-4.278h-1.14a.333.333 0 1 1 0-.666H9c.12 0 .23.064.29.168L11.955 7.5a.333.333 0 0 1-.054.401L9.236 10.57a.333.333 0 0 1-.236.098H5.886zm-.731 0h-2.31a1.334 1.334 0 1 0 2.31 0zm7.512 2.666a2 2 0 1 1 0-4 2 2 0 0 1 0 4zm0-.666a1.333 1.333 0 1 0 0-2.667 1.333 1.333 0 0 0 0 2.667z"/></svg>
