<svg xmlns="http://www.w3.org/2000/svg" width="24" height="24" viewBox="0 0 24 24">
    <g fill="none" fill-rule="evenodd">
        <g>
            <g>
                <g>
                    <g>
                        <path fill="#125FCA" d="M20 11H4c-.55 0-1 .45-1 1s.45 1 1 1h16c.55 0 1-.45 1-1s-.45-1-1-1zM4 18h10c.55 0 1-.45 1-1s-.45-1-1-1H4c-.55 0-1 .45-1 1s.45 1 1 1zM20 6H4c-.55 0-1 .45-1 1v.01c0 .55.45 1 1 1h16c.55 0 1-.45 1-1V7c0-.55-.45-1-1-1z" transform="translate(-807 -744) translate(789 676) translate(0 56) translate(18 12)"/>
                    </g>
                </g>
            </g>
        </g>
    </g>
</svg>
