<svg xmlns="http://www.w3.org/2000/svg" viewBox="0 0 28 28"><path d="M8.13 15.34a.583.583 0 1 1-.207 1.147 4.055 4.055 0 0 1-2.99-2.359c-.916-2.225.517-4.86 3.111-5.915a5.674 5.674 0 0 1 3.716-.245.818.818 0 0 0 .941-.384 5.595 5.595 0 0 1 2.806-2.42c2.502-1.016 5.253-.25 6.252 1.815a.583.583 0 0 1-1.05.508c-.708-1.463-2.791-2.043-4.77-1.239a4.43 4.43 0 0 0-2.225 1.915 1.98 1.98 0 0 1-2.271.928 4.507 4.507 0 0 0-2.951.2c-2.047.832-3.128 2.82-2.487 4.38a2.882 2.882 0 0 0 2.125 1.668zm2.953 4.493a.583.583 0 1 1 0-1.166.583.583 0 0 1 0 1.166zM12.25 21a.583.583 0 1 1 0-1.167.583.583 0 0 1 0 1.167zm1.167-1.167a.583.583 0 1 1 0-1.166.583.583 0 0 1 0 1.166zM22.21 9.19c1.701 1.702 1.403 4.685-.577 6.668a5.623 5.623 0 0 1-3.323 1.654.827.827 0 0 0-.722.725 5.616 5.616 0 0 1-1.648 3.315c-1.99 1.986-4.971 2.284-6.673.583-1.704-1.702-1.406-4.685.577-6.668a5.623 5.623 0 0 1 3.323-1.654.827.827 0 0 0 .722-.725 5.62 5.62 0 0 1 1.648-3.315c1.989-1.985 4.972-2.283 6.673-.583zm-5.853 1.414a4.455 4.455 0 0 0-1.31 2.627 1.992 1.992 0 0 1-1.737 1.74 4.46 4.46 0 0 0-2.635 1.315c-1.566 1.565-1.79 3.818-.584 5.024 1.206 1.205 3.458.98 5.03-.589a4.452 4.452 0 0 0 1.309-2.627c.11-.912.828-1.63 1.737-1.74a4.46 4.46 0 0 0 2.635-1.315c1.563-1.565 1.788-3.818.584-5.024-1.206-1.204-3.459-.98-5.03.589z"/></svg>
