<svg xmlns="http://www.w3.org/2000/svg" viewBox="0 0 20 20"><path d="M12.185 8.216a2.08 2.08 0 0 1-.667.743 1.819 1.819 0 0 1-1.14.314l-.051-.005a.417.417 0 0 1-.363-.413c0-1.252-.237-1.948-.585-2.236a.698.698 0 0 0-.08-.058c-.087.96-.388 1.6-.955 2.321l-.227.285c-.425.54-.575.877-.575 1.472 0 1.167.948 1.87 2.471 1.87a2.41 2.41 0 0 0 2.487-2.32c0-.843-.119-1.492-.315-1.973zm-1.13.05c.282-.188.5-.522.622-1.06a.417.417 0 0 1 .658-.24c.157.118.356.36.542.753.288.61.456 1.426.456 2.477-.061 1.802-1.558 3.203-3.333 3.146-1.925 0-3.292-1.012-3.292-2.703 0-.812.224-1.315.755-1.988l.226-.284c.55-.7.781-1.258.801-2.296a.417.417 0 0 1 .322-.398l.076-.013a1.32 1.32 0 0 1 1.02.316c.512.421.818 1.207.879 2.42.088-.029.179-.071.268-.13zm6.055 4.116c.053-.158-.044-.4-.397-.975-.407-.664-.541-.95-.535-1.35.003-.367.145-.695.446-1.18l.11-.176c.367-.577.465-.806.419-.953-.046-.145-.264-.282-.863-.533l-.04-.017c-.697-.291-.987-.453-1.221-.782-.233-.328-.292-.654-.338-1.402-.043-.696-.1-.947-.227-1.04-.115-.085-.36-.067-1.009.087l-.112.026c-.642.15-1.006.184-1.381.058-.392-.132-.648-.373-1.12-.942a20.97 20.97 0 0 0-.18-.216c-.295-.347-.475-.486-.594-.487-.147-.001-.345.157-.715.588l-.083.097c-.492.576-.735.802-1.124.924-.379.12-.725.076-1.408-.098l-.062-.016c-.653-.166-.905-.19-1.028-.102-.12.086-.182.33-.236.983l-.005.065c-.06.717-.131 1.058-.372 1.383-.238.322-.518.47-1.235.752-.633.25-.857.384-.91.543-.053.157.044.398.399.977.405.66.54.947.533 1.348-.003.365-.145.694-.444 1.177l-.112.18c-.367.577-.465.806-.419.951.046.144.264.281.86.53l.044.02c.695.29.986.453 1.22.782.233.328.292.654.338 1.402.043.696.1.947.227 1.04.115.085.36.067 1.009-.087l.112-.026c.642-.15 1.006-.184 1.381-.058.392.132.648.373 1.12.942l.18.216c.295.347.475.486.594.487.147.001.345-.157.715-.588l.083-.097c.492-.576.735-.802 1.124-.924.379-.12.725-.076 1.408.098l.062.016c.653.166.905.19 1.028.102.12-.086.182-.33.236-.983l.005-.065c.06-.717.131-1.058.372-1.383.238-.322.517-.47 1.236-.752.633-.25.856-.384.909-.542zm-.604 1.317c-.553.218-.766.33-.872.473-.112.151-.164.404-.21.957l-.006.064c-.077.937-.168 1.298-.583 1.593-.418.298-.783.264-1.717.026l-.061-.015c-.524-.134-.78-.166-.952-.111-.178.056-.361.226-.741.67l-.085.1c-.538.626-.859.882-1.354.877-.451-.004-.773-.252-1.222-.78l-.186-.224c-.367-.441-.557-.621-.744-.684-.176-.06-.437-.034-.927.08l-.11.025c-.934.221-1.288.248-1.696-.054-.418-.31-.502-.68-.561-1.632-.037-.603-.081-.848-.187-.997-.106-.149-.326-.272-.863-.497-.897-.376-1.222-.58-1.376-1.065-.157-.494-.014-.825.509-1.65l.108-.172c.221-.359.318-.582.32-.749.002-.177-.1-.395-.412-.902-.503-.821-.647-1.179-.478-1.68.17-.5.5-.698 1.393-1.05.554-.219.767-.332.873-.474.112-.151.164-.404.21-.957l.006-.064c.077-.937.168-1.298.583-1.593.418-.298.783-.264 1.717-.026l.061.015c.524.134.78.166.952.111.178-.056.361-.226.741-.67l.085-.1c.538-.626.859-.882 1.354-.877.451.004.773.252 1.222.78l.186.224c.367.441.557.621.744.684.176.06.437.034.927-.08l.11-.025c.934-.221 1.288-.248 1.696.054.418.31.502.68.561 1.632.037.603.081.848.187.997.106.149.325.272.863.496.897.375 1.222.58 1.376 1.068.157.495.014.827-.509 1.65l-.105.168c-.224.361-.32.584-.322.752-.003.176.1.394.41.901.503.82.648 1.179.479 1.68-.168.5-.498.698-1.394 1.051z"/></svg>
