<svg xmlns="http://www.w3.org/2000/svg" viewBox="0 0 44 32"><g fill="#535353" fill-rule="evenodd"><path d="M31.143 26.77h.76l2.152 2.127 2.659 2.627c.126.125.253.25.38.25.126 0 .253.125.38.125.126 0 .379-.125.506-.25.126-.25.253-.5.253-.876V25.02c2.912-1.626 4.81-4.128 4.81-7.005 0-4.754-5.317-8.757-11.9-8.757-.886 0-1.772.125-2.658.25l-1.14 6.255-6.963 3.503-1.139-1.251c0 4.753 5.317 8.756 11.9 8.756z"/><path d="M14.939 0C6.709 0 .127 4.879.127 10.883c0 3.628 2.405 6.755 6.076 8.757v7.255c0 .376.127.75.254 1.001.126.125.38.25.633.25.126 0 .38-.125.506-.125.127-.125.38-.125.506-.375l3.292-3.253 2.658-2.627h1.013c8.23 0 14.812-4.878 14.812-10.883C29.877 4.88 23.167 0 14.94 0zm0 18.389c-6.204 0-11.394-3.503-11.394-7.38 0-4.004 5.19-7.506 11.394-7.506 6.203 0 11.394 3.502 11.394 7.38.126 4.128-5.191 7.506-11.394 7.506z"/></g></svg>
