<svg xmlns="http://www.w3.org/2000/svg" viewBox="0 0 20 20"><path fill="#D50525" d="M10.729 4.16a.417.417 0 0 1 .142-.82c1.237.214 2.117 1.322 2.046 2.552v.358a.417.417 0 0 1-.834 0l.001-.382a1.638 1.638 0 0 0-1.355-1.707zm3.585 2.424A2.44 2.44 0 0 1 15 8.44v1.095c0 4.851-7.545 9.108-9.903 6.29a.417.417 0 0 1 .152-.648 11.666 11.666 0 0 0 2.394-1.514c1.47-1.212 2.34-2.597 2.34-4.128l.001-1.057a2.427 2.427 0 0 1 2.484-2.645 2.462 2.462 0 0 1 1.846.75zm-1.846-.334l-.014.416a1.593 1.593 0 0 0-1.211.499c-.314.332-.47.782-.427 1.275v1.095c0 1.824-1 3.416-2.643 4.77a12.489 12.489 0 0 1-2.006 1.343c2.236 1.273 8-2.243 8-6.113V8.41a1.628 1.628 0 0 0-1.683-1.744l-.016-.416z"/></svg>
