<svg xmlns="http://www.w3.org/2000/svg" viewBox="0 0 20 20"><path fill="#028A00" d="M9.294 14.464a29.263 29.263 0 0 1 1.133-3.775c.724-1.897 1.588-3.412 2.617-4.405a.417.417 0 1 1 .579.6c-.925.892-1.733 2.309-2.417 4.102a28.45 28.45 0 0 0-1.1 3.667 30.497 30.497 0 0 0-.337 1.662.417.417 0 0 1-.412.352h-.39a.417.417 0 0 1-.39-.274A129.067 129.067 0 0 0 4.615 6.82a.417.417 0 0 1 .752-.357 117.303 117.303 0 0 1 1.138 2.531 129.89 129.89 0 0 1 2.588 6.394c.058-.289.124-.598.2-.924zm7.372-10.728l.001.039c.006.322-.011.769-.07 1.296a10.464 10.464 0 0 1-.538 2.382c-.315.873-.749 1.633-1.314 2.242a3.965 3.965 0 0 1-3.83 1.222.417.417 0 0 1-.294-.252c-1.426-3.574-.226-5.787 2.585-6.795a9.287 9.287 0 0 1 3.044-.537.417.417 0 0 1 .416.403zm-1.3.492a8.589 8.589 0 0 0-1.879.427c-2.336.837-3.289 2.514-2.174 5.49a3.136 3.136 0 0 0 2.816-1.012c.488-.525.867-1.19 1.146-1.963a9.63 9.63 0 0 0 .494-2.192c.033-.297.052-.565.06-.794-.145.01-.3.024-.463.044z"/></svg>
