<svg width="14" height="9" xmlns="http://www.w3.org/2000/svg"><path d="M.67 2a.33.33 0 1 1 0-.67h2.66a.33.33 0 0 1 0 .67H.67zm12.66-.67a.33.33 0 0 1 0 .67H6.67a.33.33 0 1 1 0-.67h6.66zm0 5.34a.33.33 0 1 1 0 .66h-2.66a.33.33 0 1 1 0-.66h2.66zM.67 7.33a.33.33 0 1 1 0-.66h6.66a.33.33 0 1 1 0 .66H.67zM4 .67a.33.33 0 0 0-.33.33v1.33c0 .19.15.34.33.34h2c.18 0 .33-.15.33-.34V1A.33.33 0 0 0 6 .67H4zM4 0h2a1 1 0 0 1 1 1v1.33a1 1 0 0 1-1 1H4a1 1 0 0 1-1-1V1a1 1 0 0 1 1-1zm4 6a.33.33 0 0 0-.33.33v1.34c0 .18.15.33.33.33h2c.18 0 .33-.15.33-.33V6.33A.33.33 0 0 0 10 6H8zm0-.67h2a1 1 0 0 1 1 1v1.34a1 1 0 0 1-1 1H8a1 1 0 0 1-1-1V6.33a1 1 0 0 1 1-1z" fill="#333" fill-rule="nonzero"/></svg>