<svg viewBox="0 0 165 32" xmlns="http://www.w3.org/2000/svg"><g fill="none" fill-rule="evenodd"><path d="m138.334129 3.47636364c-.617432-3.31636364-.617432-3.31636364-5.365776-3.31636364-4.469031 0-4.410228 0-5.747997 2.70545455l-10.114121 20.71272725c-1.455375 2.9818182-1.234864 3.2 2.51383 3.2 2.91075 0 2.851947 0 4.072109-2.6472727l1.617084-3.5345455h9.731901l.499826 3.5345455c.396921 2.6472727.499826 2.6472727 3.410576 2.6472727 3.263568 0 3.586985-.2327273 2.954852-3.4327273zm-10.555144 11.76727276 3.910402-8.45090913c.338117-.71272727.338117-.71272727.77914-.71272727.499826 0 .499826 0 .617432.77090909l1.17606 8.39272731z"/><path d="m115.121633 5.78909091c2.366822 0 2.381523-.02909091 2.866648-2.82181818.485125-2.80727273.485125-2.82181819-1.690588-2.82181819h-12.054621c-4.2485188 0-4.160314 0-4.8953521 4.24727273l-3.0871591 17.78909093c-.7791402 4.5818182-.7350379 4.5818182 3.6163864 4.5818182h11.7753068c2.455027 0 2.396223 0 2.91075-2.7636364.499826-2.88.499826-2.88-1.734689-2.88h-10.158224l.837943-5.1345455h8.438235c2.293318 0 2.293318 0 2.675538-2.6472727.441023-2.7054545.441023-2.7054545-2.675538-2.7054545h-7.541489l.837944-4.85818185h9.878909z"/><path d="m85.4702047.16h-16.8911705c-2.3962235 0-2.3962235 0-2.91075 2.82181818-.4998257 2.82181818-.4410227 2.82181818 1.6758864 2.82181818h5.4980833l-3.0577576 17.55636364c-.5586287 3.4327273-.5145265 3.4327273 2.6167349 3.4327273 2.851947 0 3.0283561 0 3.4105758-2.4290909l3.2341666-18.56000004h5.2481705c2.366822 0 2.366822 0 2.8666477-2.82181818.485125-2.82181818.485125-2.82181818-1.6905871-2.82181818"/><path d="m39.2657236.16c-2.9401516 0-2.9989546.01454546-3.4105758 2.44363636l-2.2198144 12.80000004c-.6174318 3.7090909-1.6317841 5.8763636-5.2628712 5.8763636-3.6310872 0-4.8659508-2.1527273-4.307322-5.4690909l2.1169091-12.23272728c.5586288-3.43272728.4557235-3.40363636-2.6167349-3.40363636-2.9989545 0-3.0724583-.02909092-3.4693788 2.41454545l-2.2345151 12.84363639c-1.2642652 7.2727272 3.2488674 11.7672727 9.7319015 11.7672727 7.2621743 0 10.9079622-3.2 12.1428258-10.88l2.2051136-12.71272727c.5880303-3.44727273.4557235-3.44727273-2.6755378-3.44727273"/><path d="m14.3332387.16h-7.39448111c-2.42562501 0-2.42562501 0-2.91075001 2.77818182-.49982576 2.77818182-.44102272 2.86545454 1.70528789 2.86545454h4.39552653l-2.44032577 14.06545454c-.54392803 3.1563636-1.98460228 5.28-6.26252274 6.5890909-1.10255682.32-1.42597349.7563637-1.42597349 1.2509091 0 .5381818.22051136 1.0909091.66153409 2.2254546.66153409 1.6872727 1.10255682 2.0072727 1.70528788 2.0072727.60273107 0 1.70528789-.32 2.08750758-.4363637 6.10081445-1.9636363 8.52643945-6.5890909 9.51139015-12.130909l2.7343409-15.84000005c.6027311-3.31636363.6027311-3.37454545-2.3668219-3.37454545"/><path d="m52.8639243 21.1636364c2.3815228-.1454546 3.6310872-1.1490909 3.6310872-2.3127273 0-1.3818182-1.7346894-1.8763636-4.0133069-2.5454546-4.5278333-1.3818181-8.5411401-2.9527272-8.5411401-7.69454541 0-5.58545454 4.6307386-8.61090909 10.4963409-8.61090909 2.4550265 0 5.277572.14545454 7.1004659.30545455 1.6464849.14545454 1.9405.72727272 1.5141781 3.15636363-.426322 2.42909091-.9996516 2.67636364-2.3521213 2.56-1.6905871-.14545454-3.881-.29090909-6.424231-.26181818-3.0136553.04363636-3.8662993 1.04727273-3.8662993 2.09454545 0 1.26545455 1.1760606 1.99272728 3.9692046 2.70545455 5.1893674 1.4981818 8.5999432 3.52 8.5999432 7.9418182 0 5.1927273-3.9104015 8.2327273-10.1582235 8.48-3.4105758.1309091-6.3360266-.1163637-8.9233599-.4945455-1.9846023-.2909091-2.0581061-.32-1.5729811-3.1563636.4557235-2.5745455.5145266-2.7636364 2.3374205-2.5454546 3.5281818.4218182 5.8067993.5236364 8.2030227.3781819"/><path d="m162.164057.16h-16.89117c-2.396224 0-2.396224 0-2.91075 2.82181818-.514527 2.82181818-.441023 2.82181818 1.675886 2.82181818h5.498083l-3.057757 17.55636364c-.558629 3.4327273-.514527 3.4327273 2.616735 3.4327273 2.851947 0 3.028356 0 3.410575-2.4290909l3.234167-18.56000004h5.248171c2.366821 0 2.366821 0 2.866647-2.82181818.485125-2.82181818.485125-2.82181818-1.690587-2.82181818"/></g></svg>